%TF.GenerationSoftware,KiCad,Pcbnew,(5.1.6)-1*%
%TF.CreationDate,2021-03-31T10:32:31-04:00*%
%TF.ProjectId,Turbo-Display-V2,54757262-6f2d-4446-9973-706c61792d56,rev?*%
%TF.SameCoordinates,Original*%
%TF.FileFunction,Copper,L1,Top*%
%TF.FilePolarity,Positive*%
%FSLAX46Y46*%
G04 Gerber Fmt 4.6, Leading zero omitted, Abs format (unit mm)*
G04 Created by KiCad (PCBNEW (5.1.6)-1) date 2021-03-31 10:32:31*
%MOMM*%
%LPD*%
G01*
G04 APERTURE LIST*
%TA.AperFunction,ComponentPad*%
%ADD10C,1.381000*%
%TD*%
%TA.AperFunction,ComponentPad*%
%ADD11O,1.700000X1.700000*%
%TD*%
%TA.AperFunction,ComponentPad*%
%ADD12R,1.700000X1.700000*%
%TD*%
%TA.AperFunction,SMDPad,CuDef*%
%ADD13R,1.505000X0.700000*%
%TD*%
%TA.AperFunction,ComponentPad*%
%ADD14R,1.600000X1.600000*%
%TD*%
%TA.AperFunction,ComponentPad*%
%ADD15O,1.600000X1.600000*%
%TD*%
%TA.AperFunction,SMDPad,CuDef*%
%ADD16R,1.525000X0.650000*%
%TD*%
%TA.AperFunction,ViaPad*%
%ADD17C,0.800000*%
%TD*%
%TA.AperFunction,Conductor*%
%ADD18C,0.400000*%
%TD*%
%TA.AperFunction,Conductor*%
%ADD19C,0.250000*%
%TD*%
%TA.AperFunction,Conductor*%
%ADD20C,0.254000*%
%TD*%
G04 APERTURE END LIST*
%TO.P,C1,1*%
%TO.N,+5V*%
%TA.AperFunction,SMDPad,CuDef*%
G36*
G01*
X110607000Y-99953500D02*
X109357000Y-99953500D01*
G75*
G02*
X109107000Y-99703500I0J250000D01*
G01*
X109107000Y-98778500D01*
G75*
G02*
X109357000Y-98528500I250000J0D01*
G01*
X110607000Y-98528500D01*
G75*
G02*
X110857000Y-98778500I0J-250000D01*
G01*
X110857000Y-99703500D01*
G75*
G02*
X110607000Y-99953500I-250000J0D01*
G01*
G37*
%TD.AperFunction*%
%TO.P,C1,2*%
%TO.N,GND*%
%TA.AperFunction,SMDPad,CuDef*%
G36*
G01*
X110607000Y-96978500D02*
X109357000Y-96978500D01*
G75*
G02*
X109107000Y-96728500I0J250000D01*
G01*
X109107000Y-95803500D01*
G75*
G02*
X109357000Y-95553500I250000J0D01*
G01*
X110607000Y-95553500D01*
G75*
G02*
X110857000Y-95803500I0J-250000D01*
G01*
X110857000Y-96728500D01*
G75*
G02*
X110607000Y-96978500I-250000J0D01*
G01*
G37*
%TD.AperFunction*%
%TD*%
%TO.P,C2,2*%
%TO.N,GND*%
%TA.AperFunction,SMDPad,CuDef*%
G36*
G01*
X107813000Y-97015000D02*
X106563000Y-97015000D01*
G75*
G02*
X106313000Y-96765000I0J250000D01*
G01*
X106313000Y-95840000D01*
G75*
G02*
X106563000Y-95590000I250000J0D01*
G01*
X107813000Y-95590000D01*
G75*
G02*
X108063000Y-95840000I0J-250000D01*
G01*
X108063000Y-96765000D01*
G75*
G02*
X107813000Y-97015000I-250000J0D01*
G01*
G37*
%TD.AperFunction*%
%TO.P,C2,1*%
%TO.N,+5V*%
%TA.AperFunction,SMDPad,CuDef*%
G36*
G01*
X107813000Y-99990000D02*
X106563000Y-99990000D01*
G75*
G02*
X106313000Y-99740000I0J250000D01*
G01*
X106313000Y-98815000D01*
G75*
G02*
X106563000Y-98565000I250000J0D01*
G01*
X107813000Y-98565000D01*
G75*
G02*
X108063000Y-98815000I0J-250000D01*
G01*
X108063000Y-99740000D01*
G75*
G02*
X107813000Y-99990000I-250000J0D01*
G01*
G37*
%TD.AperFunction*%
%TD*%
D10*
%TO.P,DS1_LSB1,1*%
%TO.N,Net-(DS1_LSB1-Pad1)*%
X88392000Y-75438000D03*
%TO.P,DS1_LSB1,2*%
%TO.N,Net-(DS1_LSB1-Pad2)*%
X90932000Y-75438000D03*
%TO.P,DS1_LSB1,3*%
%TO.N,+5V*%
X93472000Y-75438000D03*
%TO.P,DS1_LSB1,4*%
%TO.N,Net-(DS1_LSB1-Pad4)*%
X96012000Y-75438000D03*
%TO.P,DS1_LSB1,5*%
%TO.N,Net-(DS1_LSB1-Pad5)*%
X98552000Y-75438000D03*
%TO.P,DS1_LSB1,6*%
%TO.N,Net-(DS1_LSB1-Pad6)*%
X98552000Y-90678000D03*
%TO.P,DS1_LSB1,7*%
%TO.N,Net-(DS1_LSB1-Pad7)*%
X96012000Y-90678000D03*
%TO.P,DS1_LSB1,8*%
%TO.N,+5V*%
X93472000Y-90678000D03*
%TO.P,DS1_LSB1,9*%
%TO.N,Net-(DS1_LSB1-Pad9)*%
X90932000Y-90678000D03*
%TO.P,DS1_LSB1,10*%
%TO.N,Net-(DS1_LSB1-Pad10)*%
X88392000Y-90678000D03*
%TD*%
%TO.P,DS2_MSB1,10*%
%TO.N,Net-(DS2_MSB1-Pad10)*%
X101092000Y-90678000D03*
%TO.P,DS2_MSB1,9*%
%TO.N,Net-(DS2_MSB1-Pad9)*%
X103632000Y-90678000D03*
%TO.P,DS2_MSB1,8*%
%TO.N,+5V*%
X106172000Y-90678000D03*
%TO.P,DS2_MSB1,7*%
%TO.N,Net-(DS2_MSB1-Pad7)*%
X108712000Y-90678000D03*
%TO.P,DS2_MSB1,6*%
%TO.N,Net-(DS2_MSB1-Pad6)*%
X111252000Y-90678000D03*
%TO.P,DS2_MSB1,5*%
%TO.N,Net-(DS2_MSB1-Pad5)*%
X111252000Y-75438000D03*
%TO.P,DS2_MSB1,4*%
%TO.N,Net-(DS2_MSB1-Pad4)*%
X108712000Y-75438000D03*
%TO.P,DS2_MSB1,3*%
%TO.N,+5V*%
X106172000Y-75438000D03*
%TO.P,DS2_MSB1,2*%
%TO.N,Net-(DS2_MSB1-Pad2)*%
X103632000Y-75438000D03*
%TO.P,DS2_MSB1,1*%
%TO.N,Net-(DS2_MSB1-Pad1)*%
X101092000Y-75438000D03*
%TD*%
D11*
%TO.P,J1,2*%
%TO.N,+5V*%
X113284000Y-99060000D03*
D12*
%TO.P,J1,1*%
%TO.N,GND*%
X113284000Y-96520000D03*
%TD*%
%TO.P,J2,1*%
%TO.N,GND*%
X87884000Y-96520000D03*
D11*
%TO.P,J2,2*%
%TO.N,Net-(J2-Pad2)*%
X87884000Y-99060000D03*
%TD*%
D12*
%TO.P,J3,1*%
%TO.N,GND*%
X91694000Y-96520000D03*
D11*
%TO.P,J3,2*%
%TO.N,Net-(J3-Pad2)*%
X91694000Y-99060000D03*
%TD*%
D13*
%TO.P,RN1,1*%
%TO.N,Net-(RN1-Pad1)*%
X98544000Y-87503000D03*
%TO.P,RN1,2*%
%TO.N,Net-(RN1-Pad2)*%
X98544000Y-86233000D03*
%TO.P,RN1,3*%
%TO.N,Net-(RN1-Pad3)*%
X98544000Y-84963000D03*
%TO.P,RN1,4*%
%TO.N,Net-(RN1-Pad4)*%
X98544000Y-83693000D03*
%TO.P,RN1,5*%
%TO.N,Net-(RN1-Pad5)*%
X98544000Y-82423000D03*
%TO.P,RN1,6*%
%TO.N,Net-(RN1-Pad6)*%
X98544000Y-81153000D03*
%TO.P,RN1,7*%
%TO.N,Net-(RN1-Pad7)*%
X98544000Y-79883000D03*
%TO.P,RN1,8*%
%TO.N,Net-(RN1-Pad8)*%
X98544000Y-78613000D03*
%TO.P,RN1,9*%
%TO.N,Net-(DS1_LSB1-Pad7)*%
X91448000Y-78613000D03*
%TO.P,RN1,10*%
%TO.N,Net-(DS1_LSB1-Pad6)*%
X91448000Y-79883000D03*
%TO.P,RN1,11*%
%TO.N,Net-(DS1_LSB1-Pad4)*%
X91448000Y-81153000D03*
%TO.P,RN1,12*%
%TO.N,Net-(DS1_LSB1-Pad2)*%
X91448000Y-82423000D03*
%TO.P,RN1,13*%
%TO.N,Net-(DS1_LSB1-Pad1)*%
X91448000Y-83693000D03*
%TO.P,RN1,14*%
%TO.N,Net-(DS1_LSB1-Pad9)*%
X91448000Y-84963000D03*
%TO.P,RN1,15*%
%TO.N,Net-(DS1_LSB1-Pad10)*%
X91448000Y-86233000D03*
%TO.P,RN1,16*%
%TO.N,Net-(DS1_LSB1-Pad5)*%
X91448000Y-87503000D03*
%TD*%
%TO.P,RN2,16*%
%TO.N,Net-(DS2_MSB1-Pad5)*%
X108196000Y-78613000D03*
%TO.P,RN2,15*%
%TO.N,Net-(DS2_MSB1-Pad10)*%
X108196000Y-79883000D03*
%TO.P,RN2,14*%
%TO.N,Net-(DS2_MSB1-Pad9)*%
X108196000Y-81153000D03*
%TO.P,RN2,13*%
%TO.N,Net-(DS2_MSB1-Pad1)*%
X108196000Y-82423000D03*
%TO.P,RN2,12*%
%TO.N,Net-(DS2_MSB1-Pad2)*%
X108196000Y-83693000D03*
%TO.P,RN2,11*%
%TO.N,Net-(DS2_MSB1-Pad4)*%
X108196000Y-84963000D03*
%TO.P,RN2,10*%
%TO.N,Net-(DS2_MSB1-Pad6)*%
X108196000Y-86233000D03*
%TO.P,RN2,9*%
%TO.N,Net-(DS2_MSB1-Pad7)*%
X108196000Y-87503000D03*
%TO.P,RN2,8*%
%TO.N,Net-(RN2-Pad8)*%
X101100000Y-87503000D03*
%TO.P,RN2,7*%
%TO.N,Net-(RN2-Pad7)*%
X101100000Y-86233000D03*
%TO.P,RN2,6*%
%TO.N,Net-(RN2-Pad6)*%
X101100000Y-84963000D03*
%TO.P,RN2,5*%
%TO.N,Net-(RN2-Pad5)*%
X101100000Y-83693000D03*
%TO.P,RN2,4*%
%TO.N,Net-(RN2-Pad4)*%
X101100000Y-82423000D03*
%TO.P,RN2,3*%
%TO.N,Net-(RN2-Pad3)*%
X101100000Y-81153000D03*
%TO.P,RN2,2*%
%TO.N,Net-(RN2-Pad2)*%
X101100000Y-79883000D03*
%TO.P,RN2,1*%
%TO.N,Net-(RN2-Pad1)*%
X101100000Y-78613000D03*
%TD*%
D14*
%TO.P,U1,1*%
%TO.N,Net-(U1-Pad1)*%
X96012000Y-101600000D03*
D15*
%TO.P,U1,5*%
%TO.N,Net-(J2-Pad2)*%
X103632000Y-93980000D03*
%TO.P,U1,2*%
%TO.N,Net-(U1-Pad2)*%
X98552000Y-101600000D03*
%TO.P,U1,6*%
%TO.N,Net-(C3-Pad2)*%
X101092000Y-93980000D03*
%TO.P,U1,3*%
%TO.N,Net-(U1-Pad3)*%
X101092000Y-101600000D03*
%TO.P,U1,7*%
%TO.N,Net-(R2-Pad2)*%
X98552000Y-93980000D03*
%TO.P,U1,4*%
%TO.N,GND*%
X103632000Y-101600000D03*
%TO.P,U1,8*%
%TO.N,+5V*%
X96012000Y-93980000D03*
%TD*%
D16*
%TO.P,U2,1*%
%TO.N,Net-(RN1-Pad2)*%
X88818000Y-87503000D03*
%TO.P,U2,2*%
%TO.N,Net-(RN1-Pad3)*%
X88818000Y-86233000D03*
%TO.P,U2,3*%
%TO.N,Net-(RN1-Pad4)*%
X88818000Y-84963000D03*
%TO.P,U2,4*%
%TO.N,Net-(RN1-Pad5)*%
X88818000Y-83693000D03*
%TO.P,U2,5*%
%TO.N,Net-(RN1-Pad6)*%
X88818000Y-82423000D03*
%TO.P,U2,6*%
%TO.N,Net-(RN1-Pad7)*%
X88818000Y-81153000D03*
%TO.P,U2,7*%
%TO.N,Net-(RN1-Pad8)*%
X88818000Y-79883000D03*
%TO.P,U2,8*%
%TO.N,GND*%
X88818000Y-78613000D03*
%TO.P,U2,9*%
%TO.N,Net-(U2-Pad9)*%
X83394000Y-78613000D03*
%TO.P,U2,10*%
%TO.N,+5V*%
X83394000Y-79883000D03*
%TO.P,U2,11*%
%TO.N,Net-(U1-Pad3)*%
X83394000Y-81153000D03*
%TO.P,U2,12*%
%TO.N,Net-(C3-Pad2)*%
X83394000Y-82423000D03*
%TO.P,U2,13*%
%TO.N,GND*%
X83394000Y-83693000D03*
%TO.P,U2,14*%
%TO.N,Net-(U1-Pad2)*%
X83394000Y-84963000D03*
%TO.P,U2,15*%
%TO.N,Net-(RN1-Pad1)*%
X83394000Y-86233000D03*
%TO.P,U2,16*%
%TO.N,+5V*%
X83394000Y-87503000D03*
%TD*%
%TO.P,U3,16*%
%TO.N,+5V*%
X116250000Y-78613000D03*
%TO.P,U3,15*%
%TO.N,Net-(RN2-Pad1)*%
X116250000Y-79883000D03*
%TO.P,U3,14*%
%TO.N,Net-(U2-Pad9)*%
X116250000Y-81153000D03*
%TO.P,U3,13*%
%TO.N,GND*%
X116250000Y-82423000D03*
%TO.P,U3,12*%
%TO.N,Net-(C3-Pad2)*%
X116250000Y-83693000D03*
%TO.P,U3,11*%
%TO.N,Net-(U1-Pad3)*%
X116250000Y-84963000D03*
%TO.P,U3,10*%
%TO.N,+5V*%
X116250000Y-86233000D03*
%TO.P,U3,9*%
%TO.N,Net-(U3-Pad9)*%
X116250000Y-87503000D03*
%TO.P,U3,8*%
%TO.N,GND*%
X110826000Y-87503000D03*
%TO.P,U3,7*%
%TO.N,Net-(RN2-Pad8)*%
X110826000Y-86233000D03*
%TO.P,U3,6*%
%TO.N,Net-(RN2-Pad7)*%
X110826000Y-84963000D03*
%TO.P,U3,5*%
%TO.N,Net-(RN2-Pad6)*%
X110826000Y-83693000D03*
%TO.P,U3,4*%
%TO.N,Net-(RN2-Pad5)*%
X110826000Y-82423000D03*
%TO.P,U3,3*%
%TO.N,Net-(RN2-Pad4)*%
X110826000Y-81153000D03*
%TO.P,U3,2*%
%TO.N,Net-(RN2-Pad3)*%
X110826000Y-79883000D03*
%TO.P,U3,1*%
%TO.N,Net-(RN2-Pad2)*%
X110826000Y-78613000D03*
%TD*%
D17*
%TO.N,GND*%
X87433800Y-79214800D03*
X85473300Y-83666100D03*
%TO.N,Net-(C3-Pad2)*%
X86200500Y-86676000D03*
%TO.N,Net-(DS1_LSB1-Pad1)*%
X96183900Y-80936500D03*
%TO.N,Net-(DS1_LSB1-Pad2)*%
X92807800Y-82341600D03*
%TO.N,Net-(DS1_LSB1-Pad4)*%
X94101400Y-80695400D03*
%TO.N,Net-(DS1_LSB1-Pad5)*%
X95727700Y-86173900D03*
%TO.N,Net-(DS1_LSB1-Pad6)*%
X94715000Y-81496700D03*
%TO.N,Net-(DS1_LSB1-Pad7)*%
X94803000Y-82639400D03*
%TO.N,Net-(DS1_LSB1-Pad9)*%
X92804200Y-85339800D03*
%TO.N,Net-(DS1_LSB1-Pad10)*%
X92832500Y-86587400D03*
%TO.N,Net-(DS2_MSB1-Pad5)*%
X106830300Y-78907300D03*
%TO.N,Net-(DS2_MSB1-Pad4)*%
X106792600Y-83730400D03*
%TO.N,Net-(DS2_MSB1-Pad2)*%
X106822300Y-82730000D03*
%TO.N,Net-(DS2_MSB1-Pad1)*%
X105802600Y-83028200D03*
%TO.N,Net-(RN1-Pad4)*%
X93260800Y-83928100D03*
X87444000Y-84639000D03*
%TO.N,Net-(RN1-Pad5)*%
X97050200Y-82535500D03*
X87348900Y-83531000D03*
%TO.N,Net-(RN1-Pad6)*%
X93458400Y-78324000D03*
X87437300Y-82423000D03*
%TO.N,Net-(RN2-Pad7)*%
X103879900Y-86765200D03*
X112151100Y-85620900D03*
%TO.N,Net-(RN2-Pad6)*%
X103922700Y-85311800D03*
X112193100Y-83693000D03*
%TO.N,Net-(RN2-Pad5)*%
X103726400Y-83457200D03*
X112223200Y-82423000D03*
%TO.N,Net-(RN2-Pad4)*%
X102930700Y-82198200D03*
X112194600Y-81192000D03*
%TD*%
D18*
%TO.N,+5V*%
X109982000Y-99241000D02*
X107224500Y-99241000D01*
D19*
X107224500Y-99241000D02*
X107188000Y-99277500D01*
D18*
X113284000Y-99060000D02*
X110163000Y-99060000D01*
D19*
X110163000Y-99060000D02*
X109982000Y-99241000D01*
X106172000Y-75438000D02*
X107187900Y-76453900D01*
X107187900Y-76453900D02*
X113003100Y-76453900D01*
X113003100Y-76453900D02*
X115162200Y-78613000D01*
X116250000Y-78613000D02*
X115162200Y-78613000D01*
X93472000Y-75438000D02*
X94487900Y-76453900D01*
X94487900Y-76453900D02*
X105156100Y-76453900D01*
X105156100Y-76453900D02*
X106172000Y-75438000D01*
X83394000Y-79883000D02*
X84781700Y-79883000D01*
X84781700Y-79883000D02*
X87760500Y-76904200D01*
X87760500Y-76904200D02*
X92005800Y-76904200D01*
X92005800Y-76904200D02*
X93472000Y-75438000D01*
X84481800Y-87503000D02*
X86598400Y-89619600D01*
X86598400Y-89619600D02*
X92413600Y-89619600D01*
X92413600Y-89619600D02*
X93472000Y-90678000D01*
X116250000Y-86233000D02*
X115162200Y-86233000D01*
X113284000Y-99060000D02*
X113284000Y-97884700D01*
X115162200Y-86233000D02*
X115162200Y-96814500D01*
X115162200Y-96814500D02*
X114092000Y-97884700D01*
X114092000Y-97884700D02*
X113284000Y-97884700D01*
X83394000Y-87503000D02*
X84481800Y-87503000D01*
D18*
%TO.N,GND*%
X91694000Y-96520000D02*
X87884000Y-96520000D01*
X99677300Y-96520000D02*
X91694000Y-96520000D01*
D19*
X83394000Y-83693000D02*
X84481800Y-83693000D01*
X85473300Y-83666100D02*
X84508700Y-83666100D01*
X84508700Y-83666100D02*
X84481800Y-83693000D01*
D18*
X107188000Y-96302500D02*
X109945500Y-96302500D01*
D19*
X109945500Y-96302500D02*
X109982000Y-96266000D01*
X107188000Y-96302500D02*
X107188000Y-96918700D01*
D18*
X107188000Y-96918700D02*
X103632000Y-100474700D01*
D19*
X112737400Y-87503000D02*
X111913800Y-87503000D01*
X115162200Y-82423000D02*
X113085200Y-84500000D01*
X113085200Y-84500000D02*
X113085200Y-87155200D01*
X113085200Y-87155200D02*
X112737400Y-87503000D01*
D18*
X103632000Y-100474700D02*
X99677300Y-96520000D01*
D19*
X116250000Y-82423000D02*
X115162200Y-82423000D01*
X110826000Y-87503000D02*
X111913800Y-87503000D01*
D18*
X103632000Y-101600000D02*
X103632000Y-100474700D01*
X110236000Y-96520000D02*
X109982000Y-96266000D01*
X113284000Y-96520000D02*
X110236000Y-96520000D01*
D19*
X87433800Y-79214800D02*
X87884000Y-78764600D01*
X88666400Y-78764600D02*
X88818000Y-78613000D01*
X87884000Y-78764600D02*
X88666400Y-78764600D01*
X99822000Y-96375300D02*
X99677300Y-96520000D01*
X112737400Y-91313800D02*
X111892600Y-92158600D01*
X112737400Y-87503000D02*
X112737400Y-91313800D01*
X111892600Y-92158600D02*
X100881400Y-92158600D01*
X99822000Y-93218000D02*
X99822000Y-96375300D01*
X100881400Y-92158600D02*
X99822000Y-93218000D01*
%TO.N,Net-(C3-Pad2)*%
X83394000Y-82423000D02*
X85256000Y-82423000D01*
X85256000Y-82423000D02*
X86200500Y-83367500D01*
X86200500Y-83367500D02*
X86200500Y-86676000D01*
X102456000Y-92616000D02*
X101092000Y-93980000D01*
X115162200Y-83693000D02*
X114711800Y-84143400D01*
X116250000Y-83693000D02*
X115162200Y-83693000D01*
X112072100Y-92616000D02*
X102456000Y-92616000D01*
X114711800Y-84143400D02*
X114711800Y-89976300D01*
X114711800Y-89976300D02*
X112072100Y-92616000D01*
%TO.N,Net-(DS1_LSB1-Pad1)*%
X91448000Y-83693000D02*
X92525800Y-83693000D01*
X96183900Y-80936500D02*
X96183900Y-82284300D01*
X96183900Y-82284300D02*
X95103500Y-83364700D01*
X95103500Y-83364700D02*
X93723200Y-83364700D01*
X93723200Y-83364700D02*
X93561300Y-83202800D01*
X93561300Y-83202800D02*
X92893300Y-83202800D01*
X92893300Y-83202800D02*
X92525800Y-83570300D01*
X92525800Y-83570300D02*
X92525800Y-83693000D01*
%TO.N,Net-(DS1_LSB1-Pad2)*%
X92525800Y-82423000D02*
X92726400Y-82423000D01*
X92726400Y-82423000D02*
X92807800Y-82341600D01*
X91448000Y-82423000D02*
X92525800Y-82423000D01*
%TO.N,Net-(DS1_LSB1-Pad4)*%
X92525800Y-81153000D02*
X92983400Y-80695400D01*
X92983400Y-80695400D02*
X94101400Y-80695400D01*
X91448000Y-81153000D02*
X92525800Y-81153000D01*
%TO.N,Net-(DS1_LSB1-Pad5)*%
X91448000Y-87503000D02*
X94398600Y-87503000D01*
X94398600Y-87503000D02*
X95727700Y-86173900D01*
%TO.N,Net-(DS1_LSB1-Pad6)*%
X94715000Y-81496700D02*
X94826700Y-81385000D01*
X94826700Y-81385000D02*
X94826700Y-80394900D01*
X94826700Y-80394900D02*
X94314800Y-79883000D01*
X94314800Y-79883000D02*
X92525800Y-79883000D01*
X91448000Y-79883000D02*
X92525800Y-79883000D01*
%TO.N,Net-(DS1_LSB1-Pad7)*%
X94803000Y-82639400D02*
X95440300Y-82002100D01*
X95440300Y-82002100D02*
X95440300Y-80371600D01*
X95440300Y-80371600D02*
X94166800Y-79098100D01*
X94166800Y-79098100D02*
X93010900Y-79098100D01*
X93010900Y-79098100D02*
X92525800Y-78613000D01*
X91448000Y-78613000D02*
X92525800Y-78613000D01*
%TO.N,Net-(DS1_LSB1-Pad9)*%
X91448000Y-84963000D02*
X92525800Y-84963000D01*
X92525800Y-84963000D02*
X92525800Y-85061400D01*
X92525800Y-85061400D02*
X92804200Y-85339800D01*
%TO.N,Net-(DS1_LSB1-Pad10)*%
X91448000Y-86233000D02*
X92525800Y-86233000D01*
X92525800Y-86233000D02*
X92525800Y-86280700D01*
X92525800Y-86280700D02*
X92832500Y-86587400D01*
%TO.N,Net-(DS2_MSB1-Pad10)*%
X101092000Y-90678000D02*
X104648000Y-87122000D01*
X104648000Y-87122000D02*
X104648000Y-85011300D01*
X104648000Y-85011300D02*
X104559400Y-84922700D01*
X104559400Y-84922700D02*
X104559400Y-82441800D01*
X104559400Y-82441800D02*
X107118200Y-79883000D01*
X108196000Y-79883000D02*
X107118200Y-79883000D01*
%TO.N,Net-(DS2_MSB1-Pad9)*%
X103632000Y-90678000D02*
X105098300Y-89211700D01*
X105098300Y-89211700D02*
X105098300Y-84824700D01*
X105098300Y-84824700D02*
X105009700Y-84736100D01*
X105009700Y-84736100D02*
X105009700Y-82766400D01*
X105009700Y-82766400D02*
X106623000Y-81153100D01*
X106623000Y-81153100D02*
X107118200Y-81153100D01*
X107118200Y-81153100D02*
X107118200Y-81153000D01*
X108196000Y-81153000D02*
X107118200Y-81153000D01*
%TO.N,Net-(DS2_MSB1-Pad7)*%
X108196000Y-87503000D02*
X108196000Y-90162000D01*
X108196000Y-90162000D02*
X108712000Y-90678000D01*
%TO.N,Net-(DS2_MSB1-Pad6)*%
X108196000Y-86233000D02*
X109273800Y-86233000D01*
X109273800Y-86233000D02*
X109273800Y-88699800D01*
X109273800Y-88699800D02*
X111252000Y-90678000D01*
%TO.N,Net-(DS2_MSB1-Pad5)*%
X108196000Y-78613000D02*
X107118200Y-78613000D01*
X107118200Y-78613000D02*
X107118200Y-78619400D01*
X107118200Y-78619400D02*
X106830300Y-78907300D01*
%TO.N,Net-(DS2_MSB1-Pad4)*%
X107118200Y-84963000D02*
X107118200Y-84056000D01*
X107118200Y-84056000D02*
X106792600Y-83730400D01*
X108196000Y-84963000D02*
X107118200Y-84963000D01*
%TO.N,Net-(DS2_MSB1-Pad2)*%
X108196000Y-83693000D02*
X107781000Y-83693000D01*
X107781000Y-83693000D02*
X106822400Y-82734400D01*
X106822400Y-82734400D02*
X106822300Y-82734400D01*
X106822300Y-82734400D02*
X106822300Y-82730000D01*
%TO.N,Net-(DS2_MSB1-Pad1)*%
X108196000Y-82423000D02*
X107777700Y-82004700D01*
X107777700Y-82004700D02*
X106521900Y-82004700D01*
X106521900Y-82004700D02*
X105802600Y-82724000D01*
X105802600Y-82724000D02*
X105802600Y-83028200D01*
%TO.N,Net-(RN1-Pad1)*%
X98544000Y-87503000D02*
X97466200Y-87503000D01*
X83394000Y-86233000D02*
X84481800Y-86233000D01*
X84481800Y-86233000D02*
X87327900Y-89079100D01*
X87327900Y-89079100D02*
X95890100Y-89079100D01*
X95890100Y-89079100D02*
X97466200Y-87503000D01*
%TO.N,Net-(RN1-Pad2)*%
X98544000Y-86233000D02*
X97466200Y-86233000D01*
X88818000Y-87503000D02*
X89905800Y-87503000D01*
X89905800Y-87503000D02*
X89905800Y-88216900D01*
X89905800Y-88216900D02*
X90317600Y-88628700D01*
X90317600Y-88628700D02*
X95070500Y-88628700D01*
X95070500Y-88628700D02*
X97466200Y-86233000D01*
%TO.N,Net-(RN1-Pad3)*%
X89905800Y-86233000D02*
X90356200Y-86683400D01*
X90356200Y-86683400D02*
X90356200Y-88000900D01*
X90356200Y-88000900D02*
X90533600Y-88178300D01*
X90533600Y-88178300D02*
X94749100Y-88178300D01*
X94749100Y-88178300D02*
X97466200Y-85461200D01*
X97466200Y-85461200D02*
X97466200Y-84963000D01*
X98544000Y-84963000D02*
X97466200Y-84963000D01*
X88818000Y-86233000D02*
X89905800Y-86233000D01*
%TO.N,Net-(RN1-Pad4)*%
X88818000Y-84963000D02*
X87730200Y-84963000D01*
X87730200Y-84963000D02*
X87730200Y-84925200D01*
X87730200Y-84925200D02*
X87444000Y-84639000D01*
X98544000Y-83693000D02*
X97466200Y-83693000D01*
X93260800Y-83928100D02*
X97231100Y-83928100D01*
X97231100Y-83928100D02*
X97466200Y-83693000D01*
%TO.N,Net-(RN1-Pad5)*%
X88818000Y-83693000D02*
X87730200Y-83693000D01*
X98544000Y-82423000D02*
X97466200Y-82423000D01*
X97050200Y-82535500D02*
X97353700Y-82535500D01*
X97353700Y-82535500D02*
X97466200Y-82423000D01*
X87730200Y-83693000D02*
X87568200Y-83531000D01*
X87568200Y-83531000D02*
X87348900Y-83531000D01*
%TO.N,Net-(RN1-Pad6)*%
X87730200Y-82423000D02*
X87437300Y-82423000D01*
X88818000Y-82423000D02*
X87730200Y-82423000D01*
X98544000Y-81153000D02*
X97466200Y-81153000D01*
X97466200Y-81153000D02*
X94637200Y-78324000D01*
X94637200Y-78324000D02*
X93458400Y-78324000D01*
%TO.N,Net-(RN1-Pad7)*%
X98544000Y-79883000D02*
X97212400Y-79883000D01*
X97212400Y-79883000D02*
X94879400Y-77550000D01*
X94879400Y-77550000D02*
X92924100Y-77550000D01*
X92924100Y-77550000D02*
X92536400Y-77937700D01*
X92536400Y-77937700D02*
X90559900Y-77937700D01*
X90559900Y-77937700D02*
X89905800Y-78591800D01*
X89905800Y-78591800D02*
X89905800Y-81153000D01*
X88818000Y-81153000D02*
X89905800Y-81153000D01*
%TO.N,Net-(RN1-Pad8)*%
X97466200Y-78613000D02*
X95952900Y-77099700D01*
X95952900Y-77099700D02*
X92737500Y-77099700D01*
X92737500Y-77099700D02*
X92349900Y-77487300D01*
X92349900Y-77487300D02*
X88135600Y-77487300D01*
X88135600Y-77487300D02*
X86662800Y-78960100D01*
X86662800Y-78960100D02*
X86662800Y-79490300D01*
X86662800Y-79490300D02*
X87133400Y-79960900D01*
X87133400Y-79960900D02*
X88740100Y-79960900D01*
X88740100Y-79960900D02*
X88818000Y-79883000D01*
X98544000Y-78613000D02*
X97466200Y-78613000D01*
%TO.N,Net-(RN2-Pad8)*%
X110826000Y-86233000D02*
X109738200Y-86233000D01*
X109738200Y-86233000D02*
X109738200Y-87967000D01*
X109738200Y-87967000D02*
X109924600Y-88153400D01*
X109924600Y-88153400D02*
X110212600Y-88153400D01*
X110212600Y-88153400D02*
X112287000Y-90227800D01*
X112287000Y-90227800D02*
X112287000Y-91127300D01*
X112287000Y-91127300D02*
X111713300Y-91701000D01*
X111713300Y-91701000D02*
X100597300Y-91701000D01*
X100597300Y-91701000D02*
X100072200Y-91175900D01*
X100072200Y-91175900D02*
X100072200Y-88530800D01*
X100072200Y-88530800D02*
X101100000Y-87503000D01*
%TO.N,Net-(RN2-Pad7)*%
X110826000Y-84963000D02*
X111913800Y-84963000D01*
X111913800Y-84963000D02*
X111913800Y-85383600D01*
X111913800Y-85383600D02*
X112151100Y-85620900D01*
X102177800Y-86233000D02*
X102710000Y-86765200D01*
X102710000Y-86765200D02*
X103879900Y-86765200D01*
X101100000Y-86233000D02*
X102177800Y-86233000D01*
%TO.N,Net-(RN2-Pad6)*%
X111913800Y-83693000D02*
X112193100Y-83693000D01*
X110826000Y-83693000D02*
X111913800Y-83693000D01*
X101100000Y-84963000D02*
X102177800Y-84963000D01*
X103922700Y-85311800D02*
X102526600Y-85311800D01*
X102526600Y-85311800D02*
X102177800Y-84963000D01*
%TO.N,Net-(RN2-Pad5)*%
X110826000Y-82423000D02*
X112223200Y-82423000D01*
X102177800Y-83693000D02*
X102413600Y-83457200D01*
X102413600Y-83457200D02*
X103726400Y-83457200D01*
X101100000Y-83693000D02*
X102177800Y-83693000D01*
%TO.N,Net-(RN2-Pad4)*%
X110826000Y-81153000D02*
X112155600Y-81153000D01*
X112155600Y-81153000D02*
X112194600Y-81192000D01*
X101100000Y-82423000D02*
X102177800Y-82423000D01*
X102930700Y-82198200D02*
X102402600Y-82198200D01*
X102402600Y-82198200D02*
X102177800Y-82423000D01*
%TO.N,Net-(RN2-Pad3)*%
X110826000Y-79883000D02*
X109738200Y-79883000D01*
X109738200Y-79883000D02*
X109287800Y-79432600D01*
X109287800Y-79432600D02*
X109287800Y-78085700D01*
X109287800Y-78085700D02*
X109133700Y-77931600D01*
X109133700Y-77931600D02*
X106049500Y-77931600D01*
X106049500Y-77931600D02*
X102828100Y-81153000D01*
X102828100Y-81153000D02*
X101100000Y-81153000D01*
%TO.N,Net-(RN2-Pad2)*%
X110826000Y-78613000D02*
X109738200Y-78613000D01*
X101100000Y-79883000D02*
X102177800Y-79883000D01*
X109738200Y-78613000D02*
X109738200Y-77899200D01*
X109738200Y-77899200D02*
X109268900Y-77429900D01*
X109268900Y-77429900D02*
X104630900Y-77429900D01*
X104630900Y-77429900D02*
X102177800Y-79883000D01*
%TO.N,Net-(RN2-Pad1)*%
X102177800Y-78613000D02*
X103811200Y-76979600D01*
X103811200Y-76979600D02*
X111321700Y-76979600D01*
X111321700Y-76979600D02*
X114225100Y-79883000D01*
X114225100Y-79883000D02*
X116250000Y-79883000D01*
X101100000Y-78613000D02*
X102177800Y-78613000D01*
%TO.N,Net-(U1-Pad2)*%
X82306200Y-84963000D02*
X83394000Y-84963000D01*
X82306200Y-93107300D02*
X82306200Y-84963000D01*
X86894300Y-97695400D02*
X82306200Y-93107300D01*
X98552000Y-101600000D02*
X94647400Y-97695400D01*
X94647400Y-97695400D02*
X86894300Y-97695400D01*
%TO.N,Net-(U2-Pad9)*%
X84481800Y-78613000D02*
X83394000Y-78613000D01*
X115388700Y-77796700D02*
X111760000Y-74168000D01*
X116981300Y-77796700D02*
X115388700Y-77796700D01*
X111760000Y-74168000D02*
X93218000Y-74168000D01*
X117337800Y-78153200D02*
X116981300Y-77796700D01*
X117337800Y-81153000D02*
X117337800Y-78153200D01*
X93218000Y-74169700D02*
X92042900Y-75344800D01*
X86640900Y-76453900D02*
X84481800Y-78613000D01*
X116250000Y-81153000D02*
X117337800Y-81153000D01*
X93218000Y-74168000D02*
X93218000Y-74169700D01*
X92042900Y-75344800D02*
X92042900Y-75899400D01*
X92042900Y-75899400D02*
X91488400Y-76453900D01*
X91488400Y-76453900D02*
X86640900Y-76453900D01*
%TO.N,Net-(U1-Pad3)*%
X102217300Y-102725300D02*
X101092000Y-101600000D01*
X117337800Y-96701800D02*
X111314300Y-102725300D01*
X111314300Y-102725300D02*
X102217300Y-102725300D01*
X116250000Y-84963000D02*
X117337800Y-84963000D01*
X117337800Y-84963000D02*
X117337800Y-96701800D01*
X99966700Y-102725300D02*
X101092000Y-101600000D01*
X81855800Y-81603400D02*
X81855800Y-94739300D01*
X82306200Y-81153000D02*
X81855800Y-81603400D01*
X83394000Y-81153000D02*
X82306200Y-81153000D01*
X81855800Y-94739300D02*
X89841800Y-102725300D01*
X89841800Y-102725300D02*
X99966700Y-102725300D01*
%TD*%
D20*
%TO.N,GND*%
G36*
X86034605Y-90130608D02*
G01*
X86058399Y-90159601D01*
X86087392Y-90183395D01*
X86087396Y-90183399D01*
X86141500Y-90227800D01*
X86174124Y-90254574D01*
X86306153Y-90325146D01*
X86449414Y-90368603D01*
X86561067Y-90379600D01*
X86561076Y-90379600D01*
X86598399Y-90383276D01*
X86635722Y-90379600D01*
X87099887Y-90379600D01*
X87066500Y-90547450D01*
X87066500Y-90808550D01*
X87117438Y-91064634D01*
X87217357Y-91305860D01*
X87362417Y-91522957D01*
X87547043Y-91707583D01*
X87764140Y-91852643D01*
X88005366Y-91952562D01*
X88261450Y-92003500D01*
X88522550Y-92003500D01*
X88778634Y-91952562D01*
X89019860Y-91852643D01*
X89236957Y-91707583D01*
X89421583Y-91522957D01*
X89566643Y-91305860D01*
X89662000Y-91075648D01*
X89757357Y-91305860D01*
X89902417Y-91522957D01*
X90087043Y-91707583D01*
X90304140Y-91852643D01*
X90545366Y-91952562D01*
X90801450Y-92003500D01*
X91062550Y-92003500D01*
X91318634Y-91952562D01*
X91559860Y-91852643D01*
X91776957Y-91707583D01*
X91961583Y-91522957D01*
X92106643Y-91305860D01*
X92202000Y-91075648D01*
X92297357Y-91305860D01*
X92442417Y-91522957D01*
X92627043Y-91707583D01*
X92844140Y-91852643D01*
X93085366Y-91952562D01*
X93341450Y-92003500D01*
X93602550Y-92003500D01*
X93858634Y-91952562D01*
X94099860Y-91852643D01*
X94316957Y-91707583D01*
X94501583Y-91522957D01*
X94646643Y-91305860D01*
X94742000Y-91075648D01*
X94837357Y-91305860D01*
X94982417Y-91522957D01*
X95167043Y-91707583D01*
X95384140Y-91852643D01*
X95625366Y-91952562D01*
X95881450Y-92003500D01*
X96142550Y-92003500D01*
X96398634Y-91952562D01*
X96639860Y-91852643D01*
X96856957Y-91707583D01*
X97041583Y-91522957D01*
X97186643Y-91305860D01*
X97282000Y-91075648D01*
X97377357Y-91305860D01*
X97522417Y-91522957D01*
X97707043Y-91707583D01*
X97924140Y-91852643D01*
X98165366Y-91952562D01*
X98421450Y-92003500D01*
X98682550Y-92003500D01*
X98938634Y-91952562D01*
X99179860Y-91852643D01*
X99396957Y-91707583D01*
X99467489Y-91637051D01*
X99477071Y-91648726D01*
X99532199Y-91715901D01*
X99561202Y-91739703D01*
X100033500Y-92212002D01*
X100057299Y-92241001D01*
X100086297Y-92264799D01*
X100173024Y-92335974D01*
X100305053Y-92406546D01*
X100448314Y-92450003D01*
X100597300Y-92464677D01*
X100634633Y-92461000D01*
X101536198Y-92461000D01*
X101415886Y-92581312D01*
X101233335Y-92545000D01*
X100950665Y-92545000D01*
X100673426Y-92600147D01*
X100412273Y-92708320D01*
X100177241Y-92865363D01*
X99977363Y-93065241D01*
X99822000Y-93297759D01*
X99666637Y-93065241D01*
X99466759Y-92865363D01*
X99231727Y-92708320D01*
X98970574Y-92600147D01*
X98693335Y-92545000D01*
X98410665Y-92545000D01*
X98133426Y-92600147D01*
X97872273Y-92708320D01*
X97637241Y-92865363D01*
X97437363Y-93065241D01*
X97282000Y-93297759D01*
X97126637Y-93065241D01*
X96926759Y-92865363D01*
X96691727Y-92708320D01*
X96430574Y-92600147D01*
X96153335Y-92545000D01*
X95870665Y-92545000D01*
X95593426Y-92600147D01*
X95332273Y-92708320D01*
X95097241Y-92865363D01*
X94897363Y-93065241D01*
X94740320Y-93300273D01*
X94632147Y-93561426D01*
X94577000Y-93838665D01*
X94577000Y-94121335D01*
X94632147Y-94398574D01*
X94740320Y-94659727D01*
X94897363Y-94894759D01*
X95097241Y-95094637D01*
X95332273Y-95251680D01*
X95593426Y-95359853D01*
X95870665Y-95415000D01*
X96153335Y-95415000D01*
X96430574Y-95359853D01*
X96691727Y-95251680D01*
X96926759Y-95094637D01*
X97126637Y-94894759D01*
X97282000Y-94662241D01*
X97437363Y-94894759D01*
X97637241Y-95094637D01*
X97872273Y-95251680D01*
X98133426Y-95359853D01*
X98410665Y-95415000D01*
X98693335Y-95415000D01*
X98970574Y-95359853D01*
X99231727Y-95251680D01*
X99466759Y-95094637D01*
X99666637Y-94894759D01*
X99822000Y-94662241D01*
X99977363Y-94894759D01*
X100177241Y-95094637D01*
X100412273Y-95251680D01*
X100673426Y-95359853D01*
X100950665Y-95415000D01*
X101233335Y-95415000D01*
X101510574Y-95359853D01*
X101771727Y-95251680D01*
X102006759Y-95094637D01*
X102206637Y-94894759D01*
X102362000Y-94662241D01*
X102517363Y-94894759D01*
X102717241Y-95094637D01*
X102952273Y-95251680D01*
X103213426Y-95359853D01*
X103490665Y-95415000D01*
X103773335Y-95415000D01*
X104050574Y-95359853D01*
X104311727Y-95251680D01*
X104546759Y-95094637D01*
X104746637Y-94894759D01*
X104903680Y-94659727D01*
X105011853Y-94398574D01*
X105067000Y-94121335D01*
X105067000Y-93838665D01*
X105011853Y-93561426D01*
X104935047Y-93376000D01*
X112034778Y-93376000D01*
X112072100Y-93379676D01*
X112109422Y-93376000D01*
X112109433Y-93376000D01*
X112221086Y-93365003D01*
X112364347Y-93321546D01*
X112496376Y-93250974D01*
X112612101Y-93156001D01*
X112635904Y-93126997D01*
X114402200Y-91360701D01*
X114402201Y-95093338D01*
X114378180Y-95080498D01*
X114258482Y-95044188D01*
X114134000Y-95031928D01*
X113569750Y-95035000D01*
X113411000Y-95193750D01*
X113411000Y-96393000D01*
X113431000Y-96393000D01*
X113431000Y-96647000D01*
X113411000Y-96647000D01*
X113411000Y-96667000D01*
X113157000Y-96667000D01*
X113157000Y-96647000D01*
X111957750Y-96647000D01*
X111799000Y-96805750D01*
X111795928Y-97370000D01*
X111808188Y-97494482D01*
X111844498Y-97614180D01*
X111903463Y-97724494D01*
X111982815Y-97821185D01*
X112079506Y-97900537D01*
X112189820Y-97959502D01*
X112262380Y-97981513D01*
X112130525Y-98113368D01*
X112055935Y-98225000D01*
X111296071Y-98225000D01*
X111234962Y-98150538D01*
X111100386Y-98040095D01*
X110946850Y-97958028D01*
X110780254Y-97907492D01*
X110607000Y-97890428D01*
X109357000Y-97890428D01*
X109183746Y-97907492D01*
X109017150Y-97958028D01*
X108863614Y-98040095D01*
X108729038Y-98150538D01*
X108618595Y-98285114D01*
X108575245Y-98366216D01*
X108551405Y-98321614D01*
X108440962Y-98187038D01*
X108306386Y-98076595D01*
X108152850Y-97994528D01*
X107986254Y-97943992D01*
X107813000Y-97926928D01*
X106563000Y-97926928D01*
X106389746Y-97943992D01*
X106223150Y-97994528D01*
X106069614Y-98076595D01*
X105935038Y-98187038D01*
X105824595Y-98321614D01*
X105742528Y-98475150D01*
X105691992Y-98641746D01*
X105674928Y-98815000D01*
X105674928Y-99740000D01*
X105691992Y-99913254D01*
X105742528Y-100079850D01*
X105824595Y-100233386D01*
X105935038Y-100367962D01*
X106069614Y-100478405D01*
X106223150Y-100560472D01*
X106389746Y-100611008D01*
X106563000Y-100628072D01*
X107813000Y-100628072D01*
X107986254Y-100611008D01*
X108152850Y-100560472D01*
X108306386Y-100478405D01*
X108440962Y-100367962D01*
X108551405Y-100233386D01*
X108594755Y-100152284D01*
X108618595Y-100196886D01*
X108729038Y-100331462D01*
X108863614Y-100441905D01*
X109017150Y-100523972D01*
X109183746Y-100574508D01*
X109357000Y-100591572D01*
X110607000Y-100591572D01*
X110780254Y-100574508D01*
X110946850Y-100523972D01*
X111100386Y-100441905D01*
X111234962Y-100331462D01*
X111345405Y-100196886D01*
X111427472Y-100043350D01*
X111472473Y-99895000D01*
X112055935Y-99895000D01*
X112130525Y-100006632D01*
X112337368Y-100213475D01*
X112580589Y-100375990D01*
X112586401Y-100378397D01*
X110999499Y-101965300D01*
X105018086Y-101965300D01*
X105023909Y-101949040D01*
X104902624Y-101727000D01*
X103759000Y-101727000D01*
X103759000Y-101747000D01*
X103505000Y-101747000D01*
X103505000Y-101727000D01*
X103485000Y-101727000D01*
X103485000Y-101473000D01*
X103505000Y-101473000D01*
X103505000Y-100330085D01*
X103759000Y-100330085D01*
X103759000Y-101473000D01*
X104902624Y-101473000D01*
X105023909Y-101250960D01*
X104929070Y-100986119D01*
X104784385Y-100744869D01*
X104595414Y-100536481D01*
X104369420Y-100368963D01*
X104115087Y-100248754D01*
X103981039Y-100208096D01*
X103759000Y-100330085D01*
X103505000Y-100330085D01*
X103282961Y-100208096D01*
X103148913Y-100248754D01*
X102894580Y-100368963D01*
X102668586Y-100536481D01*
X102479615Y-100744869D01*
X102368067Y-100930865D01*
X102363680Y-100920273D01*
X102206637Y-100685241D01*
X102006759Y-100485363D01*
X101771727Y-100328320D01*
X101510574Y-100220147D01*
X101233335Y-100165000D01*
X100950665Y-100165000D01*
X100673426Y-100220147D01*
X100412273Y-100328320D01*
X100177241Y-100485363D01*
X99977363Y-100685241D01*
X99822000Y-100917759D01*
X99666637Y-100685241D01*
X99466759Y-100485363D01*
X99231727Y-100328320D01*
X98970574Y-100220147D01*
X98693335Y-100165000D01*
X98410665Y-100165000D01*
X98228114Y-100201312D01*
X95211204Y-97184403D01*
X95187401Y-97155399D01*
X95071676Y-97060426D01*
X94986692Y-97015000D01*
X105674928Y-97015000D01*
X105687188Y-97139482D01*
X105723498Y-97259180D01*
X105782463Y-97369494D01*
X105861815Y-97466185D01*
X105958506Y-97545537D01*
X106068820Y-97604502D01*
X106188518Y-97640812D01*
X106313000Y-97653072D01*
X106902250Y-97650000D01*
X107061000Y-97491250D01*
X107061000Y-96429500D01*
X107315000Y-96429500D01*
X107315000Y-97491250D01*
X107473750Y-97650000D01*
X108063000Y-97653072D01*
X108187482Y-97640812D01*
X108307180Y-97604502D01*
X108417494Y-97545537D01*
X108514185Y-97466185D01*
X108593537Y-97369494D01*
X108598617Y-97359989D01*
X108655815Y-97429685D01*
X108752506Y-97509037D01*
X108862820Y-97568002D01*
X108982518Y-97604312D01*
X109107000Y-97616572D01*
X109696250Y-97613500D01*
X109855000Y-97454750D01*
X109855000Y-96393000D01*
X110109000Y-96393000D01*
X110109000Y-97454750D01*
X110267750Y-97613500D01*
X110857000Y-97616572D01*
X110981482Y-97604312D01*
X111101180Y-97568002D01*
X111211494Y-97509037D01*
X111308185Y-97429685D01*
X111387537Y-97332994D01*
X111446502Y-97222680D01*
X111482812Y-97102982D01*
X111495072Y-96978500D01*
X111492000Y-96551750D01*
X111333250Y-96393000D01*
X110109000Y-96393000D01*
X109855000Y-96393000D01*
X108630750Y-96393000D01*
X108566750Y-96457000D01*
X108539250Y-96429500D01*
X107315000Y-96429500D01*
X107061000Y-96429500D01*
X105836750Y-96429500D01*
X105678000Y-96588250D01*
X105674928Y-97015000D01*
X94986692Y-97015000D01*
X94939647Y-96989854D01*
X94796386Y-96946397D01*
X94684733Y-96935400D01*
X94684722Y-96935400D01*
X94647400Y-96931724D01*
X94610078Y-96935400D01*
X93179706Y-96935400D01*
X93179000Y-96805750D01*
X93020250Y-96647000D01*
X91821000Y-96647000D01*
X91821000Y-96667000D01*
X91567000Y-96667000D01*
X91567000Y-96647000D01*
X90367750Y-96647000D01*
X90209000Y-96805750D01*
X90208294Y-96935400D01*
X89369706Y-96935400D01*
X89369000Y-96805750D01*
X89210250Y-96647000D01*
X88011000Y-96647000D01*
X88011000Y-96667000D01*
X87757000Y-96667000D01*
X87757000Y-96647000D01*
X87737000Y-96647000D01*
X87737000Y-96393000D01*
X87757000Y-96393000D01*
X87757000Y-95193750D01*
X88011000Y-95193750D01*
X88011000Y-96393000D01*
X89210250Y-96393000D01*
X89369000Y-96234250D01*
X89372072Y-95670000D01*
X90205928Y-95670000D01*
X90209000Y-96234250D01*
X90367750Y-96393000D01*
X91567000Y-96393000D01*
X91567000Y-95193750D01*
X91821000Y-95193750D01*
X91821000Y-96393000D01*
X93020250Y-96393000D01*
X93179000Y-96234250D01*
X93182072Y-95670000D01*
X93174193Y-95590000D01*
X105674928Y-95590000D01*
X105678000Y-96016750D01*
X105836750Y-96175500D01*
X107061000Y-96175500D01*
X107061000Y-95113750D01*
X107315000Y-95113750D01*
X107315000Y-96175500D01*
X108539250Y-96175500D01*
X108603250Y-96111500D01*
X108630750Y-96139000D01*
X109855000Y-96139000D01*
X109855000Y-95077250D01*
X110109000Y-95077250D01*
X110109000Y-96139000D01*
X111333250Y-96139000D01*
X111492000Y-95980250D01*
X111494233Y-95670000D01*
X111795928Y-95670000D01*
X111799000Y-96234250D01*
X111957750Y-96393000D01*
X113157000Y-96393000D01*
X113157000Y-95193750D01*
X112998250Y-95035000D01*
X112434000Y-95031928D01*
X112309518Y-95044188D01*
X112189820Y-95080498D01*
X112079506Y-95139463D01*
X111982815Y-95218815D01*
X111903463Y-95315506D01*
X111844498Y-95425820D01*
X111808188Y-95545518D01*
X111795928Y-95670000D01*
X111494233Y-95670000D01*
X111495072Y-95553500D01*
X111482812Y-95429018D01*
X111446502Y-95309320D01*
X111387537Y-95199006D01*
X111308185Y-95102315D01*
X111211494Y-95022963D01*
X111101180Y-94963998D01*
X110981482Y-94927688D01*
X110857000Y-94915428D01*
X110267750Y-94918500D01*
X110109000Y-95077250D01*
X109855000Y-95077250D01*
X109696250Y-94918500D01*
X109107000Y-94915428D01*
X108982518Y-94927688D01*
X108862820Y-94963998D01*
X108752506Y-95022963D01*
X108655815Y-95102315D01*
X108576463Y-95199006D01*
X108571383Y-95208511D01*
X108514185Y-95138815D01*
X108417494Y-95059463D01*
X108307180Y-95000498D01*
X108187482Y-94964188D01*
X108063000Y-94951928D01*
X107473750Y-94955000D01*
X107315000Y-95113750D01*
X107061000Y-95113750D01*
X106902250Y-94955000D01*
X106313000Y-94951928D01*
X106188518Y-94964188D01*
X106068820Y-95000498D01*
X105958506Y-95059463D01*
X105861815Y-95138815D01*
X105782463Y-95235506D01*
X105723498Y-95345820D01*
X105687188Y-95465518D01*
X105674928Y-95590000D01*
X93174193Y-95590000D01*
X93169812Y-95545518D01*
X93133502Y-95425820D01*
X93074537Y-95315506D01*
X92995185Y-95218815D01*
X92898494Y-95139463D01*
X92788180Y-95080498D01*
X92668482Y-95044188D01*
X92544000Y-95031928D01*
X91979750Y-95035000D01*
X91821000Y-95193750D01*
X91567000Y-95193750D01*
X91408250Y-95035000D01*
X90844000Y-95031928D01*
X90719518Y-95044188D01*
X90599820Y-95080498D01*
X90489506Y-95139463D01*
X90392815Y-95218815D01*
X90313463Y-95315506D01*
X90254498Y-95425820D01*
X90218188Y-95545518D01*
X90205928Y-95670000D01*
X89372072Y-95670000D01*
X89359812Y-95545518D01*
X89323502Y-95425820D01*
X89264537Y-95315506D01*
X89185185Y-95218815D01*
X89088494Y-95139463D01*
X88978180Y-95080498D01*
X88858482Y-95044188D01*
X88734000Y-95031928D01*
X88169750Y-95035000D01*
X88011000Y-95193750D01*
X87757000Y-95193750D01*
X87598250Y-95035000D01*
X87034000Y-95031928D01*
X86909518Y-95044188D01*
X86789820Y-95080498D01*
X86679506Y-95139463D01*
X86582815Y-95218815D01*
X86503463Y-95315506D01*
X86444498Y-95425820D01*
X86408188Y-95545518D01*
X86395928Y-95670000D01*
X86398404Y-96124702D01*
X83066200Y-92792499D01*
X83066200Y-88466072D01*
X84156500Y-88466072D01*
X84280982Y-88453812D01*
X84339929Y-88435931D01*
X86034605Y-90130608D01*
G37*
X86034605Y-90130608D02*
X86058399Y-90159601D01*
X86087392Y-90183395D01*
X86087396Y-90183399D01*
X86141500Y-90227800D01*
X86174124Y-90254574D01*
X86306153Y-90325146D01*
X86449414Y-90368603D01*
X86561067Y-90379600D01*
X86561076Y-90379600D01*
X86598399Y-90383276D01*
X86635722Y-90379600D01*
X87099887Y-90379600D01*
X87066500Y-90547450D01*
X87066500Y-90808550D01*
X87117438Y-91064634D01*
X87217357Y-91305860D01*
X87362417Y-91522957D01*
X87547043Y-91707583D01*
X87764140Y-91852643D01*
X88005366Y-91952562D01*
X88261450Y-92003500D01*
X88522550Y-92003500D01*
X88778634Y-91952562D01*
X89019860Y-91852643D01*
X89236957Y-91707583D01*
X89421583Y-91522957D01*
X89566643Y-91305860D01*
X89662000Y-91075648D01*
X89757357Y-91305860D01*
X89902417Y-91522957D01*
X90087043Y-91707583D01*
X90304140Y-91852643D01*
X90545366Y-91952562D01*
X90801450Y-92003500D01*
X91062550Y-92003500D01*
X91318634Y-91952562D01*
X91559860Y-91852643D01*
X91776957Y-91707583D01*
X91961583Y-91522957D01*
X92106643Y-91305860D01*
X92202000Y-91075648D01*
X92297357Y-91305860D01*
X92442417Y-91522957D01*
X92627043Y-91707583D01*
X92844140Y-91852643D01*
X93085366Y-91952562D01*
X93341450Y-92003500D01*
X93602550Y-92003500D01*
X93858634Y-91952562D01*
X94099860Y-91852643D01*
X94316957Y-91707583D01*
X94501583Y-91522957D01*
X94646643Y-91305860D01*
X94742000Y-91075648D01*
X94837357Y-91305860D01*
X94982417Y-91522957D01*
X95167043Y-91707583D01*
X95384140Y-91852643D01*
X95625366Y-91952562D01*
X95881450Y-92003500D01*
X96142550Y-92003500D01*
X96398634Y-91952562D01*
X96639860Y-91852643D01*
X96856957Y-91707583D01*
X97041583Y-91522957D01*
X97186643Y-91305860D01*
X97282000Y-91075648D01*
X97377357Y-91305860D01*
X97522417Y-91522957D01*
X97707043Y-91707583D01*
X97924140Y-91852643D01*
X98165366Y-91952562D01*
X98421450Y-92003500D01*
X98682550Y-92003500D01*
X98938634Y-91952562D01*
X99179860Y-91852643D01*
X99396957Y-91707583D01*
X99467489Y-91637051D01*
X99477071Y-91648726D01*
X99532199Y-91715901D01*
X99561202Y-91739703D01*
X100033500Y-92212002D01*
X100057299Y-92241001D01*
X100086297Y-92264799D01*
X100173024Y-92335974D01*
X100305053Y-92406546D01*
X100448314Y-92450003D01*
X100597300Y-92464677D01*
X100634633Y-92461000D01*
X101536198Y-92461000D01*
X101415886Y-92581312D01*
X101233335Y-92545000D01*
X100950665Y-92545000D01*
X100673426Y-92600147D01*
X100412273Y-92708320D01*
X100177241Y-92865363D01*
X99977363Y-93065241D01*
X99822000Y-93297759D01*
X99666637Y-93065241D01*
X99466759Y-92865363D01*
X99231727Y-92708320D01*
X98970574Y-92600147D01*
X98693335Y-92545000D01*
X98410665Y-92545000D01*
X98133426Y-92600147D01*
X97872273Y-92708320D01*
X97637241Y-92865363D01*
X97437363Y-93065241D01*
X97282000Y-93297759D01*
X97126637Y-93065241D01*
X96926759Y-92865363D01*
X96691727Y-92708320D01*
X96430574Y-92600147D01*
X96153335Y-92545000D01*
X95870665Y-92545000D01*
X95593426Y-92600147D01*
X95332273Y-92708320D01*
X95097241Y-92865363D01*
X94897363Y-93065241D01*
X94740320Y-93300273D01*
X94632147Y-93561426D01*
X94577000Y-93838665D01*
X94577000Y-94121335D01*
X94632147Y-94398574D01*
X94740320Y-94659727D01*
X94897363Y-94894759D01*
X95097241Y-95094637D01*
X95332273Y-95251680D01*
X95593426Y-95359853D01*
X95870665Y-95415000D01*
X96153335Y-95415000D01*
X96430574Y-95359853D01*
X96691727Y-95251680D01*
X96926759Y-95094637D01*
X97126637Y-94894759D01*
X97282000Y-94662241D01*
X97437363Y-94894759D01*
X97637241Y-95094637D01*
X97872273Y-95251680D01*
X98133426Y-95359853D01*
X98410665Y-95415000D01*
X98693335Y-95415000D01*
X98970574Y-95359853D01*
X99231727Y-95251680D01*
X99466759Y-95094637D01*
X99666637Y-94894759D01*
X99822000Y-94662241D01*
X99977363Y-94894759D01*
X100177241Y-95094637D01*
X100412273Y-95251680D01*
X100673426Y-95359853D01*
X100950665Y-95415000D01*
X101233335Y-95415000D01*
X101510574Y-95359853D01*
X101771727Y-95251680D01*
X102006759Y-95094637D01*
X102206637Y-94894759D01*
X102362000Y-94662241D01*
X102517363Y-94894759D01*
X102717241Y-95094637D01*
X102952273Y-95251680D01*
X103213426Y-95359853D01*
X103490665Y-95415000D01*
X103773335Y-95415000D01*
X104050574Y-95359853D01*
X104311727Y-95251680D01*
X104546759Y-95094637D01*
X104746637Y-94894759D01*
X104903680Y-94659727D01*
X105011853Y-94398574D01*
X105067000Y-94121335D01*
X105067000Y-93838665D01*
X105011853Y-93561426D01*
X104935047Y-93376000D01*
X112034778Y-93376000D01*
X112072100Y-93379676D01*
X112109422Y-93376000D01*
X112109433Y-93376000D01*
X112221086Y-93365003D01*
X112364347Y-93321546D01*
X112496376Y-93250974D01*
X112612101Y-93156001D01*
X112635904Y-93126997D01*
X114402200Y-91360701D01*
X114402201Y-95093338D01*
X114378180Y-95080498D01*
X114258482Y-95044188D01*
X114134000Y-95031928D01*
X113569750Y-95035000D01*
X113411000Y-95193750D01*
X113411000Y-96393000D01*
X113431000Y-96393000D01*
X113431000Y-96647000D01*
X113411000Y-96647000D01*
X113411000Y-96667000D01*
X113157000Y-96667000D01*
X113157000Y-96647000D01*
X111957750Y-96647000D01*
X111799000Y-96805750D01*
X111795928Y-97370000D01*
X111808188Y-97494482D01*
X111844498Y-97614180D01*
X111903463Y-97724494D01*
X111982815Y-97821185D01*
X112079506Y-97900537D01*
X112189820Y-97959502D01*
X112262380Y-97981513D01*
X112130525Y-98113368D01*
X112055935Y-98225000D01*
X111296071Y-98225000D01*
X111234962Y-98150538D01*
X111100386Y-98040095D01*
X110946850Y-97958028D01*
X110780254Y-97907492D01*
X110607000Y-97890428D01*
X109357000Y-97890428D01*
X109183746Y-97907492D01*
X109017150Y-97958028D01*
X108863614Y-98040095D01*
X108729038Y-98150538D01*
X108618595Y-98285114D01*
X108575245Y-98366216D01*
X108551405Y-98321614D01*
X108440962Y-98187038D01*
X108306386Y-98076595D01*
X108152850Y-97994528D01*
X107986254Y-97943992D01*
X107813000Y-97926928D01*
X106563000Y-97926928D01*
X106389746Y-97943992D01*
X106223150Y-97994528D01*
X106069614Y-98076595D01*
X105935038Y-98187038D01*
X105824595Y-98321614D01*
X105742528Y-98475150D01*
X105691992Y-98641746D01*
X105674928Y-98815000D01*
X105674928Y-99740000D01*
X105691992Y-99913254D01*
X105742528Y-100079850D01*
X105824595Y-100233386D01*
X105935038Y-100367962D01*
X106069614Y-100478405D01*
X106223150Y-100560472D01*
X106389746Y-100611008D01*
X106563000Y-100628072D01*
X107813000Y-100628072D01*
X107986254Y-100611008D01*
X108152850Y-100560472D01*
X108306386Y-100478405D01*
X108440962Y-100367962D01*
X108551405Y-100233386D01*
X108594755Y-100152284D01*
X108618595Y-100196886D01*
X108729038Y-100331462D01*
X108863614Y-100441905D01*
X109017150Y-100523972D01*
X109183746Y-100574508D01*
X109357000Y-100591572D01*
X110607000Y-100591572D01*
X110780254Y-100574508D01*
X110946850Y-100523972D01*
X111100386Y-100441905D01*
X111234962Y-100331462D01*
X111345405Y-100196886D01*
X111427472Y-100043350D01*
X111472473Y-99895000D01*
X112055935Y-99895000D01*
X112130525Y-100006632D01*
X112337368Y-100213475D01*
X112580589Y-100375990D01*
X112586401Y-100378397D01*
X110999499Y-101965300D01*
X105018086Y-101965300D01*
X105023909Y-101949040D01*
X104902624Y-101727000D01*
X103759000Y-101727000D01*
X103759000Y-101747000D01*
X103505000Y-101747000D01*
X103505000Y-101727000D01*
X103485000Y-101727000D01*
X103485000Y-101473000D01*
X103505000Y-101473000D01*
X103505000Y-100330085D01*
X103759000Y-100330085D01*
X103759000Y-101473000D01*
X104902624Y-101473000D01*
X105023909Y-101250960D01*
X104929070Y-100986119D01*
X104784385Y-100744869D01*
X104595414Y-100536481D01*
X104369420Y-100368963D01*
X104115087Y-100248754D01*
X103981039Y-100208096D01*
X103759000Y-100330085D01*
X103505000Y-100330085D01*
X103282961Y-100208096D01*
X103148913Y-100248754D01*
X102894580Y-100368963D01*
X102668586Y-100536481D01*
X102479615Y-100744869D01*
X102368067Y-100930865D01*
X102363680Y-100920273D01*
X102206637Y-100685241D01*
X102006759Y-100485363D01*
X101771727Y-100328320D01*
X101510574Y-100220147D01*
X101233335Y-100165000D01*
X100950665Y-100165000D01*
X100673426Y-100220147D01*
X100412273Y-100328320D01*
X100177241Y-100485363D01*
X99977363Y-100685241D01*
X99822000Y-100917759D01*
X99666637Y-100685241D01*
X99466759Y-100485363D01*
X99231727Y-100328320D01*
X98970574Y-100220147D01*
X98693335Y-100165000D01*
X98410665Y-100165000D01*
X98228114Y-100201312D01*
X95211204Y-97184403D01*
X95187401Y-97155399D01*
X95071676Y-97060426D01*
X94986692Y-97015000D01*
X105674928Y-97015000D01*
X105687188Y-97139482D01*
X105723498Y-97259180D01*
X105782463Y-97369494D01*
X105861815Y-97466185D01*
X105958506Y-97545537D01*
X106068820Y-97604502D01*
X106188518Y-97640812D01*
X106313000Y-97653072D01*
X106902250Y-97650000D01*
X107061000Y-97491250D01*
X107061000Y-96429500D01*
X107315000Y-96429500D01*
X107315000Y-97491250D01*
X107473750Y-97650000D01*
X108063000Y-97653072D01*
X108187482Y-97640812D01*
X108307180Y-97604502D01*
X108417494Y-97545537D01*
X108514185Y-97466185D01*
X108593537Y-97369494D01*
X108598617Y-97359989D01*
X108655815Y-97429685D01*
X108752506Y-97509037D01*
X108862820Y-97568002D01*
X108982518Y-97604312D01*
X109107000Y-97616572D01*
X109696250Y-97613500D01*
X109855000Y-97454750D01*
X109855000Y-96393000D01*
X110109000Y-96393000D01*
X110109000Y-97454750D01*
X110267750Y-97613500D01*
X110857000Y-97616572D01*
X110981482Y-97604312D01*
X111101180Y-97568002D01*
X111211494Y-97509037D01*
X111308185Y-97429685D01*
X111387537Y-97332994D01*
X111446502Y-97222680D01*
X111482812Y-97102982D01*
X111495072Y-96978500D01*
X111492000Y-96551750D01*
X111333250Y-96393000D01*
X110109000Y-96393000D01*
X109855000Y-96393000D01*
X108630750Y-96393000D01*
X108566750Y-96457000D01*
X108539250Y-96429500D01*
X107315000Y-96429500D01*
X107061000Y-96429500D01*
X105836750Y-96429500D01*
X105678000Y-96588250D01*
X105674928Y-97015000D01*
X94986692Y-97015000D01*
X94939647Y-96989854D01*
X94796386Y-96946397D01*
X94684733Y-96935400D01*
X94684722Y-96935400D01*
X94647400Y-96931724D01*
X94610078Y-96935400D01*
X93179706Y-96935400D01*
X93179000Y-96805750D01*
X93020250Y-96647000D01*
X91821000Y-96647000D01*
X91821000Y-96667000D01*
X91567000Y-96667000D01*
X91567000Y-96647000D01*
X90367750Y-96647000D01*
X90209000Y-96805750D01*
X90208294Y-96935400D01*
X89369706Y-96935400D01*
X89369000Y-96805750D01*
X89210250Y-96647000D01*
X88011000Y-96647000D01*
X88011000Y-96667000D01*
X87757000Y-96667000D01*
X87757000Y-96647000D01*
X87737000Y-96647000D01*
X87737000Y-96393000D01*
X87757000Y-96393000D01*
X87757000Y-95193750D01*
X88011000Y-95193750D01*
X88011000Y-96393000D01*
X89210250Y-96393000D01*
X89369000Y-96234250D01*
X89372072Y-95670000D01*
X90205928Y-95670000D01*
X90209000Y-96234250D01*
X90367750Y-96393000D01*
X91567000Y-96393000D01*
X91567000Y-95193750D01*
X91821000Y-95193750D01*
X91821000Y-96393000D01*
X93020250Y-96393000D01*
X93179000Y-96234250D01*
X93182072Y-95670000D01*
X93174193Y-95590000D01*
X105674928Y-95590000D01*
X105678000Y-96016750D01*
X105836750Y-96175500D01*
X107061000Y-96175500D01*
X107061000Y-95113750D01*
X107315000Y-95113750D01*
X107315000Y-96175500D01*
X108539250Y-96175500D01*
X108603250Y-96111500D01*
X108630750Y-96139000D01*
X109855000Y-96139000D01*
X109855000Y-95077250D01*
X110109000Y-95077250D01*
X110109000Y-96139000D01*
X111333250Y-96139000D01*
X111492000Y-95980250D01*
X111494233Y-95670000D01*
X111795928Y-95670000D01*
X111799000Y-96234250D01*
X111957750Y-96393000D01*
X113157000Y-96393000D01*
X113157000Y-95193750D01*
X112998250Y-95035000D01*
X112434000Y-95031928D01*
X112309518Y-95044188D01*
X112189820Y-95080498D01*
X112079506Y-95139463D01*
X111982815Y-95218815D01*
X111903463Y-95315506D01*
X111844498Y-95425820D01*
X111808188Y-95545518D01*
X111795928Y-95670000D01*
X111494233Y-95670000D01*
X111495072Y-95553500D01*
X111482812Y-95429018D01*
X111446502Y-95309320D01*
X111387537Y-95199006D01*
X111308185Y-95102315D01*
X111211494Y-95022963D01*
X111101180Y-94963998D01*
X110981482Y-94927688D01*
X110857000Y-94915428D01*
X110267750Y-94918500D01*
X110109000Y-95077250D01*
X109855000Y-95077250D01*
X109696250Y-94918500D01*
X109107000Y-94915428D01*
X108982518Y-94927688D01*
X108862820Y-94963998D01*
X108752506Y-95022963D01*
X108655815Y-95102315D01*
X108576463Y-95199006D01*
X108571383Y-95208511D01*
X108514185Y-95138815D01*
X108417494Y-95059463D01*
X108307180Y-95000498D01*
X108187482Y-94964188D01*
X108063000Y-94951928D01*
X107473750Y-94955000D01*
X107315000Y-95113750D01*
X107061000Y-95113750D01*
X106902250Y-94955000D01*
X106313000Y-94951928D01*
X106188518Y-94964188D01*
X106068820Y-95000498D01*
X105958506Y-95059463D01*
X105861815Y-95138815D01*
X105782463Y-95235506D01*
X105723498Y-95345820D01*
X105687188Y-95465518D01*
X105674928Y-95590000D01*
X93174193Y-95590000D01*
X93169812Y-95545518D01*
X93133502Y-95425820D01*
X93074537Y-95315506D01*
X92995185Y-95218815D01*
X92898494Y-95139463D01*
X92788180Y-95080498D01*
X92668482Y-95044188D01*
X92544000Y-95031928D01*
X91979750Y-95035000D01*
X91821000Y-95193750D01*
X91567000Y-95193750D01*
X91408250Y-95035000D01*
X90844000Y-95031928D01*
X90719518Y-95044188D01*
X90599820Y-95080498D01*
X90489506Y-95139463D01*
X90392815Y-95218815D01*
X90313463Y-95315506D01*
X90254498Y-95425820D01*
X90218188Y-95545518D01*
X90205928Y-95670000D01*
X89372072Y-95670000D01*
X89359812Y-95545518D01*
X89323502Y-95425820D01*
X89264537Y-95315506D01*
X89185185Y-95218815D01*
X89088494Y-95139463D01*
X88978180Y-95080498D01*
X88858482Y-95044188D01*
X88734000Y-95031928D01*
X88169750Y-95035000D01*
X88011000Y-95193750D01*
X87757000Y-95193750D01*
X87598250Y-95035000D01*
X87034000Y-95031928D01*
X86909518Y-95044188D01*
X86789820Y-95080498D01*
X86679506Y-95139463D01*
X86582815Y-95218815D01*
X86503463Y-95315506D01*
X86444498Y-95425820D01*
X86408188Y-95545518D01*
X86395928Y-95670000D01*
X86398404Y-96124702D01*
X83066200Y-92792499D01*
X83066200Y-88466072D01*
X84156500Y-88466072D01*
X84280982Y-88453812D01*
X84339929Y-88435931D01*
X86034605Y-90130608D01*
G36*
X118466001Y-98849031D02*
G01*
X118119215Y-98617316D01*
X117715335Y-98450023D01*
X117286578Y-98364738D01*
X116849422Y-98364738D01*
X116724895Y-98389508D01*
X117848808Y-97265595D01*
X117877801Y-97241801D01*
X117901595Y-97212808D01*
X117901599Y-97212804D01*
X117972773Y-97126077D01*
X117973509Y-97124700D01*
X118043346Y-96994047D01*
X118086803Y-96850786D01*
X118097800Y-96739133D01*
X118097800Y-96739124D01*
X118101476Y-96701801D01*
X118097800Y-96664478D01*
X118097800Y-85000332D01*
X118101477Y-84963000D01*
X118086803Y-84814014D01*
X118043346Y-84670753D01*
X117972774Y-84538724D01*
X117877801Y-84422999D01*
X117762076Y-84328026D01*
X117630047Y-84257454D01*
X117605678Y-84250062D01*
X117638312Y-84142482D01*
X117650572Y-84018000D01*
X117650572Y-83368000D01*
X117638312Y-83243518D01*
X117602002Y-83123820D01*
X117566820Y-83058000D01*
X117602002Y-82992180D01*
X117638312Y-82872482D01*
X117650572Y-82748000D01*
X117647500Y-82708750D01*
X117488750Y-82550000D01*
X116377000Y-82550000D01*
X116377000Y-82570000D01*
X116123000Y-82570000D01*
X116123000Y-82550000D01*
X115011250Y-82550000D01*
X114852500Y-82708750D01*
X114849428Y-82748000D01*
X114861688Y-82872482D01*
X114894322Y-82980062D01*
X114869953Y-82987454D01*
X114737924Y-83058026D01*
X114622199Y-83152999D01*
X114598396Y-83182003D01*
X114200803Y-83579596D01*
X114171799Y-83603399D01*
X114116671Y-83670574D01*
X114076826Y-83719124D01*
X114036302Y-83794939D01*
X114006254Y-83851154D01*
X113962797Y-83994415D01*
X113951800Y-84106068D01*
X113951800Y-84106078D01*
X113948124Y-84143400D01*
X113951800Y-84180723D01*
X113951801Y-89661497D01*
X113047000Y-90566298D01*
X113047000Y-90265133D01*
X113050677Y-90227800D01*
X113036003Y-90078814D01*
X112992546Y-89935553D01*
X112921974Y-89803524D01*
X112850799Y-89716797D01*
X112827001Y-89687799D01*
X112798004Y-89664002D01*
X111599036Y-88465034D01*
X111712982Y-88453812D01*
X111832680Y-88417502D01*
X111942994Y-88358537D01*
X112039685Y-88279185D01*
X112119037Y-88182494D01*
X112178002Y-88072180D01*
X112214312Y-87952482D01*
X112226572Y-87828000D01*
X112223500Y-87788750D01*
X112064750Y-87630000D01*
X110953000Y-87630000D01*
X110953000Y-87650000D01*
X110784001Y-87650000D01*
X110776404Y-87642403D01*
X110752601Y-87613399D01*
X110679000Y-87552996D01*
X110679000Y-87376000D01*
X110699000Y-87376000D01*
X110699000Y-87356000D01*
X110953000Y-87356000D01*
X110953000Y-87376000D01*
X112064750Y-87376000D01*
X112223500Y-87217250D01*
X112226572Y-87178000D01*
X112214312Y-87053518D01*
X112178002Y-86933820D01*
X112142820Y-86868000D01*
X112178002Y-86802180D01*
X112214312Y-86682482D01*
X112216930Y-86655900D01*
X112253039Y-86655900D01*
X112452998Y-86616126D01*
X112641356Y-86538105D01*
X112810874Y-86424837D01*
X112955037Y-86280674D01*
X113068305Y-86111156D01*
X113146326Y-85922798D01*
X113186100Y-85722839D01*
X113186100Y-85518961D01*
X113146326Y-85319002D01*
X113068305Y-85130644D01*
X112955037Y-84961126D01*
X112810874Y-84816963D01*
X112641356Y-84703695D01*
X112627612Y-84698002D01*
X112619346Y-84670753D01*
X112604452Y-84642888D01*
X112683356Y-84610205D01*
X112852874Y-84496937D01*
X112997037Y-84352774D01*
X113110305Y-84183256D01*
X113188326Y-83994898D01*
X113228100Y-83794939D01*
X113228100Y-83591061D01*
X113188326Y-83391102D01*
X113110305Y-83202744D01*
X113028640Y-83080524D01*
X113140405Y-82913256D01*
X113218426Y-82724898D01*
X113258200Y-82524939D01*
X113258200Y-82321061D01*
X113218426Y-82121102D01*
X113140405Y-81932744D01*
X113042420Y-81786098D01*
X113111805Y-81682256D01*
X113189826Y-81493898D01*
X113229600Y-81293939D01*
X113229600Y-81090061D01*
X113189826Y-80890102D01*
X113111805Y-80701744D01*
X112998537Y-80532226D01*
X112854374Y-80388063D01*
X112684856Y-80274795D01*
X112496498Y-80196774D01*
X112296539Y-80157000D01*
X112226572Y-80157000D01*
X112226572Y-79558000D01*
X112214312Y-79433518D01*
X112178002Y-79313820D01*
X112142820Y-79248000D01*
X112178002Y-79182180D01*
X112214312Y-79062482D01*
X112224665Y-78957366D01*
X113661300Y-80394002D01*
X113685099Y-80423001D01*
X113800824Y-80517974D01*
X113932853Y-80588546D01*
X114076114Y-80632003D01*
X114187767Y-80643000D01*
X114187775Y-80643000D01*
X114225100Y-80646676D01*
X114262425Y-80643000D01*
X114880046Y-80643000D01*
X114861688Y-80703518D01*
X114849428Y-80828000D01*
X114849428Y-81478000D01*
X114861688Y-81602482D01*
X114897998Y-81722180D01*
X114933180Y-81788000D01*
X114897998Y-81853820D01*
X114861688Y-81973518D01*
X114849428Y-82098000D01*
X114852500Y-82137250D01*
X115011250Y-82296000D01*
X116123000Y-82296000D01*
X116123000Y-82276000D01*
X116377000Y-82276000D01*
X116377000Y-82296000D01*
X117488750Y-82296000D01*
X117647500Y-82137250D01*
X117650572Y-82098000D01*
X117638312Y-81973518D01*
X117605678Y-81865938D01*
X117630047Y-81858546D01*
X117762076Y-81787974D01*
X117877801Y-81693001D01*
X117972774Y-81577276D01*
X118043346Y-81445247D01*
X118086803Y-81301986D01*
X118101477Y-81153000D01*
X118097800Y-81115667D01*
X118097800Y-78190522D01*
X118101476Y-78153199D01*
X118097800Y-78115876D01*
X118097800Y-78115867D01*
X118086803Y-78004214D01*
X118043346Y-77860953D01*
X117972774Y-77728924D01*
X117877801Y-77613199D01*
X117848797Y-77589396D01*
X117797390Y-77537989D01*
X118119215Y-77404684D01*
X118466000Y-77172969D01*
X118466001Y-98849031D01*
G37*
X118466001Y-98849031D02*
X118119215Y-98617316D01*
X117715335Y-98450023D01*
X117286578Y-98364738D01*
X116849422Y-98364738D01*
X116724895Y-98389508D01*
X117848808Y-97265595D01*
X117877801Y-97241801D01*
X117901595Y-97212808D01*
X117901599Y-97212804D01*
X117972773Y-97126077D01*
X117973509Y-97124700D01*
X118043346Y-96994047D01*
X118086803Y-96850786D01*
X118097800Y-96739133D01*
X118097800Y-96739124D01*
X118101476Y-96701801D01*
X118097800Y-96664478D01*
X118097800Y-85000332D01*
X118101477Y-84963000D01*
X118086803Y-84814014D01*
X118043346Y-84670753D01*
X117972774Y-84538724D01*
X117877801Y-84422999D01*
X117762076Y-84328026D01*
X117630047Y-84257454D01*
X117605678Y-84250062D01*
X117638312Y-84142482D01*
X117650572Y-84018000D01*
X117650572Y-83368000D01*
X117638312Y-83243518D01*
X117602002Y-83123820D01*
X117566820Y-83058000D01*
X117602002Y-82992180D01*
X117638312Y-82872482D01*
X117650572Y-82748000D01*
X117647500Y-82708750D01*
X117488750Y-82550000D01*
X116377000Y-82550000D01*
X116377000Y-82570000D01*
X116123000Y-82570000D01*
X116123000Y-82550000D01*
X115011250Y-82550000D01*
X114852500Y-82708750D01*
X114849428Y-82748000D01*
X114861688Y-82872482D01*
X114894322Y-82980062D01*
X114869953Y-82987454D01*
X114737924Y-83058026D01*
X114622199Y-83152999D01*
X114598396Y-83182003D01*
X114200803Y-83579596D01*
X114171799Y-83603399D01*
X114116671Y-83670574D01*
X114076826Y-83719124D01*
X114036302Y-83794939D01*
X114006254Y-83851154D01*
X113962797Y-83994415D01*
X113951800Y-84106068D01*
X113951800Y-84106078D01*
X113948124Y-84143400D01*
X113951800Y-84180723D01*
X113951801Y-89661497D01*
X113047000Y-90566298D01*
X113047000Y-90265133D01*
X113050677Y-90227800D01*
X113036003Y-90078814D01*
X112992546Y-89935553D01*
X112921974Y-89803524D01*
X112850799Y-89716797D01*
X112827001Y-89687799D01*
X112798004Y-89664002D01*
X111599036Y-88465034D01*
X111712982Y-88453812D01*
X111832680Y-88417502D01*
X111942994Y-88358537D01*
X112039685Y-88279185D01*
X112119037Y-88182494D01*
X112178002Y-88072180D01*
X112214312Y-87952482D01*
X112226572Y-87828000D01*
X112223500Y-87788750D01*
X112064750Y-87630000D01*
X110953000Y-87630000D01*
X110953000Y-87650000D01*
X110784001Y-87650000D01*
X110776404Y-87642403D01*
X110752601Y-87613399D01*
X110679000Y-87552996D01*
X110679000Y-87376000D01*
X110699000Y-87376000D01*
X110699000Y-87356000D01*
X110953000Y-87356000D01*
X110953000Y-87376000D01*
X112064750Y-87376000D01*
X112223500Y-87217250D01*
X112226572Y-87178000D01*
X112214312Y-87053518D01*
X112178002Y-86933820D01*
X112142820Y-86868000D01*
X112178002Y-86802180D01*
X112214312Y-86682482D01*
X112216930Y-86655900D01*
X112253039Y-86655900D01*
X112452998Y-86616126D01*
X112641356Y-86538105D01*
X112810874Y-86424837D01*
X112955037Y-86280674D01*
X113068305Y-86111156D01*
X113146326Y-85922798D01*
X113186100Y-85722839D01*
X113186100Y-85518961D01*
X113146326Y-85319002D01*
X113068305Y-85130644D01*
X112955037Y-84961126D01*
X112810874Y-84816963D01*
X112641356Y-84703695D01*
X112627612Y-84698002D01*
X112619346Y-84670753D01*
X112604452Y-84642888D01*
X112683356Y-84610205D01*
X112852874Y-84496937D01*
X112997037Y-84352774D01*
X113110305Y-84183256D01*
X113188326Y-83994898D01*
X113228100Y-83794939D01*
X113228100Y-83591061D01*
X113188326Y-83391102D01*
X113110305Y-83202744D01*
X113028640Y-83080524D01*
X113140405Y-82913256D01*
X113218426Y-82724898D01*
X113258200Y-82524939D01*
X113258200Y-82321061D01*
X113218426Y-82121102D01*
X113140405Y-81932744D01*
X113042420Y-81786098D01*
X113111805Y-81682256D01*
X113189826Y-81493898D01*
X113229600Y-81293939D01*
X113229600Y-81090061D01*
X113189826Y-80890102D01*
X113111805Y-80701744D01*
X112998537Y-80532226D01*
X112854374Y-80388063D01*
X112684856Y-80274795D01*
X112496498Y-80196774D01*
X112296539Y-80157000D01*
X112226572Y-80157000D01*
X112226572Y-79558000D01*
X112214312Y-79433518D01*
X112178002Y-79313820D01*
X112142820Y-79248000D01*
X112178002Y-79182180D01*
X112214312Y-79062482D01*
X112224665Y-78957366D01*
X113661300Y-80394002D01*
X113685099Y-80423001D01*
X113800824Y-80517974D01*
X113932853Y-80588546D01*
X114076114Y-80632003D01*
X114187767Y-80643000D01*
X114187775Y-80643000D01*
X114225100Y-80646676D01*
X114262425Y-80643000D01*
X114880046Y-80643000D01*
X114861688Y-80703518D01*
X114849428Y-80828000D01*
X114849428Y-81478000D01*
X114861688Y-81602482D01*
X114897998Y-81722180D01*
X114933180Y-81788000D01*
X114897998Y-81853820D01*
X114861688Y-81973518D01*
X114849428Y-82098000D01*
X114852500Y-82137250D01*
X115011250Y-82296000D01*
X116123000Y-82296000D01*
X116123000Y-82276000D01*
X116377000Y-82276000D01*
X116377000Y-82296000D01*
X117488750Y-82296000D01*
X117647500Y-82137250D01*
X117650572Y-82098000D01*
X117638312Y-81973518D01*
X117605678Y-81865938D01*
X117630047Y-81858546D01*
X117762076Y-81787974D01*
X117877801Y-81693001D01*
X117972774Y-81577276D01*
X118043346Y-81445247D01*
X118086803Y-81301986D01*
X118101477Y-81153000D01*
X118097800Y-81115667D01*
X118097800Y-78190522D01*
X118101476Y-78153199D01*
X118097800Y-78115876D01*
X118097800Y-78115867D01*
X118086803Y-78004214D01*
X118043346Y-77860953D01*
X117972774Y-77728924D01*
X117877801Y-77613199D01*
X117848797Y-77589396D01*
X117797390Y-77537989D01*
X118119215Y-77404684D01*
X118466000Y-77172969D01*
X118466001Y-98849031D01*
G36*
X85440500Y-83682302D02*
G01*
X85440501Y-85972288D01*
X85396563Y-86016226D01*
X85373838Y-86050237D01*
X85045604Y-85722003D01*
X85021801Y-85692999D01*
X84906076Y-85598026D01*
X84774047Y-85527454D01*
X84749678Y-85520062D01*
X84782312Y-85412482D01*
X84794572Y-85288000D01*
X84794572Y-84638000D01*
X84782312Y-84513518D01*
X84746002Y-84393820D01*
X84710820Y-84328000D01*
X84746002Y-84262180D01*
X84782312Y-84142482D01*
X84794572Y-84018000D01*
X84791500Y-83978750D01*
X84632750Y-83820000D01*
X83521000Y-83820000D01*
X83521000Y-83840000D01*
X83267000Y-83840000D01*
X83267000Y-83820000D01*
X83247000Y-83820000D01*
X83247000Y-83566000D01*
X83267000Y-83566000D01*
X83267000Y-83546000D01*
X83521000Y-83546000D01*
X83521000Y-83566000D01*
X84632750Y-83566000D01*
X84791500Y-83407250D01*
X84794572Y-83368000D01*
X84782312Y-83243518D01*
X84763954Y-83183000D01*
X84941199Y-83183000D01*
X85440500Y-83682302D01*
G37*
X85440500Y-83682302D02*
X85440501Y-85972288D01*
X85396563Y-86016226D01*
X85373838Y-86050237D01*
X85045604Y-85722003D01*
X85021801Y-85692999D01*
X84906076Y-85598026D01*
X84774047Y-85527454D01*
X84749678Y-85520062D01*
X84782312Y-85412482D01*
X84794572Y-85288000D01*
X84794572Y-84638000D01*
X84782312Y-84513518D01*
X84746002Y-84393820D01*
X84710820Y-84328000D01*
X84746002Y-84262180D01*
X84782312Y-84142482D01*
X84794572Y-84018000D01*
X84791500Y-83978750D01*
X84632750Y-83820000D01*
X83521000Y-83820000D01*
X83521000Y-83840000D01*
X83267000Y-83840000D01*
X83267000Y-83820000D01*
X83247000Y-83820000D01*
X83247000Y-83566000D01*
X83267000Y-83566000D01*
X83267000Y-83546000D01*
X83521000Y-83546000D01*
X83521000Y-83566000D01*
X84632750Y-83566000D01*
X84791500Y-83407250D01*
X84794572Y-83368000D01*
X84782312Y-83243518D01*
X84763954Y-83183000D01*
X84941199Y-83183000D01*
X85440500Y-83682302D01*
G36*
X88945000Y-78486000D02*
G01*
X88965000Y-78486000D01*
X88965000Y-78740000D01*
X88945000Y-78740000D01*
X88945000Y-78760000D01*
X88691000Y-78760000D01*
X88691000Y-78740000D01*
X88671000Y-78740000D01*
X88671000Y-78486000D01*
X88691000Y-78486000D01*
X88691000Y-78466000D01*
X88945000Y-78466000D01*
X88945000Y-78486000D01*
G37*
X88945000Y-78486000D02*
X88965000Y-78486000D01*
X88965000Y-78740000D01*
X88945000Y-78740000D01*
X88945000Y-78760000D01*
X88691000Y-78760000D01*
X88691000Y-78740000D01*
X88671000Y-78740000D01*
X88671000Y-78486000D01*
X88691000Y-78486000D01*
X88691000Y-78466000D01*
X88945000Y-78466000D01*
X88945000Y-78486000D01*
%TD*%
M02*
