%TF.GenerationSoftware,KiCad,Pcbnew,(5.1.6)-1*%
%TF.CreationDate,2021-03-31T10:32:31-04:00*%
%TF.ProjectId,Turbo-Display-V2,54757262-6f2d-4446-9973-706c61792d56,rev?*%
%TF.SameCoordinates,Original*%
%TF.FileFunction,Paste,Bot*%
%TF.FilePolarity,Positive*%
%FSLAX46Y46*%
G04 Gerber Fmt 4.6, Leading zero omitted, Abs format (unit mm)*
G04 Created by KiCad (PCBNEW (5.1.6)-1) date 2021-03-31 10:32:31*
%MOMM*%
%LPD*%
G01*
G04 APERTURE LIST*
G04 APERTURE END LIST*
%TO.C,C3*%
G36*
G01*
X101542001Y-99390000D02*
X100641999Y-99390000D01*
G75*
G02*
X100392000Y-99140001I0J249999D01*
G01*
X100392000Y-98489999D01*
G75*
G02*
X100641999Y-98240000I249999J0D01*
G01*
X101542001Y-98240000D01*
G75*
G02*
X101792000Y-98489999I0J-249999D01*
G01*
X101792000Y-99140001D01*
G75*
G02*
X101542001Y-99390000I-249999J0D01*
G01*
G37*
G36*
G01*
X101542001Y-97340000D02*
X100641999Y-97340000D01*
G75*
G02*
X100392000Y-97090001I0J249999D01*
G01*
X100392000Y-96439999D01*
G75*
G02*
X100641999Y-96190000I249999J0D01*
G01*
X101542001Y-96190000D01*
G75*
G02*
X101792000Y-96439999I0J-249999D01*
G01*
X101792000Y-97090001D01*
G75*
G02*
X101542001Y-97340000I-249999J0D01*
G01*
G37*
%TD*%
%TO.C,R1*%
G36*
G01*
X103181999Y-96190000D02*
X104082001Y-96190000D01*
G75*
G02*
X104332000Y-96439999I0J-249999D01*
G01*
X104332000Y-97090001D01*
G75*
G02*
X104082001Y-97340000I-249999J0D01*
G01*
X103181999Y-97340000D01*
G75*
G02*
X102932000Y-97090001I0J249999D01*
G01*
X102932000Y-96439999D01*
G75*
G02*
X103181999Y-96190000I249999J0D01*
G01*
G37*
G36*
G01*
X103181999Y-98240000D02*
X104082001Y-98240000D01*
G75*
G02*
X104332000Y-98489999I0J-249999D01*
G01*
X104332000Y-99140001D01*
G75*
G02*
X104082001Y-99390000I-249999J0D01*
G01*
X103181999Y-99390000D01*
G75*
G02*
X102932000Y-99140001I0J249999D01*
G01*
X102932000Y-98489999D01*
G75*
G02*
X103181999Y-98240000I249999J0D01*
G01*
G37*
%TD*%
%TO.C,R2*%
G36*
G01*
X99002001Y-97340000D02*
X98101999Y-97340000D01*
G75*
G02*
X97852000Y-97090001I0J249999D01*
G01*
X97852000Y-96439999D01*
G75*
G02*
X98101999Y-96190000I249999J0D01*
G01*
X99002001Y-96190000D01*
G75*
G02*
X99252000Y-96439999I0J-249999D01*
G01*
X99252000Y-97090001D01*
G75*
G02*
X99002001Y-97340000I-249999J0D01*
G01*
G37*
G36*
G01*
X99002001Y-99390000D02*
X98101999Y-99390000D01*
G75*
G02*
X97852000Y-99140001I0J249999D01*
G01*
X97852000Y-98489999D01*
G75*
G02*
X98101999Y-98240000I249999J0D01*
G01*
X99002001Y-98240000D01*
G75*
G02*
X99252000Y-98489999I0J-249999D01*
G01*
X99252000Y-99140001D01*
G75*
G02*
X99002001Y-99390000I-249999J0D01*
G01*
G37*
%TD*%
M02*
