%TF.GenerationSoftware,KiCad,Pcbnew,(5.1.6)-1*%
%TF.CreationDate,2021-03-31T10:32:31-04:00*%
%TF.ProjectId,Turbo-Display-V2,54757262-6f2d-4446-9973-706c61792d56,rev?*%
%TF.SameCoordinates,Original*%
%TF.FileFunction,Legend,Top*%
%TF.FilePolarity,Positive*%
%FSLAX46Y46*%
G04 Gerber Fmt 4.6, Leading zero omitted, Abs format (unit mm)*
G04 Created by KiCad (PCBNEW (5.1.6)-1) date 2021-03-31 10:32:31*
%MOMM*%
%LPD*%
G01*
G04 APERTURE LIST*
%ADD10C,0.150000*%
%ADD11C,0.120000*%
%ADD12C,0.200000*%
%ADD13C,0.254000*%
G04 APERTURE END LIST*
D10*
X93345047Y-96591428D02*
X94106952Y-96591428D01*
X93345047Y-99131428D02*
X94106952Y-99131428D01*
X93726000Y-99512380D02*
X93726000Y-98750476D01*
X95250000Y-99528380D02*
X95250000Y-99766476D01*
X95011904Y-99671238D02*
X95250000Y-99766476D01*
X95488095Y-99671238D01*
X95107142Y-99956952D02*
X95250000Y-99766476D01*
X95392857Y-99956952D01*
X112522000Y-78700380D02*
X112522000Y-78938476D01*
X112283904Y-78843238D02*
X112522000Y-78938476D01*
X112760095Y-78843238D01*
X112379142Y-79128952D02*
X112522000Y-78938476D01*
X112664857Y-79128952D01*
X102870000Y-77938380D02*
X102870000Y-78176476D01*
X102631904Y-78081238D02*
X102870000Y-78176476D01*
X103108095Y-78081238D01*
X102727142Y-78366952D02*
X102870000Y-78176476D01*
X103012857Y-78366952D01*
X87122000Y-87082380D02*
X87122000Y-87320476D01*
X86883904Y-87225238D02*
X87122000Y-87320476D01*
X87360095Y-87225238D01*
X86979142Y-87510952D02*
X87122000Y-87320476D01*
X87264857Y-87510952D01*
X96774000Y-87844380D02*
X96774000Y-88082476D01*
X96535904Y-87987238D02*
X96774000Y-88082476D01*
X97012095Y-87987238D01*
X96631142Y-88272952D02*
X96774000Y-88082476D01*
X96916857Y-88272952D01*
X90694000Y-101052380D02*
X90884476Y-101052380D01*
X90979714Y-101100000D01*
X91074952Y-101195238D01*
X91122571Y-101385714D01*
X91122571Y-101719047D01*
X91074952Y-101909523D01*
X90979714Y-102004761D01*
X90884476Y-102052380D01*
X90694000Y-102052380D01*
X90598761Y-102004761D01*
X90503523Y-101909523D01*
X90455904Y-101719047D01*
X90455904Y-101385714D01*
X90503523Y-101195238D01*
X90598761Y-101100000D01*
X90694000Y-101052380D01*
X91551142Y-101052380D02*
X91551142Y-101861904D01*
X91598761Y-101957142D01*
X91646380Y-102004761D01*
X91741619Y-102052380D01*
X91932095Y-102052380D01*
X92027333Y-102004761D01*
X92074952Y-101957142D01*
X92122571Y-101861904D01*
X92122571Y-101052380D01*
X92455904Y-101052380D02*
X93027333Y-101052380D01*
X92741619Y-102052380D02*
X92741619Y-101052380D01*
X87360190Y-102052380D02*
X87360190Y-101052380D01*
X87836380Y-102052380D02*
X87836380Y-101052380D01*
X88407809Y-102052380D01*
X88407809Y-101052380D01*
X87630285Y-93686380D02*
X88201714Y-93686380D01*
X87916000Y-94686380D02*
X87916000Y-93686380D01*
X89011238Y-94686380D02*
X88535047Y-94686380D01*
X88535047Y-93686380D01*
X89344571Y-94162571D02*
X89677904Y-94162571D01*
X89820761Y-94686380D02*
X89344571Y-94686380D01*
X89344571Y-93686380D01*
X89820761Y-93686380D01*
X90249333Y-94686380D02*
X90249333Y-93686380D01*
X90487428Y-93686380D01*
X90630285Y-93734000D01*
X90725523Y-93829238D01*
X90773142Y-93924476D01*
X90820761Y-94114952D01*
X90820761Y-94257809D01*
X90773142Y-94448285D01*
X90725523Y-94543523D01*
X90630285Y-94638761D01*
X90487428Y-94686380D01*
X90249333Y-94686380D01*
X91296952Y-93686380D02*
X91201714Y-93876857D01*
X91677904Y-94638761D02*
X91773142Y-94686380D01*
X91963619Y-94686380D01*
X92058857Y-94638761D01*
X92106476Y-94543523D01*
X92106476Y-94495904D01*
X92058857Y-94400666D01*
X91963619Y-94353047D01*
X91820761Y-94353047D01*
X91725523Y-94305428D01*
X91677904Y-94210190D01*
X91677904Y-94162571D01*
X91725523Y-94067333D01*
X91820761Y-94019714D01*
X91963619Y-94019714D01*
X92058857Y-94067333D01*
X85471047Y-99131428D02*
X86232952Y-99131428D01*
X85852000Y-99512380D02*
X85852000Y-98750476D01*
X85471047Y-96591428D02*
X86232952Y-96591428D01*
X114935047Y-96591428D02*
X115696952Y-96591428D01*
X114935047Y-99131428D02*
X115696952Y-99131428D01*
X115316000Y-99512380D02*
X115316000Y-98750476D01*
X111998285Y-101417428D02*
X112760190Y-101417428D01*
X112379238Y-101798380D02*
X112379238Y-101036476D01*
X113712571Y-100798380D02*
X113236380Y-100798380D01*
X113188761Y-101274571D01*
X113236380Y-101226952D01*
X113331619Y-101179333D01*
X113569714Y-101179333D01*
X113664952Y-101226952D01*
X113712571Y-101274571D01*
X113760190Y-101369809D01*
X113760190Y-101607904D01*
X113712571Y-101703142D01*
X113664952Y-101750761D01*
X113569714Y-101798380D01*
X113331619Y-101798380D01*
X113236380Y-101750761D01*
X113188761Y-101703142D01*
X114045904Y-100798380D02*
X114379238Y-101798380D01*
X114712571Y-100798380D01*
D11*
%TO.C,C1*%
X110892000Y-98355564D02*
X110892000Y-97151436D01*
X109072000Y-98355564D02*
X109072000Y-97151436D01*
%TO.C,C2*%
X106278000Y-98392064D02*
X106278000Y-97187936D01*
X108098000Y-98392064D02*
X108098000Y-97187936D01*
%TO.C,J1*%
X111954000Y-100390000D02*
X114614000Y-100390000D01*
X111954000Y-97790000D02*
X111954000Y-100390000D01*
X114614000Y-97790000D02*
X114614000Y-100390000D01*
X111954000Y-97790000D02*
X114614000Y-97790000D01*
X111954000Y-96520000D02*
X111954000Y-95190000D01*
X111954000Y-95190000D02*
X113284000Y-95190000D01*
%TO.C,J2*%
X86554000Y-95190000D02*
X87884000Y-95190000D01*
X86554000Y-96520000D02*
X86554000Y-95190000D01*
X86554000Y-97790000D02*
X89214000Y-97790000D01*
X89214000Y-97790000D02*
X89214000Y-100390000D01*
X86554000Y-97790000D02*
X86554000Y-100390000D01*
X86554000Y-100390000D02*
X89214000Y-100390000D01*
%TO.C,J3*%
X90364000Y-95190000D02*
X91694000Y-95190000D01*
X90364000Y-96520000D02*
X90364000Y-95190000D01*
X90364000Y-97790000D02*
X93024000Y-97790000D01*
X93024000Y-97790000D02*
X93024000Y-100390000D01*
X90364000Y-97790000D02*
X90364000Y-100390000D01*
X90364000Y-100390000D02*
X93024000Y-100390000D01*
D12*
%TO.C,RN1*%
X99296000Y-88203000D02*
X97791000Y-88203000D01*
X97441000Y-77468000D02*
X97441000Y-88648000D01*
X92551000Y-77468000D02*
X97441000Y-77468000D01*
X92551000Y-88648000D02*
X92551000Y-77468000D01*
X97441000Y-88648000D02*
X92551000Y-88648000D01*
%TO.C,RN2*%
X102203000Y-77468000D02*
X107093000Y-77468000D01*
X107093000Y-77468000D02*
X107093000Y-88648000D01*
X107093000Y-88648000D02*
X102203000Y-88648000D01*
X102203000Y-88648000D02*
X102203000Y-77468000D01*
X100348000Y-77913000D02*
X101853000Y-77913000D01*
D11*
%TO.C,U1*%
X94682000Y-95140000D02*
X94682000Y-96790000D01*
X104962000Y-95140000D02*
X94682000Y-95140000D01*
X104962000Y-100440000D02*
X104962000Y-95140000D01*
X94682000Y-100440000D02*
X104962000Y-100440000D01*
X94682000Y-98790000D02*
X94682000Y-100440000D01*
X94682000Y-96790000D02*
G75*
G02*
X94682000Y-98790000I0J-1000000D01*
G01*
D12*
%TO.C,U2*%
X89581000Y-88178000D02*
X88056000Y-88178000D01*
X87706000Y-78108000D02*
X87706000Y-88008000D01*
X84506000Y-78108000D02*
X87706000Y-78108000D01*
X84506000Y-88008000D02*
X84506000Y-78108000D01*
X87706000Y-88008000D02*
X84506000Y-88008000D01*
%TO.C,U3*%
X111938000Y-78108000D02*
X115138000Y-78108000D01*
X115138000Y-78108000D02*
X115138000Y-88008000D01*
X115138000Y-88008000D02*
X111938000Y-88008000D01*
X111938000Y-88008000D02*
X111938000Y-78108000D01*
X110063000Y-77938000D02*
X111588000Y-77938000D01*
%TO.C,C1*%
D10*
X109815333Y-101376142D02*
X109767714Y-101423761D01*
X109624857Y-101471380D01*
X109529619Y-101471380D01*
X109386761Y-101423761D01*
X109291523Y-101328523D01*
X109243904Y-101233285D01*
X109196285Y-101042809D01*
X109196285Y-100899952D01*
X109243904Y-100709476D01*
X109291523Y-100614238D01*
X109386761Y-100519000D01*
X109529619Y-100471380D01*
X109624857Y-100471380D01*
X109767714Y-100519000D01*
X109815333Y-100566619D01*
X110767714Y-101471380D02*
X110196285Y-101471380D01*
X110482000Y-101471380D02*
X110482000Y-100471380D01*
X110386761Y-100614238D01*
X110291523Y-100709476D01*
X110196285Y-100757095D01*
%TO.C,C2*%
X107021333Y-101412642D02*
X106973714Y-101460261D01*
X106830857Y-101507880D01*
X106735619Y-101507880D01*
X106592761Y-101460261D01*
X106497523Y-101365023D01*
X106449904Y-101269785D01*
X106402285Y-101079309D01*
X106402285Y-100936452D01*
X106449904Y-100745976D01*
X106497523Y-100650738D01*
X106592761Y-100555500D01*
X106735619Y-100507880D01*
X106830857Y-100507880D01*
X106973714Y-100555500D01*
X107021333Y-100603119D01*
X107402285Y-100603119D02*
X107449904Y-100555500D01*
X107545142Y-100507880D01*
X107783238Y-100507880D01*
X107878476Y-100555500D01*
X107926095Y-100603119D01*
X107973714Y-100698357D01*
X107973714Y-100793595D01*
X107926095Y-100936452D01*
X107354666Y-101507880D01*
X107973714Y-101507880D01*
%TO.C,RN1*%
D13*
X94119095Y-83632523D02*
X93695761Y-83027761D01*
X93393380Y-83632523D02*
X93393380Y-82362523D01*
X93877190Y-82362523D01*
X93998142Y-82423000D01*
X94058619Y-82483476D01*
X94119095Y-82604428D01*
X94119095Y-82785857D01*
X94058619Y-82906809D01*
X93998142Y-82967285D01*
X93877190Y-83027761D01*
X93393380Y-83027761D01*
X94663380Y-83632523D02*
X94663380Y-82362523D01*
X95389095Y-83632523D01*
X95389095Y-82362523D01*
X96659095Y-83632523D02*
X95933380Y-83632523D01*
X96296238Y-83632523D02*
X96296238Y-82362523D01*
X96175285Y-82543952D01*
X96054333Y-82664904D01*
X95933380Y-82725380D01*
%TO.C,RN2*%
X103771095Y-83632523D02*
X103347761Y-83027761D01*
X103045380Y-83632523D02*
X103045380Y-82362523D01*
X103529190Y-82362523D01*
X103650142Y-82423000D01*
X103710619Y-82483476D01*
X103771095Y-82604428D01*
X103771095Y-82785857D01*
X103710619Y-82906809D01*
X103650142Y-82967285D01*
X103529190Y-83027761D01*
X103045380Y-83027761D01*
X104315380Y-83632523D02*
X104315380Y-82362523D01*
X105041095Y-83632523D01*
X105041095Y-82362523D01*
X105585380Y-82483476D02*
X105645857Y-82423000D01*
X105766809Y-82362523D01*
X106069190Y-82362523D01*
X106190142Y-82423000D01*
X106250619Y-82483476D01*
X106311095Y-82604428D01*
X106311095Y-82725380D01*
X106250619Y-82906809D01*
X105524904Y-83632523D01*
X106311095Y-83632523D01*
%TO.C,U1*%
D10*
X99274380Y-98551904D02*
X100083904Y-98551904D01*
X100179142Y-98504285D01*
X100226761Y-98456666D01*
X100274380Y-98361428D01*
X100274380Y-98170952D01*
X100226761Y-98075714D01*
X100179142Y-98028095D01*
X100083904Y-97980476D01*
X99274380Y-97980476D01*
X100274380Y-96980476D02*
X100274380Y-97551904D01*
X100274380Y-97266190D02*
X99274380Y-97266190D01*
X99417238Y-97361428D01*
X99512476Y-97456666D01*
X99560095Y-97551904D01*
%TO.C,U2*%
D13*
X85138380Y-82362523D02*
X85138380Y-83390619D01*
X85198857Y-83511571D01*
X85259333Y-83572047D01*
X85380285Y-83632523D01*
X85622190Y-83632523D01*
X85743142Y-83572047D01*
X85803619Y-83511571D01*
X85864095Y-83390619D01*
X85864095Y-82362523D01*
X86408380Y-82483476D02*
X86468857Y-82423000D01*
X86589809Y-82362523D01*
X86892190Y-82362523D01*
X87013142Y-82423000D01*
X87073619Y-82483476D01*
X87134095Y-82604428D01*
X87134095Y-82725380D01*
X87073619Y-82906809D01*
X86347904Y-83632523D01*
X87134095Y-83632523D01*
%TO.C,U3*%
X112570380Y-82362523D02*
X112570380Y-83390619D01*
X112630857Y-83511571D01*
X112691333Y-83572047D01*
X112812285Y-83632523D01*
X113054190Y-83632523D01*
X113175142Y-83572047D01*
X113235619Y-83511571D01*
X113296095Y-83390619D01*
X113296095Y-82362523D01*
X113779904Y-82362523D02*
X114566095Y-82362523D01*
X114142761Y-82846333D01*
X114324190Y-82846333D01*
X114445142Y-82906809D01*
X114505619Y-82967285D01*
X114566095Y-83088238D01*
X114566095Y-83390619D01*
X114505619Y-83511571D01*
X114445142Y-83572047D01*
X114324190Y-83632523D01*
X113961333Y-83632523D01*
X113840380Y-83572047D01*
X113779904Y-83511571D01*
%TD*%
M02*
