%TF.GenerationSoftware,KiCad,Pcbnew,(5.1.6)-1*%
%TF.CreationDate,2021-03-31T10:32:31-04:00*%
%TF.ProjectId,Turbo-Display-V2,54757262-6f2d-4446-9973-706c61792d56,rev?*%
%TF.SameCoordinates,Original*%
%TF.FileFunction,Soldermask,Top*%
%TF.FilePolarity,Negative*%
%FSLAX46Y46*%
G04 Gerber Fmt 4.6, Leading zero omitted, Abs format (unit mm)*
G04 Created by KiCad (PCBNEW (5.1.6)-1) date 2021-03-31 10:32:31*
%MOMM*%
%LPD*%
G01*
G04 APERTURE LIST*
%ADD10C,1.481000*%
%ADD11O,1.800000X1.800000*%
%ADD12R,1.800000X1.800000*%
%ADD13R,1.605000X0.800000*%
%ADD14R,1.700000X1.700000*%
%ADD15O,1.700000X1.700000*%
%ADD16R,1.625000X0.750000*%
G04 APERTURE END LIST*
%TO.C,C1*%
G36*
G01*
X110639456Y-100003500D02*
X109324544Y-100003500D01*
G75*
G02*
X109057000Y-99735956I0J267544D01*
G01*
X109057000Y-98746044D01*
G75*
G02*
X109324544Y-98478500I267544J0D01*
G01*
X110639456Y-98478500D01*
G75*
G02*
X110907000Y-98746044I0J-267544D01*
G01*
X110907000Y-99735956D01*
G75*
G02*
X110639456Y-100003500I-267544J0D01*
G01*
G37*
G36*
G01*
X110639456Y-97028500D02*
X109324544Y-97028500D01*
G75*
G02*
X109057000Y-96760956I0J267544D01*
G01*
X109057000Y-95771044D01*
G75*
G02*
X109324544Y-95503500I267544J0D01*
G01*
X110639456Y-95503500D01*
G75*
G02*
X110907000Y-95771044I0J-267544D01*
G01*
X110907000Y-96760956D01*
G75*
G02*
X110639456Y-97028500I-267544J0D01*
G01*
G37*
%TD*%
%TO.C,C2*%
G36*
G01*
X107845456Y-97065000D02*
X106530544Y-97065000D01*
G75*
G02*
X106263000Y-96797456I0J267544D01*
G01*
X106263000Y-95807544D01*
G75*
G02*
X106530544Y-95540000I267544J0D01*
G01*
X107845456Y-95540000D01*
G75*
G02*
X108113000Y-95807544I0J-267544D01*
G01*
X108113000Y-96797456D01*
G75*
G02*
X107845456Y-97065000I-267544J0D01*
G01*
G37*
G36*
G01*
X107845456Y-100040000D02*
X106530544Y-100040000D01*
G75*
G02*
X106263000Y-99772456I0J267544D01*
G01*
X106263000Y-98782544D01*
G75*
G02*
X106530544Y-98515000I267544J0D01*
G01*
X107845456Y-98515000D01*
G75*
G02*
X108113000Y-98782544I0J-267544D01*
G01*
X108113000Y-99772456D01*
G75*
G02*
X107845456Y-100040000I-267544J0D01*
G01*
G37*
%TD*%
D10*
%TO.C,DS1_LSB1*%
X88392000Y-75438000D03*
X90932000Y-75438000D03*
X93472000Y-75438000D03*
X96012000Y-75438000D03*
X98552000Y-75438000D03*
X98552000Y-90678000D03*
X96012000Y-90678000D03*
X93472000Y-90678000D03*
X90932000Y-90678000D03*
X88392000Y-90678000D03*
%TD*%
%TO.C,DS2_MSB1*%
X101092000Y-90678000D03*
X103632000Y-90678000D03*
X106172000Y-90678000D03*
X108712000Y-90678000D03*
X111252000Y-90678000D03*
X111252000Y-75438000D03*
X108712000Y-75438000D03*
X106172000Y-75438000D03*
X103632000Y-75438000D03*
X101092000Y-75438000D03*
%TD*%
D11*
%TO.C,J1*%
X113284000Y-99060000D03*
D12*
X113284000Y-96520000D03*
%TD*%
%TO.C,J2*%
X87884000Y-96520000D03*
D11*
X87884000Y-99060000D03*
%TD*%
D12*
%TO.C,J3*%
X91694000Y-96520000D03*
D11*
X91694000Y-99060000D03*
%TD*%
D13*
%TO.C,RN1*%
X98544000Y-87503000D03*
X98544000Y-86233000D03*
X98544000Y-84963000D03*
X98544000Y-83693000D03*
X98544000Y-82423000D03*
X98544000Y-81153000D03*
X98544000Y-79883000D03*
X98544000Y-78613000D03*
X91448000Y-78613000D03*
X91448000Y-79883000D03*
X91448000Y-81153000D03*
X91448000Y-82423000D03*
X91448000Y-83693000D03*
X91448000Y-84963000D03*
X91448000Y-86233000D03*
X91448000Y-87503000D03*
%TD*%
%TO.C,RN2*%
X108196000Y-78613000D03*
X108196000Y-79883000D03*
X108196000Y-81153000D03*
X108196000Y-82423000D03*
X108196000Y-83693000D03*
X108196000Y-84963000D03*
X108196000Y-86233000D03*
X108196000Y-87503000D03*
X101100000Y-87503000D03*
X101100000Y-86233000D03*
X101100000Y-84963000D03*
X101100000Y-83693000D03*
X101100000Y-82423000D03*
X101100000Y-81153000D03*
X101100000Y-79883000D03*
X101100000Y-78613000D03*
%TD*%
D14*
%TO.C,U1*%
X96012000Y-101600000D03*
D15*
X103632000Y-93980000D03*
X98552000Y-101600000D03*
X101092000Y-93980000D03*
X101092000Y-101600000D03*
X98552000Y-93980000D03*
X103632000Y-101600000D03*
X96012000Y-93980000D03*
%TD*%
D16*
%TO.C,U2*%
X88818000Y-87503000D03*
X88818000Y-86233000D03*
X88818000Y-84963000D03*
X88818000Y-83693000D03*
X88818000Y-82423000D03*
X88818000Y-81153000D03*
X88818000Y-79883000D03*
X88818000Y-78613000D03*
X83394000Y-78613000D03*
X83394000Y-79883000D03*
X83394000Y-81153000D03*
X83394000Y-82423000D03*
X83394000Y-83693000D03*
X83394000Y-84963000D03*
X83394000Y-86233000D03*
X83394000Y-87503000D03*
%TD*%
%TO.C,U3*%
X116250000Y-78613000D03*
X116250000Y-79883000D03*
X116250000Y-81153000D03*
X116250000Y-82423000D03*
X116250000Y-83693000D03*
X116250000Y-84963000D03*
X116250000Y-86233000D03*
X116250000Y-87503000D03*
X110826000Y-87503000D03*
X110826000Y-86233000D03*
X110826000Y-84963000D03*
X110826000Y-83693000D03*
X110826000Y-82423000D03*
X110826000Y-81153000D03*
X110826000Y-79883000D03*
X110826000Y-78613000D03*
%TD*%
M02*
