%TF.GenerationSoftware,KiCad,Pcbnew,(5.1.6)-1*%
%TF.CreationDate,2021-03-31T10:32:31-04:00*%
%TF.ProjectId,Turbo-Display-V2,54757262-6f2d-4446-9973-706c61792d56,rev?*%
%TF.SameCoordinates,Original*%
%TF.FileFunction,Paste,Top*%
%TF.FilePolarity,Positive*%
%FSLAX46Y46*%
G04 Gerber Fmt 4.6, Leading zero omitted, Abs format (unit mm)*
G04 Created by KiCad (PCBNEW (5.1.6)-1) date 2021-03-31 10:32:31*
%MOMM*%
%LPD*%
G01*
G04 APERTURE LIST*
%ADD10R,1.505000X0.700000*%
%ADD11R,1.525000X0.650000*%
G04 APERTURE END LIST*
%TO.C,C1*%
G36*
G01*
X110607000Y-99953500D02*
X109357000Y-99953500D01*
G75*
G02*
X109107000Y-99703500I0J250000D01*
G01*
X109107000Y-98778500D01*
G75*
G02*
X109357000Y-98528500I250000J0D01*
G01*
X110607000Y-98528500D01*
G75*
G02*
X110857000Y-98778500I0J-250000D01*
G01*
X110857000Y-99703500D01*
G75*
G02*
X110607000Y-99953500I-250000J0D01*
G01*
G37*
G36*
G01*
X110607000Y-96978500D02*
X109357000Y-96978500D01*
G75*
G02*
X109107000Y-96728500I0J250000D01*
G01*
X109107000Y-95803500D01*
G75*
G02*
X109357000Y-95553500I250000J0D01*
G01*
X110607000Y-95553500D01*
G75*
G02*
X110857000Y-95803500I0J-250000D01*
G01*
X110857000Y-96728500D01*
G75*
G02*
X110607000Y-96978500I-250000J0D01*
G01*
G37*
%TD*%
%TO.C,C2*%
G36*
G01*
X107813000Y-97015000D02*
X106563000Y-97015000D01*
G75*
G02*
X106313000Y-96765000I0J250000D01*
G01*
X106313000Y-95840000D01*
G75*
G02*
X106563000Y-95590000I250000J0D01*
G01*
X107813000Y-95590000D01*
G75*
G02*
X108063000Y-95840000I0J-250000D01*
G01*
X108063000Y-96765000D01*
G75*
G02*
X107813000Y-97015000I-250000J0D01*
G01*
G37*
G36*
G01*
X107813000Y-99990000D02*
X106563000Y-99990000D01*
G75*
G02*
X106313000Y-99740000I0J250000D01*
G01*
X106313000Y-98815000D01*
G75*
G02*
X106563000Y-98565000I250000J0D01*
G01*
X107813000Y-98565000D01*
G75*
G02*
X108063000Y-98815000I0J-250000D01*
G01*
X108063000Y-99740000D01*
G75*
G02*
X107813000Y-99990000I-250000J0D01*
G01*
G37*
%TD*%
D10*
%TO.C,RN1*%
X98544000Y-87503000D03*
X98544000Y-86233000D03*
X98544000Y-84963000D03*
X98544000Y-83693000D03*
X98544000Y-82423000D03*
X98544000Y-81153000D03*
X98544000Y-79883000D03*
X98544000Y-78613000D03*
X91448000Y-78613000D03*
X91448000Y-79883000D03*
X91448000Y-81153000D03*
X91448000Y-82423000D03*
X91448000Y-83693000D03*
X91448000Y-84963000D03*
X91448000Y-86233000D03*
X91448000Y-87503000D03*
%TD*%
%TO.C,RN2*%
X108196000Y-78613000D03*
X108196000Y-79883000D03*
X108196000Y-81153000D03*
X108196000Y-82423000D03*
X108196000Y-83693000D03*
X108196000Y-84963000D03*
X108196000Y-86233000D03*
X108196000Y-87503000D03*
X101100000Y-87503000D03*
X101100000Y-86233000D03*
X101100000Y-84963000D03*
X101100000Y-83693000D03*
X101100000Y-82423000D03*
X101100000Y-81153000D03*
X101100000Y-79883000D03*
X101100000Y-78613000D03*
%TD*%
D11*
%TO.C,U2*%
X88818000Y-87503000D03*
X88818000Y-86233000D03*
X88818000Y-84963000D03*
X88818000Y-83693000D03*
X88818000Y-82423000D03*
X88818000Y-81153000D03*
X88818000Y-79883000D03*
X88818000Y-78613000D03*
X83394000Y-78613000D03*
X83394000Y-79883000D03*
X83394000Y-81153000D03*
X83394000Y-82423000D03*
X83394000Y-83693000D03*
X83394000Y-84963000D03*
X83394000Y-86233000D03*
X83394000Y-87503000D03*
%TD*%
%TO.C,U3*%
X116250000Y-78613000D03*
X116250000Y-79883000D03*
X116250000Y-81153000D03*
X116250000Y-82423000D03*
X116250000Y-83693000D03*
X116250000Y-84963000D03*
X116250000Y-86233000D03*
X116250000Y-87503000D03*
X110826000Y-87503000D03*
X110826000Y-86233000D03*
X110826000Y-84963000D03*
X110826000Y-83693000D03*
X110826000Y-82423000D03*
X110826000Y-81153000D03*
X110826000Y-79883000D03*
X110826000Y-78613000D03*
%TD*%
M02*
