%TF.GenerationSoftware,KiCad,Pcbnew,(5.1.6)-1*%
%TF.CreationDate,2021-03-31T10:32:31-04:00*%
%TF.ProjectId,Turbo-Display-V2,54757262-6f2d-4446-9973-706c61792d56,rev?*%
%TF.SameCoordinates,Original*%
%TF.FileFunction,Copper,L2,Bot*%
%TF.FilePolarity,Positive*%
%FSLAX46Y46*%
G04 Gerber Fmt 4.6, Leading zero omitted, Abs format (unit mm)*
G04 Created by KiCad (PCBNEW (5.1.6)-1) date 2021-03-31 10:32:31*
%MOMM*%
%LPD*%
G01*
G04 APERTURE LIST*
%TA.AperFunction,ComponentPad*%
%ADD10C,1.381000*%
%TD*%
%TA.AperFunction,ComponentPad*%
%ADD11O,1.700000X1.700000*%
%TD*%
%TA.AperFunction,ComponentPad*%
%ADD12R,1.700000X1.700000*%
%TD*%
%TA.AperFunction,ComponentPad*%
%ADD13R,1.600000X1.600000*%
%TD*%
%TA.AperFunction,ComponentPad*%
%ADD14O,1.600000X1.600000*%
%TD*%
%TA.AperFunction,ViaPad*%
%ADD15C,0.800000*%
%TD*%
%TA.AperFunction,Conductor*%
%ADD16C,0.250000*%
%TD*%
%TA.AperFunction,Conductor*%
%ADD17C,0.400000*%
%TD*%
%TA.AperFunction,Conductor*%
%ADD18C,0.254000*%
%TD*%
G04 APERTURE END LIST*
%TO.P,C3,1*%
%TO.N,GND*%
%TA.AperFunction,SMDPad,CuDef*%
G36*
G01*
X101542001Y-99390000D02*
X100641999Y-99390000D01*
G75*
G02*
X100392000Y-99140001I0J249999D01*
G01*
X100392000Y-98489999D01*
G75*
G02*
X100641999Y-98240000I249999J0D01*
G01*
X101542001Y-98240000D01*
G75*
G02*
X101792000Y-98489999I0J-249999D01*
G01*
X101792000Y-99140001D01*
G75*
G02*
X101542001Y-99390000I-249999J0D01*
G01*
G37*
%TD.AperFunction*%
%TO.P,C3,2*%
%TO.N,Net-(C3-Pad2)*%
%TA.AperFunction,SMDPad,CuDef*%
G36*
G01*
X101542001Y-97340000D02*
X100641999Y-97340000D01*
G75*
G02*
X100392000Y-97090001I0J249999D01*
G01*
X100392000Y-96439999D01*
G75*
G02*
X100641999Y-96190000I249999J0D01*
G01*
X101542001Y-96190000D01*
G75*
G02*
X101792000Y-96439999I0J-249999D01*
G01*
X101792000Y-97090001D01*
G75*
G02*
X101542001Y-97340000I-249999J0D01*
G01*
G37*
%TD.AperFunction*%
%TD*%
D10*
%TO.P,DS1_LSB1,1*%
%TO.N,Net-(DS1_LSB1-Pad1)*%
X88392000Y-75438000D03*
%TO.P,DS1_LSB1,2*%
%TO.N,Net-(DS1_LSB1-Pad2)*%
X90932000Y-75438000D03*
%TO.P,DS1_LSB1,3*%
%TO.N,+5V*%
X93472000Y-75438000D03*
%TO.P,DS1_LSB1,4*%
%TO.N,Net-(DS1_LSB1-Pad4)*%
X96012000Y-75438000D03*
%TO.P,DS1_LSB1,5*%
%TO.N,Net-(DS1_LSB1-Pad5)*%
X98552000Y-75438000D03*
%TO.P,DS1_LSB1,6*%
%TO.N,Net-(DS1_LSB1-Pad6)*%
X98552000Y-90678000D03*
%TO.P,DS1_LSB1,7*%
%TO.N,Net-(DS1_LSB1-Pad7)*%
X96012000Y-90678000D03*
%TO.P,DS1_LSB1,8*%
%TO.N,+5V*%
X93472000Y-90678000D03*
%TO.P,DS1_LSB1,9*%
%TO.N,Net-(DS1_LSB1-Pad9)*%
X90932000Y-90678000D03*
%TO.P,DS1_LSB1,10*%
%TO.N,Net-(DS1_LSB1-Pad10)*%
X88392000Y-90678000D03*
%TD*%
%TO.P,DS2_MSB1,10*%
%TO.N,Net-(DS2_MSB1-Pad10)*%
X101092000Y-90678000D03*
%TO.P,DS2_MSB1,9*%
%TO.N,Net-(DS2_MSB1-Pad9)*%
X103632000Y-90678000D03*
%TO.P,DS2_MSB1,8*%
%TO.N,+5V*%
X106172000Y-90678000D03*
%TO.P,DS2_MSB1,7*%
%TO.N,Net-(DS2_MSB1-Pad7)*%
X108712000Y-90678000D03*
%TO.P,DS2_MSB1,6*%
%TO.N,Net-(DS2_MSB1-Pad6)*%
X111252000Y-90678000D03*
%TO.P,DS2_MSB1,5*%
%TO.N,Net-(DS2_MSB1-Pad5)*%
X111252000Y-75438000D03*
%TO.P,DS2_MSB1,4*%
%TO.N,Net-(DS2_MSB1-Pad4)*%
X108712000Y-75438000D03*
%TO.P,DS2_MSB1,3*%
%TO.N,+5V*%
X106172000Y-75438000D03*
%TO.P,DS2_MSB1,2*%
%TO.N,Net-(DS2_MSB1-Pad2)*%
X103632000Y-75438000D03*
%TO.P,DS2_MSB1,1*%
%TO.N,Net-(DS2_MSB1-Pad1)*%
X101092000Y-75438000D03*
%TD*%
D11*
%TO.P,J1,2*%
%TO.N,+5V*%
X113284000Y-99060000D03*
D12*
%TO.P,J1,1*%
%TO.N,GND*%
X113284000Y-96520000D03*
%TD*%
%TO.P,J2,1*%
%TO.N,GND*%
X87884000Y-96520000D03*
D11*
%TO.P,J2,2*%
%TO.N,Net-(J2-Pad2)*%
X87884000Y-99060000D03*
%TD*%
D12*
%TO.P,J3,1*%
%TO.N,GND*%
X91694000Y-96520000D03*
D11*
%TO.P,J3,2*%
%TO.N,Net-(J3-Pad2)*%
X91694000Y-99060000D03*
%TD*%
%TO.P,R1,1*%
%TO.N,Net-(J2-Pad2)*%
%TA.AperFunction,SMDPad,CuDef*%
G36*
G01*
X103181999Y-96190000D02*
X104082001Y-96190000D01*
G75*
G02*
X104332000Y-96439999I0J-249999D01*
G01*
X104332000Y-97090001D01*
G75*
G02*
X104082001Y-97340000I-249999J0D01*
G01*
X103181999Y-97340000D01*
G75*
G02*
X102932000Y-97090001I0J249999D01*
G01*
X102932000Y-96439999D01*
G75*
G02*
X103181999Y-96190000I249999J0D01*
G01*
G37*
%TD.AperFunction*%
%TO.P,R1,2*%
%TO.N,GND*%
%TA.AperFunction,SMDPad,CuDef*%
G36*
G01*
X103181999Y-98240000D02*
X104082001Y-98240000D01*
G75*
G02*
X104332000Y-98489999I0J-249999D01*
G01*
X104332000Y-99140001D01*
G75*
G02*
X104082001Y-99390000I-249999J0D01*
G01*
X103181999Y-99390000D01*
G75*
G02*
X102932000Y-99140001I0J249999D01*
G01*
X102932000Y-98489999D01*
G75*
G02*
X103181999Y-98240000I249999J0D01*
G01*
G37*
%TD.AperFunction*%
%TD*%
%TO.P,R2,2*%
%TO.N,Net-(R2-Pad2)*%
%TA.AperFunction,SMDPad,CuDef*%
G36*
G01*
X99002001Y-97340000D02*
X98101999Y-97340000D01*
G75*
G02*
X97852000Y-97090001I0J249999D01*
G01*
X97852000Y-96439999D01*
G75*
G02*
X98101999Y-96190000I249999J0D01*
G01*
X99002001Y-96190000D01*
G75*
G02*
X99252000Y-96439999I0J-249999D01*
G01*
X99252000Y-97090001D01*
G75*
G02*
X99002001Y-97340000I-249999J0D01*
G01*
G37*
%TD.AperFunction*%
%TO.P,R2,1*%
%TO.N,Net-(J3-Pad2)*%
%TA.AperFunction,SMDPad,CuDef*%
G36*
G01*
X99002001Y-99390000D02*
X98101999Y-99390000D01*
G75*
G02*
X97852000Y-99140001I0J249999D01*
G01*
X97852000Y-98489999D01*
G75*
G02*
X98101999Y-98240000I249999J0D01*
G01*
X99002001Y-98240000D01*
G75*
G02*
X99252000Y-98489999I0J-249999D01*
G01*
X99252000Y-99140001D01*
G75*
G02*
X99002001Y-99390000I-249999J0D01*
G01*
G37*
%TD.AperFunction*%
%TD*%
D13*
%TO.P,U1,1*%
%TO.N,Net-(U1-Pad1)*%
X96012000Y-101600000D03*
D14*
%TO.P,U1,5*%
%TO.N,Net-(J2-Pad2)*%
X103632000Y-93980000D03*
%TO.P,U1,2*%
%TO.N,Net-(U1-Pad2)*%
X98552000Y-101600000D03*
%TO.P,U1,6*%
%TO.N,Net-(C3-Pad2)*%
X101092000Y-93980000D03*
%TO.P,U1,3*%
%TO.N,Net-(U1-Pad3)*%
X101092000Y-101600000D03*
%TO.P,U1,7*%
%TO.N,Net-(R2-Pad2)*%
X98552000Y-93980000D03*
%TO.P,U1,4*%
%TO.N,GND*%
X103632000Y-101600000D03*
%TO.P,U1,8*%
%TO.N,+5V*%
X96012000Y-93980000D03*
%TD*%
D15*
%TO.N,GND*%
X87433800Y-79214800D03*
X85473300Y-83666100D03*
%TO.N,Net-(C3-Pad2)*%
X86200500Y-86676000D03*
%TO.N,Net-(DS1_LSB1-Pad1)*%
X96183900Y-80936500D03*
%TO.N,Net-(DS1_LSB1-Pad2)*%
X92807800Y-82341600D03*
%TO.N,Net-(DS1_LSB1-Pad4)*%
X94101400Y-80695400D03*
%TO.N,Net-(DS1_LSB1-Pad5)*%
X95727700Y-86173900D03*
%TO.N,Net-(DS1_LSB1-Pad6)*%
X94715000Y-81496700D03*
%TO.N,Net-(DS1_LSB1-Pad7)*%
X94803000Y-82639400D03*
%TO.N,Net-(DS1_LSB1-Pad9)*%
X92804200Y-85339800D03*
%TO.N,Net-(DS1_LSB1-Pad10)*%
X92832500Y-86587400D03*
%TO.N,Net-(DS2_MSB1-Pad5)*%
X106830300Y-78907300D03*
%TO.N,Net-(DS2_MSB1-Pad4)*%
X106792600Y-83730400D03*
%TO.N,Net-(DS2_MSB1-Pad2)*%
X106822300Y-82730000D03*
%TO.N,Net-(DS2_MSB1-Pad1)*%
X105802600Y-83028200D03*
%TO.N,Net-(RN1-Pad4)*%
X93260800Y-83928100D03*
X87444000Y-84639000D03*
%TO.N,Net-(RN1-Pad5)*%
X97050200Y-82535500D03*
X87348900Y-83531000D03*
%TO.N,Net-(RN1-Pad6)*%
X93458400Y-78324000D03*
X87437300Y-82423000D03*
%TO.N,Net-(RN2-Pad7)*%
X103879900Y-86765200D03*
X112151100Y-85620900D03*
%TO.N,Net-(RN2-Pad6)*%
X103922700Y-85311800D03*
X112193100Y-83693000D03*
%TO.N,Net-(RN2-Pad5)*%
X103726400Y-83457200D03*
X112223200Y-82423000D03*
%TO.N,Net-(RN2-Pad4)*%
X102930700Y-82198200D03*
X112194600Y-81192000D03*
%TD*%
D16*
%TO.N,+5V*%
X93472000Y-75438000D02*
X94230400Y-76196400D01*
X94230400Y-76196400D02*
X94230400Y-78759400D01*
X94230400Y-78759400D02*
X93376000Y-79613800D01*
X93376000Y-79613800D02*
X93376000Y-81247000D01*
X93376000Y-81247000D02*
X93987300Y-81858300D01*
X93987300Y-90517000D02*
X93830800Y-90673500D01*
X93826300Y-90678000D02*
X93830800Y-90673500D01*
D17*
X113284000Y-99060000D02*
X111506000Y-97282000D01*
X111506000Y-96012000D02*
X106172000Y-90678000D01*
X111506000Y-97282000D02*
X111506000Y-96012000D01*
X104528410Y-92321590D02*
X106172000Y-90678000D01*
X97670410Y-92321590D02*
X104528410Y-92321590D01*
X96012000Y-93980000D02*
X97670410Y-92321590D01*
X93472000Y-90678000D02*
X93472000Y-91694000D01*
X95758000Y-93980000D02*
X96012000Y-93980000D01*
X93472000Y-91694000D02*
X95758000Y-93980000D01*
D16*
X93985801Y-90164199D02*
X93472000Y-90678000D01*
X93987300Y-83812700D02*
X93985801Y-83814199D01*
X93985801Y-83814199D02*
X93985801Y-90164199D01*
X93987300Y-81858300D02*
X93987300Y-83812700D01*
%TO.N,GND*%
X85473300Y-83666100D02*
X85473300Y-81175300D01*
X85473300Y-81175300D02*
X87433800Y-79214800D01*
X87884000Y-96520000D02*
X87884000Y-95344700D01*
X87884000Y-95344700D02*
X85473300Y-92934000D01*
X85473300Y-92934000D02*
X85473300Y-83666100D01*
X103632000Y-98815000D02*
X101092000Y-98815000D01*
X103632000Y-101600000D02*
X103632000Y-98815000D01*
%TO.N,Net-(C3-Pad2)*%
X100529400Y-93980000D02*
X101092000Y-94542600D01*
X101092000Y-94542600D02*
X101092000Y-96765000D01*
X101092000Y-93980000D02*
X100529400Y-93980000D01*
X97282000Y-93641800D02*
X98077200Y-92846600D01*
X86200500Y-89936500D02*
X91397500Y-95133500D01*
X98077200Y-92846600D02*
X99958600Y-92846600D01*
X86200500Y-86676000D02*
X86200500Y-89936500D01*
X96450300Y-95133500D02*
X97282000Y-94301800D01*
X91397500Y-95133500D02*
X96450300Y-95133500D01*
X99958600Y-92846600D02*
X101092000Y-93980000D01*
X97282000Y-94301800D02*
X97282000Y-93641800D01*
%TO.N,Net-(DS1_LSB1-Pad1)*%
X96183900Y-80936500D02*
X97492600Y-79627800D01*
X97492600Y-79627800D02*
X97492600Y-74781300D01*
X97492600Y-74781300D02*
X96657200Y-73945900D01*
X96657200Y-73945900D02*
X89884100Y-73945900D01*
X89884100Y-73945900D02*
X88392000Y-75438000D01*
%TO.N,Net-(DS1_LSB1-Pad2)*%
X90932000Y-75438000D02*
X90932000Y-80465800D01*
X90932000Y-80465800D02*
X92807800Y-82341600D01*
%TO.N,Net-(DS1_LSB1-Pad4)*%
X96012000Y-75438000D02*
X96012000Y-78784800D01*
X96012000Y-78784800D02*
X94101400Y-80695400D01*
%TO.N,Net-(DS1_LSB1-Pad5)*%
X95727700Y-86173900D02*
X98552000Y-83349600D01*
X98552000Y-83349600D02*
X98552000Y-75438000D01*
%TO.N,Net-(DS1_LSB1-Pad6)*%
X98552000Y-90678000D02*
X95002300Y-87128300D01*
X95002300Y-87128300D02*
X95002300Y-84486200D01*
X95002300Y-84486200D02*
X95528300Y-83960200D01*
X95528300Y-83960200D02*
X95528300Y-82310000D01*
X95528300Y-82310000D02*
X94715000Y-81496700D01*
%TO.N,Net-(DS1_LSB1-Pad7)*%
X96012000Y-90678000D02*
X94551900Y-89217900D01*
X94551900Y-89217900D02*
X94551900Y-82890500D01*
X94551900Y-82890500D02*
X94803000Y-82639400D01*
%TO.N,Net-(DS1_LSB1-Pad9)*%
X92804200Y-85339800D02*
X90932000Y-87212000D01*
X90932000Y-87212000D02*
X90932000Y-90678000D01*
%TO.N,Net-(DS1_LSB1-Pad10)*%
X88392000Y-90678000D02*
X89459200Y-91745200D01*
X89459200Y-91745200D02*
X91309300Y-91745200D01*
X91309300Y-91745200D02*
X92206500Y-90848000D01*
X92206500Y-90848000D02*
X92206500Y-87213400D01*
X92206500Y-87213400D02*
X92832500Y-86587400D01*
%TO.N,Net-(DS2_MSB1-Pad5)*%
X106830300Y-78907300D02*
X107187900Y-78549700D01*
X107187900Y-78549700D02*
X107187900Y-75465600D01*
X107187900Y-75465600D02*
X108231400Y-74422100D01*
X108231400Y-74422100D02*
X110236100Y-74422100D01*
X110236100Y-74422100D02*
X111252000Y-75438000D01*
%TO.N,Net-(DS2_MSB1-Pad4)*%
X108712000Y-75438000D02*
X108712000Y-81911000D01*
X108712000Y-81911000D02*
X106892600Y-83730400D01*
X106892600Y-83730400D02*
X106792600Y-83730400D01*
%TO.N,Net-(DS2_MSB1-Pad2)*%
X103632000Y-75438000D02*
X103632000Y-79539700D01*
X103632000Y-79539700D02*
X106822300Y-82730000D01*
%TO.N,Net-(DS2_MSB1-Pad1)*%
X105802600Y-83028200D02*
X101092000Y-78317600D01*
X101092000Y-78317600D02*
X101092000Y-75438000D01*
%TO.N,Net-(J2-Pad2)*%
X87884000Y-99060000D02*
X89059300Y-99060000D01*
X89059300Y-99060000D02*
X90234600Y-97884700D01*
X90234600Y-97884700D02*
X102512300Y-97884700D01*
X102512300Y-97884700D02*
X103632000Y-96765000D01*
X103632000Y-93980000D02*
X103632000Y-96765000D01*
%TO.N,Net-(J3-Pad2)*%
X91694000Y-99060000D02*
X92869300Y-99060000D01*
X98552000Y-98815000D02*
X93114300Y-98815000D01*
X93114300Y-98815000D02*
X92869300Y-99060000D01*
%TO.N,Net-(R2-Pad2)*%
X98552000Y-93980000D02*
X98552000Y-96765000D01*
%TO.N,Net-(RN1-Pad4)*%
X93260800Y-83928100D02*
X88154900Y-83928100D01*
X88154900Y-83928100D02*
X87444000Y-84639000D01*
%TO.N,Net-(RN1-Pad5)*%
X87348900Y-83531000D02*
X86709700Y-82891800D01*
X86709700Y-82891800D02*
X86709700Y-82041400D01*
X86709700Y-82041400D02*
X89821200Y-78929900D01*
X89821200Y-78929900D02*
X89821200Y-75104600D01*
X89821200Y-75104600D02*
X90529600Y-74396200D01*
X90529600Y-74396200D02*
X96470600Y-74396200D01*
X96470600Y-74396200D02*
X97042300Y-74967900D01*
X97042300Y-74967900D02*
X97042300Y-78780400D01*
X97042300Y-78780400D02*
X95458500Y-80364200D01*
X95458500Y-80364200D02*
X95458500Y-81273600D01*
X95458500Y-81273600D02*
X96720400Y-82535500D01*
X96720400Y-82535500D02*
X97050200Y-82535500D01*
%TO.N,Net-(RN1-Pad6)*%
X93458400Y-78324000D02*
X92852300Y-78930100D01*
X92852300Y-78930100D02*
X92852300Y-81360200D01*
X92852300Y-81360200D02*
X93536900Y-82044800D01*
X93536900Y-82044800D02*
X93536900Y-82691600D01*
X93536900Y-82691600D02*
X93161500Y-83067000D01*
X93161500Y-83067000D02*
X88081300Y-83067000D01*
X88081300Y-83067000D02*
X87437300Y-82423000D01*
%TO.N,Net-(RN2-Pad7)*%
X103879900Y-86765200D02*
X111006800Y-86765200D01*
X111006800Y-86765200D02*
X112151100Y-85620900D01*
%TO.N,Net-(RN2-Pad6)*%
X103922700Y-85311800D02*
X103967600Y-85356700D01*
X103967600Y-85356700D02*
X110529400Y-85356700D01*
X110529400Y-85356700D02*
X112193100Y-83693000D01*
%TO.N,Net-(RN2-Pad5)*%
X112223200Y-82423000D02*
X109739900Y-84906300D01*
X109739900Y-84906300D02*
X105175500Y-84906300D01*
X105175500Y-84906300D02*
X103726400Y-83457200D01*
%TO.N,Net-(RN2-Pad4)*%
X102930700Y-82198200D02*
X103888000Y-82198200D01*
X103888000Y-82198200D02*
X106145600Y-84455800D01*
X106145600Y-84455800D02*
X108930800Y-84455800D01*
X108930800Y-84455800D02*
X112194600Y-81192000D01*
%TD*%
D18*
%TO.N,GND*%
G36*
X88622765Y-74132434D02*
G01*
X88522550Y-74112500D01*
X88261450Y-74112500D01*
X88005366Y-74163438D01*
X87764140Y-74263357D01*
X87547043Y-74408417D01*
X87362417Y-74593043D01*
X87217357Y-74810140D01*
X87117438Y-75051366D01*
X87066500Y-75307450D01*
X87066500Y-75568550D01*
X87117438Y-75824634D01*
X87217357Y-76065860D01*
X87362417Y-76282957D01*
X87547043Y-76467583D01*
X87764140Y-76612643D01*
X88005366Y-76712562D01*
X88261450Y-76763500D01*
X88522550Y-76763500D01*
X88778634Y-76712562D01*
X89019860Y-76612643D01*
X89061201Y-76585020D01*
X89061200Y-78615097D01*
X86198698Y-81477601D01*
X86169700Y-81501399D01*
X86145902Y-81530397D01*
X86145901Y-81530398D01*
X86074726Y-81617124D01*
X86004154Y-81749154D01*
X85979645Y-81829954D01*
X85960698Y-81892414D01*
X85949700Y-82004067D01*
X85949700Y-82004078D01*
X85946024Y-82041400D01*
X85949700Y-82078722D01*
X85949700Y-82854478D01*
X85946024Y-82891800D01*
X85949700Y-82929122D01*
X85949700Y-82929132D01*
X85960697Y-83040785D01*
X85994736Y-83152999D01*
X86004154Y-83184046D01*
X86074726Y-83316076D01*
X86102240Y-83349601D01*
X86169699Y-83431801D01*
X86198702Y-83455603D01*
X86313900Y-83570801D01*
X86313900Y-83632939D01*
X86353674Y-83832898D01*
X86431695Y-84021256D01*
X86523000Y-84157905D01*
X86448774Y-84337102D01*
X86409000Y-84537061D01*
X86409000Y-84740939D01*
X86448774Y-84940898D01*
X86526795Y-85129256D01*
X86640063Y-85298774D01*
X86784226Y-85442937D01*
X86953744Y-85556205D01*
X87142102Y-85634226D01*
X87342061Y-85674000D01*
X87545939Y-85674000D01*
X87745898Y-85634226D01*
X87934256Y-85556205D01*
X88103774Y-85442937D01*
X88247937Y-85298774D01*
X88361205Y-85129256D01*
X88439226Y-84940898D01*
X88479000Y-84740939D01*
X88479000Y-84688100D01*
X91994868Y-84688100D01*
X91886995Y-84849544D01*
X91808974Y-85037902D01*
X91769200Y-85237861D01*
X91769200Y-85299998D01*
X90421003Y-86648196D01*
X90391999Y-86671999D01*
X90339158Y-86736386D01*
X90297026Y-86787724D01*
X90296278Y-86789124D01*
X90226454Y-86919754D01*
X90182997Y-87063015D01*
X90172000Y-87174668D01*
X90172000Y-87174678D01*
X90168324Y-87212000D01*
X90172000Y-87249323D01*
X90172001Y-89591650D01*
X90087043Y-89648417D01*
X89902417Y-89833043D01*
X89757357Y-90050140D01*
X89662000Y-90280352D01*
X89566643Y-90050140D01*
X89421583Y-89833043D01*
X89236957Y-89648417D01*
X89019860Y-89503357D01*
X88778634Y-89403438D01*
X88522550Y-89352500D01*
X88261450Y-89352500D01*
X88005366Y-89403438D01*
X87764140Y-89503357D01*
X87547043Y-89648417D01*
X87362417Y-89833043D01*
X87286084Y-89947283D01*
X86960500Y-89621699D01*
X86960500Y-87379711D01*
X87004437Y-87335774D01*
X87117705Y-87166256D01*
X87195726Y-86977898D01*
X87235500Y-86777939D01*
X87235500Y-86574061D01*
X87195726Y-86374102D01*
X87117705Y-86185744D01*
X87004437Y-86016226D01*
X86860274Y-85872063D01*
X86690756Y-85758795D01*
X86502398Y-85680774D01*
X86302439Y-85641000D01*
X86098561Y-85641000D01*
X85898602Y-85680774D01*
X85710244Y-85758795D01*
X85540726Y-85872063D01*
X85396563Y-86016226D01*
X85283295Y-86185744D01*
X85205274Y-86374102D01*
X85165500Y-86574061D01*
X85165500Y-86777939D01*
X85205274Y-86977898D01*
X85283295Y-87166256D01*
X85396563Y-87335774D01*
X85440500Y-87379711D01*
X85440501Y-89899168D01*
X85436824Y-89936500D01*
X85440501Y-89973833D01*
X85451498Y-90085486D01*
X85464680Y-90128942D01*
X85494954Y-90228746D01*
X85565526Y-90360776D01*
X85636701Y-90447502D01*
X85660500Y-90476501D01*
X85689498Y-90500299D01*
X90401162Y-95211964D01*
X90392815Y-95218815D01*
X90313463Y-95315506D01*
X90254498Y-95425820D01*
X90218188Y-95545518D01*
X90205928Y-95670000D01*
X90209000Y-96234250D01*
X90367750Y-96393000D01*
X91567000Y-96393000D01*
X91567000Y-96373000D01*
X91821000Y-96373000D01*
X91821000Y-96393000D01*
X93020250Y-96393000D01*
X93179000Y-96234250D01*
X93180855Y-95893500D01*
X96412978Y-95893500D01*
X96450300Y-95897176D01*
X96487622Y-95893500D01*
X96487633Y-95893500D01*
X96599286Y-95882503D01*
X96742547Y-95839046D01*
X96874576Y-95768474D01*
X96990301Y-95673501D01*
X97014103Y-95644498D01*
X97600603Y-95057999D01*
X97637241Y-95094637D01*
X97792000Y-95198044D01*
X97792001Y-95610473D01*
X97762149Y-95619528D01*
X97608613Y-95701595D01*
X97474038Y-95812038D01*
X97363595Y-95946613D01*
X97281528Y-96100149D01*
X97230992Y-96266745D01*
X97213928Y-96439999D01*
X97213928Y-97090001D01*
X97217346Y-97124700D01*
X93180736Y-97124700D01*
X93179000Y-96805750D01*
X93020250Y-96647000D01*
X91821000Y-96647000D01*
X91821000Y-96667000D01*
X91567000Y-96667000D01*
X91567000Y-96647000D01*
X90367750Y-96647000D01*
X90209000Y-96805750D01*
X90207269Y-97123716D01*
X90197276Y-97124700D01*
X90197267Y-97124700D01*
X90085614Y-97135697D01*
X89942353Y-97179154D01*
X89810324Y-97249726D01*
X89694599Y-97344699D01*
X89670801Y-97373697D01*
X88984303Y-98060196D01*
X88905620Y-97981513D01*
X88978180Y-97959502D01*
X89088494Y-97900537D01*
X89185185Y-97821185D01*
X89264537Y-97724494D01*
X89323502Y-97614180D01*
X89359812Y-97494482D01*
X89372072Y-97370000D01*
X89369000Y-96805750D01*
X89210250Y-96647000D01*
X88011000Y-96647000D01*
X88011000Y-96667000D01*
X87757000Y-96667000D01*
X87757000Y-96647000D01*
X86557750Y-96647000D01*
X86399000Y-96805750D01*
X86395928Y-97370000D01*
X86408188Y-97494482D01*
X86444498Y-97614180D01*
X86503463Y-97724494D01*
X86582815Y-97821185D01*
X86679506Y-97900537D01*
X86789820Y-97959502D01*
X86862380Y-97981513D01*
X86730525Y-98113368D01*
X86568010Y-98356589D01*
X86456068Y-98626842D01*
X86399000Y-98913740D01*
X86399000Y-99206260D01*
X86456068Y-99493158D01*
X86568010Y-99763411D01*
X86730525Y-100006632D01*
X86937368Y-100213475D01*
X87180589Y-100375990D01*
X87450842Y-100487932D01*
X87737740Y-100545000D01*
X88030260Y-100545000D01*
X88317158Y-100487932D01*
X88587411Y-100375990D01*
X88830632Y-100213475D01*
X89037475Y-100006632D01*
X89166796Y-99813089D01*
X89208286Y-99809003D01*
X89351547Y-99765546D01*
X89483576Y-99694974D01*
X89599301Y-99600001D01*
X89623104Y-99570997D01*
X90209000Y-98985102D01*
X90209000Y-99206260D01*
X90266068Y-99493158D01*
X90378010Y-99763411D01*
X90540525Y-100006632D01*
X90747368Y-100213475D01*
X90990589Y-100375990D01*
X91260842Y-100487932D01*
X91547740Y-100545000D01*
X91840260Y-100545000D01*
X92127158Y-100487932D01*
X92397411Y-100375990D01*
X92640632Y-100213475D01*
X92847475Y-100006632D01*
X92976796Y-99813089D01*
X93018286Y-99809003D01*
X93161547Y-99765546D01*
X93293576Y-99694974D01*
X93409301Y-99600001D01*
X93429819Y-99575000D01*
X97332386Y-99575000D01*
X97363595Y-99633387D01*
X97474038Y-99767962D01*
X97608613Y-99878405D01*
X97762149Y-99960472D01*
X97928745Y-100011008D01*
X98101999Y-100028072D01*
X99002001Y-100028072D01*
X99175255Y-100011008D01*
X99341851Y-99960472D01*
X99495387Y-99878405D01*
X99629962Y-99767962D01*
X99740405Y-99633387D01*
X99779864Y-99559565D01*
X99802498Y-99634180D01*
X99861463Y-99744494D01*
X99940815Y-99841185D01*
X100037506Y-99920537D01*
X100147820Y-99979502D01*
X100267518Y-100015812D01*
X100392000Y-100028072D01*
X100806250Y-100025000D01*
X100965000Y-99866250D01*
X100965000Y-98942000D01*
X101219000Y-98942000D01*
X101219000Y-99866250D01*
X101377750Y-100025000D01*
X101792000Y-100028072D01*
X101916482Y-100015812D01*
X102036180Y-99979502D01*
X102146494Y-99920537D01*
X102243185Y-99841185D01*
X102322537Y-99744494D01*
X102362000Y-99670665D01*
X102401463Y-99744494D01*
X102480815Y-99841185D01*
X102577506Y-99920537D01*
X102687820Y-99979502D01*
X102807518Y-100015812D01*
X102932000Y-100028072D01*
X103346250Y-100025000D01*
X103505000Y-99866250D01*
X103505000Y-98942000D01*
X103759000Y-98942000D01*
X103759000Y-99866250D01*
X103917750Y-100025000D01*
X104332000Y-100028072D01*
X104456482Y-100015812D01*
X104576180Y-99979502D01*
X104686494Y-99920537D01*
X104783185Y-99841185D01*
X104862537Y-99744494D01*
X104921502Y-99634180D01*
X104957812Y-99514482D01*
X104970072Y-99390000D01*
X104967000Y-99100750D01*
X104808250Y-98942000D01*
X103759000Y-98942000D01*
X103505000Y-98942000D01*
X102455750Y-98942000D01*
X102362000Y-99035750D01*
X102268250Y-98942000D01*
X101219000Y-98942000D01*
X100965000Y-98942000D01*
X100945000Y-98942000D01*
X100945000Y-98688000D01*
X100965000Y-98688000D01*
X100965000Y-98668000D01*
X101219000Y-98668000D01*
X101219000Y-98688000D01*
X102268250Y-98688000D01*
X102311550Y-98644700D01*
X102412450Y-98644700D01*
X102455750Y-98688000D01*
X103505000Y-98688000D01*
X103505000Y-98668000D01*
X103759000Y-98668000D01*
X103759000Y-98688000D01*
X104808250Y-98688000D01*
X104967000Y-98529250D01*
X104970072Y-98240000D01*
X104957812Y-98115518D01*
X104921502Y-97995820D01*
X104862537Y-97885506D01*
X104783185Y-97788815D01*
X104703406Y-97723342D01*
X104709962Y-97717962D01*
X104820405Y-97583387D01*
X104902472Y-97429851D01*
X104953008Y-97263255D01*
X104970072Y-97090001D01*
X104970072Y-96439999D01*
X104953008Y-96266745D01*
X104902472Y-96100149D01*
X104820405Y-95946613D01*
X104709962Y-95812038D01*
X104575387Y-95701595D01*
X104421851Y-95619528D01*
X104392000Y-95610473D01*
X104392000Y-95198043D01*
X104546759Y-95094637D01*
X104746637Y-94894759D01*
X104903680Y-94659727D01*
X105011853Y-94398574D01*
X105067000Y-94121335D01*
X105067000Y-93838665D01*
X105011853Y-93561426D01*
X104903680Y-93300273D01*
X104781484Y-93117393D01*
X104849497Y-93096762D01*
X104994556Y-93019226D01*
X105121701Y-92914881D01*
X105147856Y-92883011D01*
X106029704Y-92001164D01*
X106041450Y-92003500D01*
X106302550Y-92003500D01*
X106314296Y-92001164D01*
X110671001Y-96357869D01*
X110671000Y-97240981D01*
X110666960Y-97282000D01*
X110671000Y-97323018D01*
X110683082Y-97445688D01*
X110730828Y-97603086D01*
X110808364Y-97748145D01*
X110912709Y-97875291D01*
X110944579Y-97901446D01*
X111825193Y-98782061D01*
X111799000Y-98913740D01*
X111799000Y-99206260D01*
X111856068Y-99493158D01*
X111968010Y-99763411D01*
X112130525Y-100006632D01*
X112337368Y-100213475D01*
X112580589Y-100375990D01*
X112850842Y-100487932D01*
X113137740Y-100545000D01*
X113430260Y-100545000D01*
X113717158Y-100487932D01*
X113987411Y-100375990D01*
X114230632Y-100213475D01*
X114437475Y-100006632D01*
X114599990Y-99763411D01*
X114711932Y-99493158D01*
X114769000Y-99206260D01*
X114769000Y-98913740D01*
X114711932Y-98626842D01*
X114599990Y-98356589D01*
X114437475Y-98113368D01*
X114305620Y-97981513D01*
X114378180Y-97959502D01*
X114488494Y-97900537D01*
X114585185Y-97821185D01*
X114664537Y-97724494D01*
X114723502Y-97614180D01*
X114759812Y-97494482D01*
X114772072Y-97370000D01*
X114769000Y-96805750D01*
X114610250Y-96647000D01*
X113411000Y-96647000D01*
X113411000Y-96667000D01*
X113157000Y-96667000D01*
X113157000Y-96647000D01*
X113137000Y-96647000D01*
X113137000Y-96393000D01*
X113157000Y-96393000D01*
X113157000Y-95193750D01*
X113411000Y-95193750D01*
X113411000Y-96393000D01*
X114610250Y-96393000D01*
X114769000Y-96234250D01*
X114772072Y-95670000D01*
X114759812Y-95545518D01*
X114723502Y-95425820D01*
X114664537Y-95315506D01*
X114585185Y-95218815D01*
X114488494Y-95139463D01*
X114378180Y-95080498D01*
X114258482Y-95044188D01*
X114134000Y-95031928D01*
X113569750Y-95035000D01*
X113411000Y-95193750D01*
X113157000Y-95193750D01*
X112998250Y-95035000D01*
X112434000Y-95031928D01*
X112309518Y-95044188D01*
X112189820Y-95080498D01*
X112079506Y-95139463D01*
X111982815Y-95218815D01*
X111942638Y-95267770D01*
X108678367Y-92003500D01*
X108842550Y-92003500D01*
X109098634Y-91952562D01*
X109339860Y-91852643D01*
X109556957Y-91707583D01*
X109741583Y-91522957D01*
X109886643Y-91305860D01*
X109982000Y-91075648D01*
X110077357Y-91305860D01*
X110222417Y-91522957D01*
X110407043Y-91707583D01*
X110624140Y-91852643D01*
X110865366Y-91952562D01*
X111121450Y-92003500D01*
X111382550Y-92003500D01*
X111638634Y-91952562D01*
X111879860Y-91852643D01*
X112096957Y-91707583D01*
X112281583Y-91522957D01*
X112426643Y-91305860D01*
X112526562Y-91064634D01*
X112577500Y-90808550D01*
X112577500Y-90547450D01*
X112526562Y-90291366D01*
X112426643Y-90050140D01*
X112281583Y-89833043D01*
X112096957Y-89648417D01*
X111879860Y-89503357D01*
X111638634Y-89403438D01*
X111382550Y-89352500D01*
X111121450Y-89352500D01*
X110865366Y-89403438D01*
X110624140Y-89503357D01*
X110407043Y-89648417D01*
X110222417Y-89833043D01*
X110077357Y-90050140D01*
X109982000Y-90280352D01*
X109886643Y-90050140D01*
X109741583Y-89833043D01*
X109556957Y-89648417D01*
X109339860Y-89503357D01*
X109098634Y-89403438D01*
X108842550Y-89352500D01*
X108581450Y-89352500D01*
X108325366Y-89403438D01*
X108084140Y-89503357D01*
X107867043Y-89648417D01*
X107682417Y-89833043D01*
X107537357Y-90050140D01*
X107442000Y-90280352D01*
X107346643Y-90050140D01*
X107201583Y-89833043D01*
X107016957Y-89648417D01*
X106799860Y-89503357D01*
X106558634Y-89403438D01*
X106302550Y-89352500D01*
X106041450Y-89352500D01*
X105785366Y-89403438D01*
X105544140Y-89503357D01*
X105327043Y-89648417D01*
X105142417Y-89833043D01*
X104997357Y-90050140D01*
X104902000Y-90280352D01*
X104806643Y-90050140D01*
X104661583Y-89833043D01*
X104476957Y-89648417D01*
X104259860Y-89503357D01*
X104018634Y-89403438D01*
X103762550Y-89352500D01*
X103501450Y-89352500D01*
X103245366Y-89403438D01*
X103004140Y-89503357D01*
X102787043Y-89648417D01*
X102602417Y-89833043D01*
X102457357Y-90050140D01*
X102362000Y-90280352D01*
X102266643Y-90050140D01*
X102121583Y-89833043D01*
X101936957Y-89648417D01*
X101719860Y-89503357D01*
X101478634Y-89403438D01*
X101222550Y-89352500D01*
X100961450Y-89352500D01*
X100705366Y-89403438D01*
X100464140Y-89503357D01*
X100247043Y-89648417D01*
X100062417Y-89833043D01*
X99917357Y-90050140D01*
X99822000Y-90280352D01*
X99726643Y-90050140D01*
X99581583Y-89833043D01*
X99396957Y-89648417D01*
X99179860Y-89503357D01*
X98938634Y-89403438D01*
X98682550Y-89352500D01*
X98421450Y-89352500D01*
X98321236Y-89372434D01*
X96092056Y-87143255D01*
X96217956Y-87091105D01*
X96387474Y-86977837D01*
X96531637Y-86833674D01*
X96644905Y-86664156D01*
X96722926Y-86475798D01*
X96762700Y-86275839D01*
X96762700Y-86213701D01*
X99063004Y-83913398D01*
X99092001Y-83889601D01*
X99186974Y-83773876D01*
X99257546Y-83641847D01*
X99301003Y-83498586D01*
X99312000Y-83386933D01*
X99312000Y-83386924D01*
X99315676Y-83349601D01*
X99312000Y-83312278D01*
X99312000Y-76524350D01*
X99396957Y-76467583D01*
X99581583Y-76282957D01*
X99726643Y-76065860D01*
X99822000Y-75835648D01*
X99917357Y-76065860D01*
X100062417Y-76282957D01*
X100247043Y-76467583D01*
X100332001Y-76524350D01*
X100332000Y-78280277D01*
X100328324Y-78317600D01*
X100332000Y-78354922D01*
X100332000Y-78354932D01*
X100342997Y-78466585D01*
X100379534Y-78587032D01*
X100386454Y-78609846D01*
X100457026Y-78741876D01*
X100471409Y-78759401D01*
X100551999Y-78857601D01*
X100581003Y-78881404D01*
X102862798Y-81163200D01*
X102828761Y-81163200D01*
X102628802Y-81202974D01*
X102440444Y-81280995D01*
X102270926Y-81394263D01*
X102126763Y-81538426D01*
X102013495Y-81707944D01*
X101935474Y-81896302D01*
X101895700Y-82096261D01*
X101895700Y-82300139D01*
X101935474Y-82500098D01*
X102013495Y-82688456D01*
X102126763Y-82857974D01*
X102270926Y-83002137D01*
X102440444Y-83115405D01*
X102628802Y-83193426D01*
X102719983Y-83211563D01*
X102691400Y-83355261D01*
X102691400Y-83559139D01*
X102731174Y-83759098D01*
X102809195Y-83947456D01*
X102922463Y-84116974D01*
X103066626Y-84261137D01*
X103236144Y-84374405D01*
X103375976Y-84432326D01*
X103262926Y-84507863D01*
X103118763Y-84652026D01*
X103005495Y-84821544D01*
X102927474Y-85009902D01*
X102887700Y-85209861D01*
X102887700Y-85413739D01*
X102927474Y-85613698D01*
X103005495Y-85802056D01*
X103118763Y-85971574D01*
X103164289Y-86017100D01*
X103075963Y-86105426D01*
X102962695Y-86274944D01*
X102884674Y-86463302D01*
X102844900Y-86663261D01*
X102844900Y-86867139D01*
X102884674Y-87067098D01*
X102962695Y-87255456D01*
X103075963Y-87424974D01*
X103220126Y-87569137D01*
X103389644Y-87682405D01*
X103578002Y-87760426D01*
X103777961Y-87800200D01*
X103981839Y-87800200D01*
X104181798Y-87760426D01*
X104370156Y-87682405D01*
X104539674Y-87569137D01*
X104583611Y-87525200D01*
X110969478Y-87525200D01*
X111006800Y-87528876D01*
X111044122Y-87525200D01*
X111044133Y-87525200D01*
X111155786Y-87514203D01*
X111299047Y-87470746D01*
X111431076Y-87400174D01*
X111546801Y-87305201D01*
X111570604Y-87276198D01*
X112190902Y-86655900D01*
X112253039Y-86655900D01*
X112452998Y-86616126D01*
X112641356Y-86538105D01*
X112810874Y-86424837D01*
X112955037Y-86280674D01*
X113068305Y-86111156D01*
X113146326Y-85922798D01*
X113186100Y-85722839D01*
X113186100Y-85518961D01*
X113146326Y-85319002D01*
X113068305Y-85130644D01*
X112955037Y-84961126D01*
X112810874Y-84816963D01*
X112641356Y-84703695D01*
X112549504Y-84665649D01*
X112683356Y-84610205D01*
X112852874Y-84496937D01*
X112997037Y-84352774D01*
X113110305Y-84183256D01*
X113188326Y-83994898D01*
X113228100Y-83794939D01*
X113228100Y-83591061D01*
X113188326Y-83391102D01*
X113110305Y-83202744D01*
X113028640Y-83080524D01*
X113140405Y-82913256D01*
X113218426Y-82724898D01*
X113258200Y-82524939D01*
X113258200Y-82321061D01*
X113218426Y-82121102D01*
X113140405Y-81932744D01*
X113042420Y-81786098D01*
X113111805Y-81682256D01*
X113189826Y-81493898D01*
X113229600Y-81293939D01*
X113229600Y-81090061D01*
X113189826Y-80890102D01*
X113111805Y-80701744D01*
X112998537Y-80532226D01*
X112854374Y-80388063D01*
X112684856Y-80274795D01*
X112496498Y-80196774D01*
X112296539Y-80157000D01*
X112092661Y-80157000D01*
X111892702Y-80196774D01*
X111704344Y-80274795D01*
X111534826Y-80388063D01*
X111390663Y-80532226D01*
X111277395Y-80701744D01*
X111199374Y-80890102D01*
X111159600Y-81090061D01*
X111159600Y-81152198D01*
X108615999Y-83695800D01*
X108002001Y-83695800D01*
X109223003Y-82474799D01*
X109252001Y-82451001D01*
X109319769Y-82368426D01*
X109346974Y-82335277D01*
X109417546Y-82203247D01*
X109433532Y-82150546D01*
X109461003Y-82059986D01*
X109472000Y-81948333D01*
X109472000Y-81948324D01*
X109475676Y-81911001D01*
X109472000Y-81873678D01*
X109472000Y-76524350D01*
X109556957Y-76467583D01*
X109741583Y-76282957D01*
X109886643Y-76065860D01*
X109982000Y-75835648D01*
X110077357Y-76065860D01*
X110222417Y-76282957D01*
X110407043Y-76467583D01*
X110624140Y-76612643D01*
X110865366Y-76712562D01*
X111121450Y-76763500D01*
X111382550Y-76763500D01*
X111638634Y-76712562D01*
X111879860Y-76612643D01*
X112096957Y-76467583D01*
X112281583Y-76282957D01*
X112426643Y-76065860D01*
X112526562Y-75824634D01*
X112577500Y-75568550D01*
X112577500Y-75307450D01*
X112526562Y-75051366D01*
X112426643Y-74810140D01*
X112281583Y-74593043D01*
X112096957Y-74408417D01*
X111879860Y-74263357D01*
X111638634Y-74163438D01*
X111382550Y-74112500D01*
X111121450Y-74112500D01*
X111021235Y-74132434D01*
X110799904Y-73911102D01*
X110776101Y-73882099D01*
X110690685Y-73812000D01*
X115555490Y-73812000D01*
X115344187Y-74023303D01*
X115101316Y-74386785D01*
X114934023Y-74790665D01*
X114848738Y-75219422D01*
X114848738Y-75656578D01*
X114934023Y-76085335D01*
X115101316Y-76489215D01*
X115344187Y-76852697D01*
X115653303Y-77161813D01*
X116016785Y-77404684D01*
X116420665Y-77571977D01*
X116849422Y-77657262D01*
X117286578Y-77657262D01*
X117715335Y-77571977D01*
X118119215Y-77404684D01*
X118466000Y-77172969D01*
X118466001Y-98849031D01*
X118119215Y-98617316D01*
X117715335Y-98450023D01*
X117286578Y-98364738D01*
X116849422Y-98364738D01*
X116420665Y-98450023D01*
X116016785Y-98617316D01*
X115653303Y-98860187D01*
X115344187Y-99169303D01*
X115101316Y-99532785D01*
X114934023Y-99936665D01*
X114848738Y-100365422D01*
X114848738Y-100802578D01*
X114934023Y-101231335D01*
X115101316Y-101635215D01*
X115344187Y-101998697D01*
X115653303Y-102307813D01*
X115887053Y-102464000D01*
X104776342Y-102464000D01*
X104784385Y-102455131D01*
X104929070Y-102213881D01*
X105023909Y-101949040D01*
X104902624Y-101727000D01*
X103759000Y-101727000D01*
X103759000Y-101747000D01*
X103505000Y-101747000D01*
X103505000Y-101727000D01*
X103485000Y-101727000D01*
X103485000Y-101473000D01*
X103505000Y-101473000D01*
X103505000Y-100330085D01*
X103759000Y-100330085D01*
X103759000Y-101473000D01*
X104902624Y-101473000D01*
X105023909Y-101250960D01*
X104929070Y-100986119D01*
X104784385Y-100744869D01*
X104595414Y-100536481D01*
X104369420Y-100368963D01*
X104115087Y-100248754D01*
X103981039Y-100208096D01*
X103759000Y-100330085D01*
X103505000Y-100330085D01*
X103282961Y-100208096D01*
X103148913Y-100248754D01*
X102894580Y-100368963D01*
X102668586Y-100536481D01*
X102479615Y-100744869D01*
X102368067Y-100930865D01*
X102363680Y-100920273D01*
X102206637Y-100685241D01*
X102006759Y-100485363D01*
X101771727Y-100328320D01*
X101510574Y-100220147D01*
X101233335Y-100165000D01*
X100950665Y-100165000D01*
X100673426Y-100220147D01*
X100412273Y-100328320D01*
X100177241Y-100485363D01*
X99977363Y-100685241D01*
X99822000Y-100917759D01*
X99666637Y-100685241D01*
X99466759Y-100485363D01*
X99231727Y-100328320D01*
X98970574Y-100220147D01*
X98693335Y-100165000D01*
X98410665Y-100165000D01*
X98133426Y-100220147D01*
X97872273Y-100328320D01*
X97637241Y-100485363D01*
X97438643Y-100683961D01*
X97437812Y-100675518D01*
X97401502Y-100555820D01*
X97342537Y-100445506D01*
X97263185Y-100348815D01*
X97166494Y-100269463D01*
X97056180Y-100210498D01*
X96936482Y-100174188D01*
X96812000Y-100161928D01*
X95212000Y-100161928D01*
X95087518Y-100174188D01*
X94967820Y-100210498D01*
X94857506Y-100269463D01*
X94760815Y-100348815D01*
X94681463Y-100445506D01*
X94622498Y-100555820D01*
X94586188Y-100675518D01*
X94573928Y-100800000D01*
X94573928Y-102400000D01*
X94580231Y-102464000D01*
X83476947Y-102464000D01*
X83710697Y-102307813D01*
X84019813Y-101998697D01*
X84262684Y-101635215D01*
X84429977Y-101231335D01*
X84515262Y-100802578D01*
X84515262Y-100365422D01*
X84429977Y-99936665D01*
X84262684Y-99532785D01*
X84019813Y-99169303D01*
X83710697Y-98860187D01*
X83347215Y-98617316D01*
X82943335Y-98450023D01*
X82514578Y-98364738D01*
X82077422Y-98364738D01*
X81648665Y-98450023D01*
X81244785Y-98617316D01*
X80881303Y-98860187D01*
X80670000Y-99071490D01*
X80670000Y-95670000D01*
X86395928Y-95670000D01*
X86399000Y-96234250D01*
X86557750Y-96393000D01*
X87757000Y-96393000D01*
X87757000Y-95193750D01*
X88011000Y-95193750D01*
X88011000Y-96393000D01*
X89210250Y-96393000D01*
X89369000Y-96234250D01*
X89372072Y-95670000D01*
X89359812Y-95545518D01*
X89323502Y-95425820D01*
X89264537Y-95315506D01*
X89185185Y-95218815D01*
X89088494Y-95139463D01*
X88978180Y-95080498D01*
X88858482Y-95044188D01*
X88734000Y-95031928D01*
X88169750Y-95035000D01*
X88011000Y-95193750D01*
X87757000Y-95193750D01*
X87598250Y-95035000D01*
X87034000Y-95031928D01*
X86909518Y-95044188D01*
X86789820Y-95080498D01*
X86679506Y-95139463D01*
X86582815Y-95218815D01*
X86503463Y-95315506D01*
X86444498Y-95425820D01*
X86408188Y-95545518D01*
X86395928Y-95670000D01*
X80670000Y-95670000D01*
X80670000Y-76950510D01*
X80881303Y-77161813D01*
X81244785Y-77404684D01*
X81648665Y-77571977D01*
X82077422Y-77657262D01*
X82514578Y-77657262D01*
X82943335Y-77571977D01*
X83347215Y-77404684D01*
X83710697Y-77161813D01*
X84019813Y-76852697D01*
X84262684Y-76489215D01*
X84429977Y-76085335D01*
X84515262Y-75656578D01*
X84515262Y-75219422D01*
X84429977Y-74790665D01*
X84262684Y-74386785D01*
X84019813Y-74023303D01*
X83808510Y-73812000D01*
X88943198Y-73812000D01*
X88622765Y-74132434D01*
G37*
X88622765Y-74132434D02*
X88522550Y-74112500D01*
X88261450Y-74112500D01*
X88005366Y-74163438D01*
X87764140Y-74263357D01*
X87547043Y-74408417D01*
X87362417Y-74593043D01*
X87217357Y-74810140D01*
X87117438Y-75051366D01*
X87066500Y-75307450D01*
X87066500Y-75568550D01*
X87117438Y-75824634D01*
X87217357Y-76065860D01*
X87362417Y-76282957D01*
X87547043Y-76467583D01*
X87764140Y-76612643D01*
X88005366Y-76712562D01*
X88261450Y-76763500D01*
X88522550Y-76763500D01*
X88778634Y-76712562D01*
X89019860Y-76612643D01*
X89061201Y-76585020D01*
X89061200Y-78615097D01*
X86198698Y-81477601D01*
X86169700Y-81501399D01*
X86145902Y-81530397D01*
X86145901Y-81530398D01*
X86074726Y-81617124D01*
X86004154Y-81749154D01*
X85979645Y-81829954D01*
X85960698Y-81892414D01*
X85949700Y-82004067D01*
X85949700Y-82004078D01*
X85946024Y-82041400D01*
X85949700Y-82078722D01*
X85949700Y-82854478D01*
X85946024Y-82891800D01*
X85949700Y-82929122D01*
X85949700Y-82929132D01*
X85960697Y-83040785D01*
X85994736Y-83152999D01*
X86004154Y-83184046D01*
X86074726Y-83316076D01*
X86102240Y-83349601D01*
X86169699Y-83431801D01*
X86198702Y-83455603D01*
X86313900Y-83570801D01*
X86313900Y-83632939D01*
X86353674Y-83832898D01*
X86431695Y-84021256D01*
X86523000Y-84157905D01*
X86448774Y-84337102D01*
X86409000Y-84537061D01*
X86409000Y-84740939D01*
X86448774Y-84940898D01*
X86526795Y-85129256D01*
X86640063Y-85298774D01*
X86784226Y-85442937D01*
X86953744Y-85556205D01*
X87142102Y-85634226D01*
X87342061Y-85674000D01*
X87545939Y-85674000D01*
X87745898Y-85634226D01*
X87934256Y-85556205D01*
X88103774Y-85442937D01*
X88247937Y-85298774D01*
X88361205Y-85129256D01*
X88439226Y-84940898D01*
X88479000Y-84740939D01*
X88479000Y-84688100D01*
X91994868Y-84688100D01*
X91886995Y-84849544D01*
X91808974Y-85037902D01*
X91769200Y-85237861D01*
X91769200Y-85299998D01*
X90421003Y-86648196D01*
X90391999Y-86671999D01*
X90339158Y-86736386D01*
X90297026Y-86787724D01*
X90296278Y-86789124D01*
X90226454Y-86919754D01*
X90182997Y-87063015D01*
X90172000Y-87174668D01*
X90172000Y-87174678D01*
X90168324Y-87212000D01*
X90172000Y-87249323D01*
X90172001Y-89591650D01*
X90087043Y-89648417D01*
X89902417Y-89833043D01*
X89757357Y-90050140D01*
X89662000Y-90280352D01*
X89566643Y-90050140D01*
X89421583Y-89833043D01*
X89236957Y-89648417D01*
X89019860Y-89503357D01*
X88778634Y-89403438D01*
X88522550Y-89352500D01*
X88261450Y-89352500D01*
X88005366Y-89403438D01*
X87764140Y-89503357D01*
X87547043Y-89648417D01*
X87362417Y-89833043D01*
X87286084Y-89947283D01*
X86960500Y-89621699D01*
X86960500Y-87379711D01*
X87004437Y-87335774D01*
X87117705Y-87166256D01*
X87195726Y-86977898D01*
X87235500Y-86777939D01*
X87235500Y-86574061D01*
X87195726Y-86374102D01*
X87117705Y-86185744D01*
X87004437Y-86016226D01*
X86860274Y-85872063D01*
X86690756Y-85758795D01*
X86502398Y-85680774D01*
X86302439Y-85641000D01*
X86098561Y-85641000D01*
X85898602Y-85680774D01*
X85710244Y-85758795D01*
X85540726Y-85872063D01*
X85396563Y-86016226D01*
X85283295Y-86185744D01*
X85205274Y-86374102D01*
X85165500Y-86574061D01*
X85165500Y-86777939D01*
X85205274Y-86977898D01*
X85283295Y-87166256D01*
X85396563Y-87335774D01*
X85440500Y-87379711D01*
X85440501Y-89899168D01*
X85436824Y-89936500D01*
X85440501Y-89973833D01*
X85451498Y-90085486D01*
X85464680Y-90128942D01*
X85494954Y-90228746D01*
X85565526Y-90360776D01*
X85636701Y-90447502D01*
X85660500Y-90476501D01*
X85689498Y-90500299D01*
X90401162Y-95211964D01*
X90392815Y-95218815D01*
X90313463Y-95315506D01*
X90254498Y-95425820D01*
X90218188Y-95545518D01*
X90205928Y-95670000D01*
X90209000Y-96234250D01*
X90367750Y-96393000D01*
X91567000Y-96393000D01*
X91567000Y-96373000D01*
X91821000Y-96373000D01*
X91821000Y-96393000D01*
X93020250Y-96393000D01*
X93179000Y-96234250D01*
X93180855Y-95893500D01*
X96412978Y-95893500D01*
X96450300Y-95897176D01*
X96487622Y-95893500D01*
X96487633Y-95893500D01*
X96599286Y-95882503D01*
X96742547Y-95839046D01*
X96874576Y-95768474D01*
X96990301Y-95673501D01*
X97014103Y-95644498D01*
X97600603Y-95057999D01*
X97637241Y-95094637D01*
X97792000Y-95198044D01*
X97792001Y-95610473D01*
X97762149Y-95619528D01*
X97608613Y-95701595D01*
X97474038Y-95812038D01*
X97363595Y-95946613D01*
X97281528Y-96100149D01*
X97230992Y-96266745D01*
X97213928Y-96439999D01*
X97213928Y-97090001D01*
X97217346Y-97124700D01*
X93180736Y-97124700D01*
X93179000Y-96805750D01*
X93020250Y-96647000D01*
X91821000Y-96647000D01*
X91821000Y-96667000D01*
X91567000Y-96667000D01*
X91567000Y-96647000D01*
X90367750Y-96647000D01*
X90209000Y-96805750D01*
X90207269Y-97123716D01*
X90197276Y-97124700D01*
X90197267Y-97124700D01*
X90085614Y-97135697D01*
X89942353Y-97179154D01*
X89810324Y-97249726D01*
X89694599Y-97344699D01*
X89670801Y-97373697D01*
X88984303Y-98060196D01*
X88905620Y-97981513D01*
X88978180Y-97959502D01*
X89088494Y-97900537D01*
X89185185Y-97821185D01*
X89264537Y-97724494D01*
X89323502Y-97614180D01*
X89359812Y-97494482D01*
X89372072Y-97370000D01*
X89369000Y-96805750D01*
X89210250Y-96647000D01*
X88011000Y-96647000D01*
X88011000Y-96667000D01*
X87757000Y-96667000D01*
X87757000Y-96647000D01*
X86557750Y-96647000D01*
X86399000Y-96805750D01*
X86395928Y-97370000D01*
X86408188Y-97494482D01*
X86444498Y-97614180D01*
X86503463Y-97724494D01*
X86582815Y-97821185D01*
X86679506Y-97900537D01*
X86789820Y-97959502D01*
X86862380Y-97981513D01*
X86730525Y-98113368D01*
X86568010Y-98356589D01*
X86456068Y-98626842D01*
X86399000Y-98913740D01*
X86399000Y-99206260D01*
X86456068Y-99493158D01*
X86568010Y-99763411D01*
X86730525Y-100006632D01*
X86937368Y-100213475D01*
X87180589Y-100375990D01*
X87450842Y-100487932D01*
X87737740Y-100545000D01*
X88030260Y-100545000D01*
X88317158Y-100487932D01*
X88587411Y-100375990D01*
X88830632Y-100213475D01*
X89037475Y-100006632D01*
X89166796Y-99813089D01*
X89208286Y-99809003D01*
X89351547Y-99765546D01*
X89483576Y-99694974D01*
X89599301Y-99600001D01*
X89623104Y-99570997D01*
X90209000Y-98985102D01*
X90209000Y-99206260D01*
X90266068Y-99493158D01*
X90378010Y-99763411D01*
X90540525Y-100006632D01*
X90747368Y-100213475D01*
X90990589Y-100375990D01*
X91260842Y-100487932D01*
X91547740Y-100545000D01*
X91840260Y-100545000D01*
X92127158Y-100487932D01*
X92397411Y-100375990D01*
X92640632Y-100213475D01*
X92847475Y-100006632D01*
X92976796Y-99813089D01*
X93018286Y-99809003D01*
X93161547Y-99765546D01*
X93293576Y-99694974D01*
X93409301Y-99600001D01*
X93429819Y-99575000D01*
X97332386Y-99575000D01*
X97363595Y-99633387D01*
X97474038Y-99767962D01*
X97608613Y-99878405D01*
X97762149Y-99960472D01*
X97928745Y-100011008D01*
X98101999Y-100028072D01*
X99002001Y-100028072D01*
X99175255Y-100011008D01*
X99341851Y-99960472D01*
X99495387Y-99878405D01*
X99629962Y-99767962D01*
X99740405Y-99633387D01*
X99779864Y-99559565D01*
X99802498Y-99634180D01*
X99861463Y-99744494D01*
X99940815Y-99841185D01*
X100037506Y-99920537D01*
X100147820Y-99979502D01*
X100267518Y-100015812D01*
X100392000Y-100028072D01*
X100806250Y-100025000D01*
X100965000Y-99866250D01*
X100965000Y-98942000D01*
X101219000Y-98942000D01*
X101219000Y-99866250D01*
X101377750Y-100025000D01*
X101792000Y-100028072D01*
X101916482Y-100015812D01*
X102036180Y-99979502D01*
X102146494Y-99920537D01*
X102243185Y-99841185D01*
X102322537Y-99744494D01*
X102362000Y-99670665D01*
X102401463Y-99744494D01*
X102480815Y-99841185D01*
X102577506Y-99920537D01*
X102687820Y-99979502D01*
X102807518Y-100015812D01*
X102932000Y-100028072D01*
X103346250Y-100025000D01*
X103505000Y-99866250D01*
X103505000Y-98942000D01*
X103759000Y-98942000D01*
X103759000Y-99866250D01*
X103917750Y-100025000D01*
X104332000Y-100028072D01*
X104456482Y-100015812D01*
X104576180Y-99979502D01*
X104686494Y-99920537D01*
X104783185Y-99841185D01*
X104862537Y-99744494D01*
X104921502Y-99634180D01*
X104957812Y-99514482D01*
X104970072Y-99390000D01*
X104967000Y-99100750D01*
X104808250Y-98942000D01*
X103759000Y-98942000D01*
X103505000Y-98942000D01*
X102455750Y-98942000D01*
X102362000Y-99035750D01*
X102268250Y-98942000D01*
X101219000Y-98942000D01*
X100965000Y-98942000D01*
X100945000Y-98942000D01*
X100945000Y-98688000D01*
X100965000Y-98688000D01*
X100965000Y-98668000D01*
X101219000Y-98668000D01*
X101219000Y-98688000D01*
X102268250Y-98688000D01*
X102311550Y-98644700D01*
X102412450Y-98644700D01*
X102455750Y-98688000D01*
X103505000Y-98688000D01*
X103505000Y-98668000D01*
X103759000Y-98668000D01*
X103759000Y-98688000D01*
X104808250Y-98688000D01*
X104967000Y-98529250D01*
X104970072Y-98240000D01*
X104957812Y-98115518D01*
X104921502Y-97995820D01*
X104862537Y-97885506D01*
X104783185Y-97788815D01*
X104703406Y-97723342D01*
X104709962Y-97717962D01*
X104820405Y-97583387D01*
X104902472Y-97429851D01*
X104953008Y-97263255D01*
X104970072Y-97090001D01*
X104970072Y-96439999D01*
X104953008Y-96266745D01*
X104902472Y-96100149D01*
X104820405Y-95946613D01*
X104709962Y-95812038D01*
X104575387Y-95701595D01*
X104421851Y-95619528D01*
X104392000Y-95610473D01*
X104392000Y-95198043D01*
X104546759Y-95094637D01*
X104746637Y-94894759D01*
X104903680Y-94659727D01*
X105011853Y-94398574D01*
X105067000Y-94121335D01*
X105067000Y-93838665D01*
X105011853Y-93561426D01*
X104903680Y-93300273D01*
X104781484Y-93117393D01*
X104849497Y-93096762D01*
X104994556Y-93019226D01*
X105121701Y-92914881D01*
X105147856Y-92883011D01*
X106029704Y-92001164D01*
X106041450Y-92003500D01*
X106302550Y-92003500D01*
X106314296Y-92001164D01*
X110671001Y-96357869D01*
X110671000Y-97240981D01*
X110666960Y-97282000D01*
X110671000Y-97323018D01*
X110683082Y-97445688D01*
X110730828Y-97603086D01*
X110808364Y-97748145D01*
X110912709Y-97875291D01*
X110944579Y-97901446D01*
X111825193Y-98782061D01*
X111799000Y-98913740D01*
X111799000Y-99206260D01*
X111856068Y-99493158D01*
X111968010Y-99763411D01*
X112130525Y-100006632D01*
X112337368Y-100213475D01*
X112580589Y-100375990D01*
X112850842Y-100487932D01*
X113137740Y-100545000D01*
X113430260Y-100545000D01*
X113717158Y-100487932D01*
X113987411Y-100375990D01*
X114230632Y-100213475D01*
X114437475Y-100006632D01*
X114599990Y-99763411D01*
X114711932Y-99493158D01*
X114769000Y-99206260D01*
X114769000Y-98913740D01*
X114711932Y-98626842D01*
X114599990Y-98356589D01*
X114437475Y-98113368D01*
X114305620Y-97981513D01*
X114378180Y-97959502D01*
X114488494Y-97900537D01*
X114585185Y-97821185D01*
X114664537Y-97724494D01*
X114723502Y-97614180D01*
X114759812Y-97494482D01*
X114772072Y-97370000D01*
X114769000Y-96805750D01*
X114610250Y-96647000D01*
X113411000Y-96647000D01*
X113411000Y-96667000D01*
X113157000Y-96667000D01*
X113157000Y-96647000D01*
X113137000Y-96647000D01*
X113137000Y-96393000D01*
X113157000Y-96393000D01*
X113157000Y-95193750D01*
X113411000Y-95193750D01*
X113411000Y-96393000D01*
X114610250Y-96393000D01*
X114769000Y-96234250D01*
X114772072Y-95670000D01*
X114759812Y-95545518D01*
X114723502Y-95425820D01*
X114664537Y-95315506D01*
X114585185Y-95218815D01*
X114488494Y-95139463D01*
X114378180Y-95080498D01*
X114258482Y-95044188D01*
X114134000Y-95031928D01*
X113569750Y-95035000D01*
X113411000Y-95193750D01*
X113157000Y-95193750D01*
X112998250Y-95035000D01*
X112434000Y-95031928D01*
X112309518Y-95044188D01*
X112189820Y-95080498D01*
X112079506Y-95139463D01*
X111982815Y-95218815D01*
X111942638Y-95267770D01*
X108678367Y-92003500D01*
X108842550Y-92003500D01*
X109098634Y-91952562D01*
X109339860Y-91852643D01*
X109556957Y-91707583D01*
X109741583Y-91522957D01*
X109886643Y-91305860D01*
X109982000Y-91075648D01*
X110077357Y-91305860D01*
X110222417Y-91522957D01*
X110407043Y-91707583D01*
X110624140Y-91852643D01*
X110865366Y-91952562D01*
X111121450Y-92003500D01*
X111382550Y-92003500D01*
X111638634Y-91952562D01*
X111879860Y-91852643D01*
X112096957Y-91707583D01*
X112281583Y-91522957D01*
X112426643Y-91305860D01*
X112526562Y-91064634D01*
X112577500Y-90808550D01*
X112577500Y-90547450D01*
X112526562Y-90291366D01*
X112426643Y-90050140D01*
X112281583Y-89833043D01*
X112096957Y-89648417D01*
X111879860Y-89503357D01*
X111638634Y-89403438D01*
X111382550Y-89352500D01*
X111121450Y-89352500D01*
X110865366Y-89403438D01*
X110624140Y-89503357D01*
X110407043Y-89648417D01*
X110222417Y-89833043D01*
X110077357Y-90050140D01*
X109982000Y-90280352D01*
X109886643Y-90050140D01*
X109741583Y-89833043D01*
X109556957Y-89648417D01*
X109339860Y-89503357D01*
X109098634Y-89403438D01*
X108842550Y-89352500D01*
X108581450Y-89352500D01*
X108325366Y-89403438D01*
X108084140Y-89503357D01*
X107867043Y-89648417D01*
X107682417Y-89833043D01*
X107537357Y-90050140D01*
X107442000Y-90280352D01*
X107346643Y-90050140D01*
X107201583Y-89833043D01*
X107016957Y-89648417D01*
X106799860Y-89503357D01*
X106558634Y-89403438D01*
X106302550Y-89352500D01*
X106041450Y-89352500D01*
X105785366Y-89403438D01*
X105544140Y-89503357D01*
X105327043Y-89648417D01*
X105142417Y-89833043D01*
X104997357Y-90050140D01*
X104902000Y-90280352D01*
X104806643Y-90050140D01*
X104661583Y-89833043D01*
X104476957Y-89648417D01*
X104259860Y-89503357D01*
X104018634Y-89403438D01*
X103762550Y-89352500D01*
X103501450Y-89352500D01*
X103245366Y-89403438D01*
X103004140Y-89503357D01*
X102787043Y-89648417D01*
X102602417Y-89833043D01*
X102457357Y-90050140D01*
X102362000Y-90280352D01*
X102266643Y-90050140D01*
X102121583Y-89833043D01*
X101936957Y-89648417D01*
X101719860Y-89503357D01*
X101478634Y-89403438D01*
X101222550Y-89352500D01*
X100961450Y-89352500D01*
X100705366Y-89403438D01*
X100464140Y-89503357D01*
X100247043Y-89648417D01*
X100062417Y-89833043D01*
X99917357Y-90050140D01*
X99822000Y-90280352D01*
X99726643Y-90050140D01*
X99581583Y-89833043D01*
X99396957Y-89648417D01*
X99179860Y-89503357D01*
X98938634Y-89403438D01*
X98682550Y-89352500D01*
X98421450Y-89352500D01*
X98321236Y-89372434D01*
X96092056Y-87143255D01*
X96217956Y-87091105D01*
X96387474Y-86977837D01*
X96531637Y-86833674D01*
X96644905Y-86664156D01*
X96722926Y-86475798D01*
X96762700Y-86275839D01*
X96762700Y-86213701D01*
X99063004Y-83913398D01*
X99092001Y-83889601D01*
X99186974Y-83773876D01*
X99257546Y-83641847D01*
X99301003Y-83498586D01*
X99312000Y-83386933D01*
X99312000Y-83386924D01*
X99315676Y-83349601D01*
X99312000Y-83312278D01*
X99312000Y-76524350D01*
X99396957Y-76467583D01*
X99581583Y-76282957D01*
X99726643Y-76065860D01*
X99822000Y-75835648D01*
X99917357Y-76065860D01*
X100062417Y-76282957D01*
X100247043Y-76467583D01*
X100332001Y-76524350D01*
X100332000Y-78280277D01*
X100328324Y-78317600D01*
X100332000Y-78354922D01*
X100332000Y-78354932D01*
X100342997Y-78466585D01*
X100379534Y-78587032D01*
X100386454Y-78609846D01*
X100457026Y-78741876D01*
X100471409Y-78759401D01*
X100551999Y-78857601D01*
X100581003Y-78881404D01*
X102862798Y-81163200D01*
X102828761Y-81163200D01*
X102628802Y-81202974D01*
X102440444Y-81280995D01*
X102270926Y-81394263D01*
X102126763Y-81538426D01*
X102013495Y-81707944D01*
X101935474Y-81896302D01*
X101895700Y-82096261D01*
X101895700Y-82300139D01*
X101935474Y-82500098D01*
X102013495Y-82688456D01*
X102126763Y-82857974D01*
X102270926Y-83002137D01*
X102440444Y-83115405D01*
X102628802Y-83193426D01*
X102719983Y-83211563D01*
X102691400Y-83355261D01*
X102691400Y-83559139D01*
X102731174Y-83759098D01*
X102809195Y-83947456D01*
X102922463Y-84116974D01*
X103066626Y-84261137D01*
X103236144Y-84374405D01*
X103375976Y-84432326D01*
X103262926Y-84507863D01*
X103118763Y-84652026D01*
X103005495Y-84821544D01*
X102927474Y-85009902D01*
X102887700Y-85209861D01*
X102887700Y-85413739D01*
X102927474Y-85613698D01*
X103005495Y-85802056D01*
X103118763Y-85971574D01*
X103164289Y-86017100D01*
X103075963Y-86105426D01*
X102962695Y-86274944D01*
X102884674Y-86463302D01*
X102844900Y-86663261D01*
X102844900Y-86867139D01*
X102884674Y-87067098D01*
X102962695Y-87255456D01*
X103075963Y-87424974D01*
X103220126Y-87569137D01*
X103389644Y-87682405D01*
X103578002Y-87760426D01*
X103777961Y-87800200D01*
X103981839Y-87800200D01*
X104181798Y-87760426D01*
X104370156Y-87682405D01*
X104539674Y-87569137D01*
X104583611Y-87525200D01*
X110969478Y-87525200D01*
X111006800Y-87528876D01*
X111044122Y-87525200D01*
X111044133Y-87525200D01*
X111155786Y-87514203D01*
X111299047Y-87470746D01*
X111431076Y-87400174D01*
X111546801Y-87305201D01*
X111570604Y-87276198D01*
X112190902Y-86655900D01*
X112253039Y-86655900D01*
X112452998Y-86616126D01*
X112641356Y-86538105D01*
X112810874Y-86424837D01*
X112955037Y-86280674D01*
X113068305Y-86111156D01*
X113146326Y-85922798D01*
X113186100Y-85722839D01*
X113186100Y-85518961D01*
X113146326Y-85319002D01*
X113068305Y-85130644D01*
X112955037Y-84961126D01*
X112810874Y-84816963D01*
X112641356Y-84703695D01*
X112549504Y-84665649D01*
X112683356Y-84610205D01*
X112852874Y-84496937D01*
X112997037Y-84352774D01*
X113110305Y-84183256D01*
X113188326Y-83994898D01*
X113228100Y-83794939D01*
X113228100Y-83591061D01*
X113188326Y-83391102D01*
X113110305Y-83202744D01*
X113028640Y-83080524D01*
X113140405Y-82913256D01*
X113218426Y-82724898D01*
X113258200Y-82524939D01*
X113258200Y-82321061D01*
X113218426Y-82121102D01*
X113140405Y-81932744D01*
X113042420Y-81786098D01*
X113111805Y-81682256D01*
X113189826Y-81493898D01*
X113229600Y-81293939D01*
X113229600Y-81090061D01*
X113189826Y-80890102D01*
X113111805Y-80701744D01*
X112998537Y-80532226D01*
X112854374Y-80388063D01*
X112684856Y-80274795D01*
X112496498Y-80196774D01*
X112296539Y-80157000D01*
X112092661Y-80157000D01*
X111892702Y-80196774D01*
X111704344Y-80274795D01*
X111534826Y-80388063D01*
X111390663Y-80532226D01*
X111277395Y-80701744D01*
X111199374Y-80890102D01*
X111159600Y-81090061D01*
X111159600Y-81152198D01*
X108615999Y-83695800D01*
X108002001Y-83695800D01*
X109223003Y-82474799D01*
X109252001Y-82451001D01*
X109319769Y-82368426D01*
X109346974Y-82335277D01*
X109417546Y-82203247D01*
X109433532Y-82150546D01*
X109461003Y-82059986D01*
X109472000Y-81948333D01*
X109472000Y-81948324D01*
X109475676Y-81911001D01*
X109472000Y-81873678D01*
X109472000Y-76524350D01*
X109556957Y-76467583D01*
X109741583Y-76282957D01*
X109886643Y-76065860D01*
X109982000Y-75835648D01*
X110077357Y-76065860D01*
X110222417Y-76282957D01*
X110407043Y-76467583D01*
X110624140Y-76612643D01*
X110865366Y-76712562D01*
X111121450Y-76763500D01*
X111382550Y-76763500D01*
X111638634Y-76712562D01*
X111879860Y-76612643D01*
X112096957Y-76467583D01*
X112281583Y-76282957D01*
X112426643Y-76065860D01*
X112526562Y-75824634D01*
X112577500Y-75568550D01*
X112577500Y-75307450D01*
X112526562Y-75051366D01*
X112426643Y-74810140D01*
X112281583Y-74593043D01*
X112096957Y-74408417D01*
X111879860Y-74263357D01*
X111638634Y-74163438D01*
X111382550Y-74112500D01*
X111121450Y-74112500D01*
X111021235Y-74132434D01*
X110799904Y-73911102D01*
X110776101Y-73882099D01*
X110690685Y-73812000D01*
X115555490Y-73812000D01*
X115344187Y-74023303D01*
X115101316Y-74386785D01*
X114934023Y-74790665D01*
X114848738Y-75219422D01*
X114848738Y-75656578D01*
X114934023Y-76085335D01*
X115101316Y-76489215D01*
X115344187Y-76852697D01*
X115653303Y-77161813D01*
X116016785Y-77404684D01*
X116420665Y-77571977D01*
X116849422Y-77657262D01*
X117286578Y-77657262D01*
X117715335Y-77571977D01*
X118119215Y-77404684D01*
X118466000Y-77172969D01*
X118466001Y-98849031D01*
X118119215Y-98617316D01*
X117715335Y-98450023D01*
X117286578Y-98364738D01*
X116849422Y-98364738D01*
X116420665Y-98450023D01*
X116016785Y-98617316D01*
X115653303Y-98860187D01*
X115344187Y-99169303D01*
X115101316Y-99532785D01*
X114934023Y-99936665D01*
X114848738Y-100365422D01*
X114848738Y-100802578D01*
X114934023Y-101231335D01*
X115101316Y-101635215D01*
X115344187Y-101998697D01*
X115653303Y-102307813D01*
X115887053Y-102464000D01*
X104776342Y-102464000D01*
X104784385Y-102455131D01*
X104929070Y-102213881D01*
X105023909Y-101949040D01*
X104902624Y-101727000D01*
X103759000Y-101727000D01*
X103759000Y-101747000D01*
X103505000Y-101747000D01*
X103505000Y-101727000D01*
X103485000Y-101727000D01*
X103485000Y-101473000D01*
X103505000Y-101473000D01*
X103505000Y-100330085D01*
X103759000Y-100330085D01*
X103759000Y-101473000D01*
X104902624Y-101473000D01*
X105023909Y-101250960D01*
X104929070Y-100986119D01*
X104784385Y-100744869D01*
X104595414Y-100536481D01*
X104369420Y-100368963D01*
X104115087Y-100248754D01*
X103981039Y-100208096D01*
X103759000Y-100330085D01*
X103505000Y-100330085D01*
X103282961Y-100208096D01*
X103148913Y-100248754D01*
X102894580Y-100368963D01*
X102668586Y-100536481D01*
X102479615Y-100744869D01*
X102368067Y-100930865D01*
X102363680Y-100920273D01*
X102206637Y-100685241D01*
X102006759Y-100485363D01*
X101771727Y-100328320D01*
X101510574Y-100220147D01*
X101233335Y-100165000D01*
X100950665Y-100165000D01*
X100673426Y-100220147D01*
X100412273Y-100328320D01*
X100177241Y-100485363D01*
X99977363Y-100685241D01*
X99822000Y-100917759D01*
X99666637Y-100685241D01*
X99466759Y-100485363D01*
X99231727Y-100328320D01*
X98970574Y-100220147D01*
X98693335Y-100165000D01*
X98410665Y-100165000D01*
X98133426Y-100220147D01*
X97872273Y-100328320D01*
X97637241Y-100485363D01*
X97438643Y-100683961D01*
X97437812Y-100675518D01*
X97401502Y-100555820D01*
X97342537Y-100445506D01*
X97263185Y-100348815D01*
X97166494Y-100269463D01*
X97056180Y-100210498D01*
X96936482Y-100174188D01*
X96812000Y-100161928D01*
X95212000Y-100161928D01*
X95087518Y-100174188D01*
X94967820Y-100210498D01*
X94857506Y-100269463D01*
X94760815Y-100348815D01*
X94681463Y-100445506D01*
X94622498Y-100555820D01*
X94586188Y-100675518D01*
X94573928Y-100800000D01*
X94573928Y-102400000D01*
X94580231Y-102464000D01*
X83476947Y-102464000D01*
X83710697Y-102307813D01*
X84019813Y-101998697D01*
X84262684Y-101635215D01*
X84429977Y-101231335D01*
X84515262Y-100802578D01*
X84515262Y-100365422D01*
X84429977Y-99936665D01*
X84262684Y-99532785D01*
X84019813Y-99169303D01*
X83710697Y-98860187D01*
X83347215Y-98617316D01*
X82943335Y-98450023D01*
X82514578Y-98364738D01*
X82077422Y-98364738D01*
X81648665Y-98450023D01*
X81244785Y-98617316D01*
X80881303Y-98860187D01*
X80670000Y-99071490D01*
X80670000Y-95670000D01*
X86395928Y-95670000D01*
X86399000Y-96234250D01*
X86557750Y-96393000D01*
X87757000Y-96393000D01*
X87757000Y-95193750D01*
X88011000Y-95193750D01*
X88011000Y-96393000D01*
X89210250Y-96393000D01*
X89369000Y-96234250D01*
X89372072Y-95670000D01*
X89359812Y-95545518D01*
X89323502Y-95425820D01*
X89264537Y-95315506D01*
X89185185Y-95218815D01*
X89088494Y-95139463D01*
X88978180Y-95080498D01*
X88858482Y-95044188D01*
X88734000Y-95031928D01*
X88169750Y-95035000D01*
X88011000Y-95193750D01*
X87757000Y-95193750D01*
X87598250Y-95035000D01*
X87034000Y-95031928D01*
X86909518Y-95044188D01*
X86789820Y-95080498D01*
X86679506Y-95139463D01*
X86582815Y-95218815D01*
X86503463Y-95315506D01*
X86444498Y-95425820D01*
X86408188Y-95545518D01*
X86395928Y-95670000D01*
X80670000Y-95670000D01*
X80670000Y-76950510D01*
X80881303Y-77161813D01*
X81244785Y-77404684D01*
X81648665Y-77571977D01*
X82077422Y-77657262D01*
X82514578Y-77657262D01*
X82943335Y-77571977D01*
X83347215Y-77404684D01*
X83710697Y-77161813D01*
X84019813Y-76852697D01*
X84262684Y-76489215D01*
X84429977Y-76085335D01*
X84515262Y-75656578D01*
X84515262Y-75219422D01*
X84429977Y-74790665D01*
X84262684Y-74386785D01*
X84019813Y-74023303D01*
X83808510Y-73812000D01*
X88943198Y-73812000D01*
X88622765Y-74132434D01*
%TD*%
M02*
