M48
; DRILL file {KiCad (5.1.6)-1} date 03/31/21 10:32:39
; FORMAT={-:-/ absolute / inch / decimal}
; #@! TF.CreationDate,2021-03-31T10:32:39-04:00
; #@! TF.GenerationSoftware,Kicad,Pcbnew,(5.1.6)-1
FMAT,2
INCH
T1C0.0157
T2C0.0315
T3C0.0335
T4C0.0394
%
G90
G05
T1
X3.3651Y-3.2939
X3.3937Y-3.4124
X3.4389Y-3.2886
X3.4423Y-3.1187
X3.4424Y-3.245
X3.4427Y-3.3322
X3.6537Y-3.3598
X3.6539Y-3.2418
X3.6548Y-3.409
X3.6717Y-3.3043
X3.6795Y-3.0836
X3.7048Y-3.177
X3.7289Y-3.2085
X3.7324Y-3.2535
X3.7688Y-3.3927
X3.7868Y-3.1865
X3.8209Y-3.2494
X4.0524Y-3.2361
X4.0837Y-3.2857
X4.0898Y-3.416
X4.0914Y-3.3587
X4.1655Y-3.2688
X4.2044Y-3.2965
X4.2056Y-3.2571
X4.2059Y-3.1066
X4.4154Y-3.3709
X4.4171Y-3.295
X4.4171Y-3.1965
X4.4182Y-3.245
T2
X3.78Y-3.7
X3.78Y-4.0
X3.88Y-3.7
X3.88Y-4.0
X3.98Y-3.7
X3.98Y-4.0
X4.08Y-3.7
X4.08Y-4.0
T3
X3.98Y-2.97
X3.98Y-3.57
X4.08Y-2.97
X4.08Y-3.57
X4.18Y-2.97
X4.18Y-3.57
X4.28Y-2.97
X4.28Y-3.57
X4.38Y-2.97
X4.38Y-3.57
X3.48Y-2.97
X3.48Y-3.57
X3.58Y-2.97
X3.58Y-3.57
X3.68Y-2.97
X3.68Y-3.57
X3.78Y-2.97
X3.78Y-3.57
X3.88Y-2.97
X3.88Y-3.57
T4
X4.46Y-3.8
X4.46Y-3.9
X3.61Y-3.8
X3.61Y-3.9
X3.46Y-3.8
X3.46Y-3.9
T0
M30
